<svg width="38" height="38" viewBox="0 0 38 38" fill="none" xmlns="http://www.w3.org/2000/svg">
<path d="M12.8521 5.24613C12.917 5.24601 12.9813 5.23341 13.0415 5.20902C13.7501 4.92537 14.4781 4.69291 15.22 4.51345C15.3514 4.48171 15.4648 4.39907 15.5352 4.28371C15.6057 4.16835 15.6275 4.02972 15.5957 3.89832C15.564 3.76692 15.4813 3.65351 15.366 3.58304C15.2506 3.51257 15.112 3.49081 14.9806 3.52255C14.1911 3.71352 13.4164 3.96093 12.6624 4.26288C12.5524 4.30695 12.4613 4.38792 12.4046 4.49189C12.3478 4.59586 12.3291 4.71634 12.3515 4.83263C12.374 4.94892 12.4362 5.05377 12.5276 5.12916C12.6189 5.20455 12.7336 5.24578 12.8521 5.24576V5.24613Z" fill="#402A18"/>
<path d="M10.3336 6.60773C10.3908 6.57189 10.4403 6.52507 10.4792 6.46998C10.5181 6.41488 10.5457 6.35261 10.5604 6.28677C10.5751 6.22093 10.5765 6.15284 10.5647 6.08643C10.5528 6.02002 10.5279 5.95662 10.4914 5.89991C10.4549 5.84319 10.4075 5.79429 10.3519 5.75604C10.2964 5.71778 10.2338 5.69093 10.1678 5.67705C10.1018 5.66317 10.0336 5.66252 9.96738 5.67516C9.90112 5.68779 9.83803 5.71345 9.78176 5.75065C9.09941 6.19031 8.44908 6.67779 7.83567 7.20942C7.7851 7.25328 7.74366 7.30667 7.71373 7.36654C7.68379 7.42642 7.66594 7.4916 7.66119 7.55837C7.65645 7.62514 7.6649 7.6922 7.68607 7.7557C7.70724 7.8192 7.74071 7.87792 7.78457 7.92849C7.82843 7.97906 7.88182 8.02049 7.94169 8.05043C8.00156 8.08037 8.06675 8.09822 8.13352 8.10296C8.26837 8.11254 8.40151 8.06817 8.50364 7.97959C9.08047 7.47965 9.69201 7.02122 10.3336 6.60773Z" fill="#402A18"/>
<path d="M25.6111 6.20848C25.428 6.0671 25.2016 5.99357 24.9703 6.00044C24.7391 6.00731 24.5174 6.09414 24.343 6.24613C24.1686 6.39813 24.0523 6.6059 24.0139 6.83403C23.9755 7.06217 24.0174 7.29655 24.1324 7.49727C24.2474 7.69798 24.4285 7.8526 24.6448 7.93478C24.861 8.01696 25.0991 8.02162 25.3184 7.94796C25.5377 7.87431 25.7247 7.7269 25.8475 7.53084C25.9703 7.33478 26.0213 7.10221 25.9919 6.87275C25.958 6.60956 25.821 6.37058 25.611 6.20834L25.6111 6.20848Z" fill="#402A18"/>
<path d="M29.6115 9.20854C29.4549 9.08766 29.266 9.0159 29.0687 9.00235C28.8713 8.9888 28.6744 9.03406 28.5028 9.13242C28.3312 9.23077 28.1926 9.3778 28.1045 9.5549C28.0165 9.73201 27.9829 9.93125 28.0082 10.1274C28.0334 10.3236 28.1162 10.5079 28.2461 10.657C28.3761 10.8061 28.5473 10.9133 28.7383 10.9651C28.9292 11.0169 29.1311 11.0109 29.3187 10.9479C29.5062 10.885 29.6708 10.7678 29.7917 10.6113C29.9537 10.4012 30.0257 10.1353 29.9918 9.87218C29.9579 9.60904 29.8208 9.37014 29.6108 9.20798L29.6115 9.20854Z" fill="#402A18"/>
<path d="M22.7806 35.6783C22.0385 35.8575 21.2845 35.9834 20.5244 36.055C20.394 36.0674 20.2735 36.1295 20.1877 36.2284C20.1019 36.3273 20.0575 36.4553 20.0635 36.5861C20.0696 36.7169 20.1258 36.8403 20.2204 36.9308C20.315 37.0213 20.4407 37.0719 20.5716 37.0722C20.5876 37.0722 20.6037 37.0714 20.62 37.0699C21.4284 36.9935 22.2304 36.8596 23.0197 36.6692C23.0848 36.6534 23.1461 36.6251 23.2002 36.5856C23.2543 36.5462 23.3001 36.4965 23.335 36.4394C23.3699 36.3822 23.3932 36.3188 23.4036 36.2527C23.414 36.1865 23.4112 36.119 23.3955 36.0539C23.3798 35.9889 23.3514 35.9275 23.3119 35.8734C23.2725 35.8193 23.2228 35.7735 23.1657 35.7387C23.1085 35.7038 23.0451 35.6805 22.979 35.6701C22.9128 35.6597 22.8453 35.6625 22.7802 35.6782L22.7806 35.6783Z" fill="#402A18"/>
<path d="M17.4758 36.0555C16.7157 35.9837 15.9617 35.8579 15.2195 35.6788C15.0881 35.6471 14.9495 35.6688 14.8341 35.7393C14.7188 35.8098 14.6361 35.9232 14.6043 36.0546C14.5726 36.186 14.5943 36.3246 14.6648 36.44C14.7353 36.5554 14.8487 36.638 14.9801 36.6698C15.7695 36.8602 16.5715 36.9942 17.3799 37.0706C17.3962 37.0721 17.4122 37.0728 17.4281 37.0728C17.5584 37.0716 17.6833 37.0206 17.7772 36.9302C17.871 36.8398 17.9267 36.7169 17.9328 36.5868C17.9388 36.4566 17.8948 36.3291 17.8098 36.2304C17.7247 36.1317 17.6051 36.0693 17.4755 36.056L17.4758 36.0555Z" fill="#402A18"/>
<path d="M27.6659 33.5847C27.0244 33.9977 26.3541 34.3643 25.6603 34.6818C25.5995 34.7096 25.5447 34.7492 25.4991 34.7982C25.4535 34.8472 25.418 34.9047 25.3946 34.9674C25.3712 35.0302 25.3605 35.0969 25.3629 35.1638C25.3653 35.2307 25.3809 35.2965 25.4087 35.3573C25.4365 35.4182 25.4761 35.473 25.5251 35.5186C25.5741 35.5642 25.6316 35.5997 25.6944 35.6231C25.7571 35.6464 25.8238 35.6572 25.8907 35.6548C25.9576 35.6524 26.0234 35.6368 26.0843 35.609C26.8224 35.2712 27.5354 34.8812 28.218 34.4419C28.3302 34.3681 28.4087 34.2529 28.4365 34.1215C28.4643 33.9901 28.4391 33.8531 28.3664 33.7402C28.2937 33.6272 28.1793 33.5476 28.0482 33.5185C27.9171 33.4894 27.7798 33.5132 27.6662 33.5847H27.6659Z" fill="#402A18"/>
<path d="M32.3168 29.9213C32.2643 29.8799 32.204 29.8492 32.1396 29.8311C32.0752 29.8129 32.0078 29.8077 31.9413 29.8156C31.8749 29.8235 31.8106 29.8444 31.7522 29.8771C31.6939 29.9099 31.6425 29.9538 31.6011 30.0064C31.1284 30.6062 30.6139 31.1718 30.0613 31.6989C29.9641 31.7923 29.9079 31.9205 29.9049 32.0553C29.902 32.1901 29.9526 32.3206 30.0456 32.4182C30.1387 32.5158 30.2666 32.5725 30.4014 32.576C30.5362 32.5795 30.6669 32.5294 30.7649 32.4367C31.3524 31.8762 31.8994 31.2748 32.4019 30.6369C32.4854 30.5307 32.5233 30.3957 32.5073 30.2615C32.4914 30.1274 32.4229 30.005 32.3168 29.9213Z" fill="#402A18"/>
<path d="M34.8695 17.8146C34.8872 17.9359 34.9478 18.0467 35.0403 18.127C35.1328 18.2074 35.251 18.2519 35.3735 18.2525C35.3977 18.2525 35.4219 18.2508 35.4459 18.2474C35.5797 18.2282 35.7004 18.1567 35.7815 18.0486C35.8626 17.9405 35.8975 17.8047 35.8786 17.6709C35.764 16.8669 35.5919 16.0721 35.3638 15.2927C35.3257 15.163 35.2377 15.0537 35.1191 14.9888C35.0005 14.924 34.861 14.9089 34.7313 14.947C34.6016 14.985 34.4923 15.073 34.4274 15.1916C34.3626 15.3102 34.3475 15.4498 34.3856 15.5795C34.6 16.312 34.7617 17.059 34.8695 17.8146Z" fill="#402A18"/>
<path d="M34.8016 25.025C34.6738 24.9809 34.5338 24.9893 34.4122 25.0483C34.2906 25.1074 34.1974 25.2124 34.1532 25.3401C33.9033 26.0618 33.602 26.7647 33.2515 27.4432C33.2186 27.5029 33.1979 27.5685 33.1908 27.6363C33.1837 27.7041 33.1902 27.7726 33.21 27.8378C33.2298 27.903 33.2624 27.9635 33.306 28.0159C33.3496 28.0683 33.4033 28.1113 33.4638 28.1426C33.5244 28.1739 33.5906 28.1927 33.6585 28.1979C33.7265 28.2032 33.7948 28.1947 33.8594 28.1731C33.924 28.1515 33.9836 28.1172 34.0348 28.0721C34.0859 28.0271 34.1274 27.9722 34.157 27.9108C34.5298 27.1888 34.8504 26.4409 35.1163 25.673C35.1382 25.6098 35.1474 25.5429 35.1435 25.476C35.1395 25.4092 35.1224 25.3439 35.0931 25.2837C35.0639 25.2235 35.0231 25.1696 34.973 25.1252C34.9229 25.0808 34.8646 25.0466 34.8014 25.0247L34.8016 25.025Z" fill="#402A18"/>
<path d="M2.65989 17.4655C2.72564 17.4781 2.79322 17.4776 2.85879 17.4641C2.92435 17.4506 2.98661 17.4243 3.04201 17.3867C3.0974 17.3491 3.14485 17.301 3.18163 17.2451C3.21842 17.1891 3.24382 17.1265 3.25639 17.0608C3.40021 16.311 3.59757 15.5726 3.84695 14.8511C3.89114 14.7234 3.88277 14.5833 3.82369 14.4617C3.7646 14.3401 3.65964 14.247 3.53189 14.2028C3.40414 14.1586 3.26407 14.167 3.14249 14.2261C3.02091 14.2852 2.92778 14.3901 2.88359 14.5179C2.61822 15.2855 2.40821 16.0711 2.25518 16.8688C2.22978 17.0015 2.25814 17.1389 2.33403 17.2508C2.40993 17.3627 2.52714 17.4398 2.65989 17.4652V17.4655Z" fill="#402A18"/>
<path d="M12.3398 34.6819C11.6453 34.364 10.9745 33.9969 10.3323 33.5835C10.2187 33.5103 10.0806 33.4853 9.94847 33.5139C9.81636 33.5425 9.70101 33.6224 9.62782 33.736C9.55462 33.8497 9.52957 33.9877 9.55817 34.1199C9.58678 34.252 9.66669 34.3673 9.78034 34.4405C10.4634 34.8802 11.177 35.2706 11.9157 35.6088C11.9821 35.6394 12.0543 35.6553 12.1274 35.6552C12.2438 35.6552 12.3567 35.6155 12.4473 35.5425C12.538 35.4695 12.6009 35.3677 12.6257 35.254C12.6505 35.1403 12.6357 35.0216 12.5837 34.9175C12.5316 34.8134 12.4456 34.7302 12.3398 34.6818V34.6819Z" fill="#402A18"/>
<path d="M3.13044 22.3778C3.02313 21.6217 2.96931 20.859 2.96939 20.0953C2.97015 20.0279 2.95752 19.961 2.93222 19.8984C2.90693 19.8359 2.86947 19.779 2.82202 19.731C2.77458 19.6831 2.71809 19.645 2.65583 19.6191C2.59356 19.5931 2.52677 19.5798 2.45931 19.5798C2.39186 19.5799 2.32508 19.5933 2.26286 19.6194C2.20063 19.6454 2.1442 19.6836 2.09682 19.7316C2.04945 19.7796 2.01208 19.8365 1.98687 19.8991C1.96167 19.9617 1.94913 20.0286 1.94999 20.0961C1.94996 20.9076 2.0072 21.7181 2.12129 22.5216C2.13904 22.6428 2.19964 22.7536 2.2921 22.834C2.38456 22.9143 2.50275 22.9589 2.62523 22.9595C2.64949 22.9595 2.67372 22.9577 2.69775 22.9544C2.8315 22.9351 2.95216 22.8636 3.03327 22.7555C3.11438 22.6474 3.14933 22.5116 3.13044 22.3778Z" fill="#402A18"/>
<path d="M35.5401 19.5863C35.405 19.5865 35.2755 19.6402 35.1799 19.7357C35.0843 19.8313 35.0306 19.9608 35.0304 20.096C35.0304 20.8596 34.9766 21.6222 34.8694 22.3783C34.8503 22.5121 34.8852 22.648 34.9663 22.7561C35.0475 22.8643 35.1682 22.9357 35.302 22.9548C35.3261 22.9581 35.3503 22.9599 35.3745 22.9599C35.497 22.9593 35.6152 22.9147 35.7077 22.8344C35.8001 22.7541 35.8608 22.6432 35.8785 22.522C35.9925 21.7184 36.0498 20.9077 36.0498 20.096C36.0496 19.9608 35.9959 19.8313 35.9004 19.7358C35.8048 19.6402 35.6753 19.5865 35.5401 19.5863Z" fill="#402A18"/>
<path d="M3.8466 25.3397C3.8024 25.212 3.70926 25.107 3.58768 25.048C3.46609 24.9889 3.32601 24.9805 3.19826 25.0247C3.07051 25.0689 2.96556 25.1621 2.90648 25.2836C2.8474 25.4052 2.83904 25.5453 2.88324 25.6731C3.14902 26.4405 3.46943 27.188 3.842 27.9096C3.8718 27.9706 3.91348 28.0251 3.9646 28.0697C4.01572 28.1144 4.07525 28.1484 4.13969 28.1697C4.20413 28.1911 4.27218 28.1993 4.33985 28.194C4.40753 28.1887 4.47345 28.1699 4.53377 28.1387C4.59408 28.1076 4.64757 28.0647 4.69108 28.0126C4.7346 27.9605 4.76727 27.9003 4.78717 27.8354C4.80708 27.7705 4.81382 27.7022 4.807 27.6347C4.80019 27.5672 4.77994 27.5017 4.74747 27.4421C4.39739 26.7637 4.09633 26.0611 3.8466 25.3397Z" fill="#402A18"/>
<path d="M6.39775 30.0049C6.35633 29.9523 6.30496 29.9084 6.24656 29.8756C6.18817 29.8429 6.1239 29.822 6.05742 29.8141C5.99095 29.8062 5.92357 29.8115 5.85913 29.8296C5.7947 29.8478 5.73447 29.8784 5.68188 29.9199C5.62929 29.9613 5.58538 30.0127 5.55264 30.071C5.51991 30.1294 5.499 30.1937 5.49111 30.2602C5.48321 30.3267 5.48849 30.394 5.50663 30.4585C5.52478 30.5229 5.55544 30.5831 5.59686 30.6357C6.09924 31.2734 6.64614 31.8747 7.23346 32.4352C7.3316 32.5267 7.46188 32.5758 7.59603 32.5719C7.73017 32.568 7.85736 32.5113 7.94999 32.4142C8.04261 32.3171 8.09321 32.1874 8.09078 32.0532C8.08836 31.919 8.03312 31.7912 7.93705 31.6975C7.38464 31.1703 6.87025 30.6047 6.39775 30.0049Z" fill="#402A18"/>
<path d="M6.31389 9.47028C6.20762 9.38685 6.0726 9.34895 5.93843 9.3649C5.80427 9.38084 5.68189 9.44932 5.59813 9.55534C5.09578 10.1935 4.63942 10.8666 4.2325 11.5695C4.18773 11.6469 4.16413 11.7348 4.16406 11.8243C4.164 11.9137 4.18747 12.0016 4.23213 12.0792C4.27678 12.1567 4.34105 12.2211 4.41847 12.2659C4.4959 12.3107 4.58375 12.3344 4.67321 12.3345C4.76264 12.3344 4.85046 12.3108 4.92794 12.2661C5.00541 12.2214 5.06984 12.1573 5.11482 12.08C5.49734 11.419 5.92642 10.7862 6.3988 10.1862C6.48228 10.0799 6.52021 9.94489 6.5043 9.81069C6.48838 9.6765 6.41991 9.55408 6.31389 9.47028Z" fill="#402A18"/>
<path d="M31.121 17.9593C31.3379 18.0195 31.5675 18.0128 31.7807 17.9399C31.9938 17.867 32.1809 17.7312 32.318 17.5499C32.3653 17.4877 32.4015 17.4177 32.4252 17.3429L33.532 13.836L36.5938 11.8516C36.6588 11.8095 36.7162 11.7563 36.7632 11.6942C36.895 11.5203 36.9755 11.3119 36.9952 11.0933C37.015 10.8746 36.9732 10.6548 36.8747 10.4594C36.7762 10.264 36.6251 10.1012 36.4391 9.98997C36.253 9.87872 36.0397 9.82362 35.8241 9.83111L32.2653 9.34693L30.4844 7.94781L32.9303 4.72572C33.0168 4.6119 33.0803 4.48187 33.1174 4.34306C33.1544 4.20425 33.1642 4.05937 33.1462 3.91669C33.1282 3.77402 33.0828 3.63635 33.0125 3.51155C32.9422 3.38675 32.8485 3.27726 32.7366 3.18934L31.9705 2.58722C31.6982 2.37409 31.3619 2.26321 31.0185 2.27334C30.675 2.28347 30.3456 2.41398 30.0859 2.6428L27.0981 5.28627L22.3743 1.57366C21.8039 1.127 21.0825 0.928905 20.3687 1.02285C19.6548 1.11679 19.0068 1.4951 18.5668 2.07474C18.1268 2.65437 17.9308 3.38796 18.0218 4.11449C18.1129 4.84101 18.4835 5.50109 19.0524 5.94985L23.776 9.66234L22.0177 13.2719C21.8658 13.5854 21.8249 13.9426 21.902 14.2831C21.9791 14.6237 22.1695 14.9267 22.4408 15.141L23.2069 15.7434C23.3944 15.8917 23.6252 15.9721 23.8626 15.972C23.9092 15.972 23.9557 15.9689 24.0019 15.9628C24.1422 15.9449 24.2776 15.8988 24.4003 15.8273C24.523 15.7558 24.6305 15.6602 24.7166 15.5461L27.1626 12.3239L28.9435 13.7236L30.3091 17.0971C30.3543 17.3026 30.4538 17.4915 30.5969 17.6435C30.74 17.7954 30.9212 17.9047 31.121 17.9593ZM30.1075 13.0394C30.0631 12.9297 29.9911 12.8337 29.8988 12.7612L26.4758 10.0714C26.4065 10.017 26.3274 9.97698 26.243 9.95367C26.1585 9.93036 26.0704 9.92421 25.9836 9.93556C25.8968 9.94691 25.8131 9.97554 25.7372 10.0198C25.6613 10.0641 25.5947 10.1232 25.5412 10.1936C25.4877 10.2641 25.4484 10.3446 25.4255 10.4305C25.4026 10.5164 25.3965 10.6061 25.4077 10.6944C25.4188 10.7827 25.447 10.8679 25.4905 10.9452C25.534 11.0224 25.5921 11.0902 25.6613 11.1446L26.1081 11.4957L23.8185 14.512L23.2547 14.0688C23.2265 14.0466 23.2067 14.0152 23.1986 13.9799C23.1905 13.9445 23.1946 13.9074 23.2103 13.8748L25.2122 9.76672C25.2806 9.62634 25.2991 9.46619 25.2645 9.31351C25.2299 9.16084 25.1445 9.02506 25.0226 8.92928L19.8667 4.87698C19.576 4.64851 19.3864 4.31189 19.3396 3.94117C19.2928 3.57046 19.3927 3.19601 19.6172 2.9002C19.8417 2.60439 20.1726 2.41146 20.5369 2.36384C20.9012 2.31623 21.2692 2.41783 21.56 2.6463L26.7158 6.69849C26.8377 6.79428 26.9884 6.84414 27.1424 6.83959C27.2963 6.83504 27.444 6.77635 27.5602 6.67352L30.9599 3.66562C30.9869 3.64176 31.0211 3.62815 31.0569 3.6271C31.0926 3.62605 31.1276 3.63762 31.1559 3.65986L31.7196 4.10281L29.43 7.11907L28.9833 6.76797C28.914 6.71356 28.8349 6.67356 28.7505 6.65026C28.666 6.62696 28.5779 6.62081 28.4911 6.63217C28.4043 6.64352 28.3206 6.67216 28.2447 6.71644C28.1688 6.76073 28.1022 6.81979 28.0487 6.89025C27.9953 6.96072 27.956 7.04122 27.9331 7.12714C27.9102 7.21307 27.9041 7.30274 27.9153 7.39104C27.9264 7.47934 27.9546 7.56454 27.9981 7.64177C28.0416 7.71901 28.0997 7.78676 28.1689 7.84117L31.5919 10.5315C31.6847 10.6045 31.7947 10.6512 31.9109 10.6671L35.2435 11.1201L32.6133 12.8247C32.4823 12.9096 32.3845 13.0385 32.337 13.189L31.3866 16.2004L30.1075 13.0394Z" fill="#402A18"/>
<path fill-rule="evenodd" clip-rule="evenodd" d="M8.31543 20.0961C8.31543 14.2047 13.1085 9.41162 19 9.41162C19.2852 9.41162 19.5678 9.42285 19.8475 9.4449L19.9578 10.3492C19.8146 10.3351 19.6709 10.3242 19.5269 10.3164L19.9578 12.9374C20.0063 13.2329 19.9679 13.536 19.8475 13.8102C19.727 14.0843 19.5296 14.3176 19.2792 14.4817L17.5594 15.6079C17.4506 15.6788 17.3654 15.7806 17.3147 15.9001C17.264 16.0197 17.2501 16.1516 17.2747 16.2792L17.5059 17.4899C17.5253 17.5904 17.5679 17.685 17.6303 17.7662C17.6927 17.8474 17.7732 17.9129 17.8654 17.9575L19.0737 18.5393C19.3778 18.6865 19.6254 18.929 19.779 19.2299C19.9326 19.5308 19.9837 19.8736 19.9246 20.2062L19.4843 22.6514C19.4415 22.8877 19.3444 23.1109 19.2008 23.3034C19.0581 23.4962 18.8721 23.6527 18.6578 23.7604C18.4435 23.8682 18.207 23.9241 17.9671 23.9237C17.9122 23.9237 17.8574 23.9208 17.8028 23.9152C17.5364 23.8887 17.2816 23.793 17.0636 23.6375C16.8457 23.482 16.6723 23.2722 16.5606 23.0289L16.1177 22.0757C16.0649 21.9626 15.9809 21.8668 15.8757 21.7997C15.7704 21.7325 15.6482 21.6967 15.5233 21.6965H13.7325C13.5977 21.6962 13.4662 21.7377 13.3559 21.8152L12.1518 22.6605C11.9729 22.786 11.7694 22.8722 11.5547 22.9134C11.34 22.9545 11.1191 22.9497 10.9064 22.8993L9.52312 22.5709C10.6223 26.777 14.4543 29.89 19 29.89C20.8948 29.8921 22.749 29.3413 24.3354 28.305L24.0214 25.4278C23.9837 25.0904 24.023 24.7487 24.1365 24.4287C24.25 24.1087 24.4346 23.8186 24.6765 23.5803L25.1002 23.1607C25.2856 22.9772 25.4144 22.7443 25.4713 22.4898L25.9572 20.3226C26.013 20.0706 25.9964 19.808 25.9095 19.565C25.8226 19.322 25.6689 19.1085 25.466 18.949C25.1206 18.6791 24.8614 18.3144 24.72 17.8995C24.5786 17.4847 24.5612 17.0376 24.6698 16.613L25.5325 16.8342C25.4668 17.0911 25.4774 17.3616 25.5629 17.6126C25.6485 17.8636 25.8053 18.0843 26.0143 18.2476C26.3496 18.5112 26.6037 18.8641 26.7473 19.2657C26.891 19.6673 26.9183 20.1013 26.8262 20.5178L26.3403 22.685C26.2462 23.1057 26.0332 23.4906 25.7267 23.7939L25.3031 24.2134C25.1568 24.3576 25.0451 24.5331 24.9765 24.7266C24.9079 24.9202 24.884 25.1268 24.9068 25.3309L25.1652 27.6998C26.2985 26.783 27.2125 25.6243 27.8403 24.3087C28.4681 22.9931 28.7939 21.5538 28.7937 20.0961C28.795 18.8992 28.5758 17.7192 28.1537 16.613L28.9799 16.2792C29.435 17.465 29.6845 18.752 29.6845 20.0961C29.6845 25.9876 24.8914 30.7806 19 30.7806C13.1085 30.7806 8.31543 25.9875 8.31543 20.0961ZM18.6232 10.3102C13.3968 10.5089 9.20605 14.8219 9.20605 20.0961C9.20597 20.6024 9.24502 21.1079 9.32287 21.6082L11.1121 22.033C11.2023 22.0544 11.296 22.0565 11.387 22.039C11.478 22.0215 11.5642 21.985 11.6401 21.9317L12.8443 21.0862C13.1042 20.9031 13.4145 20.8051 13.7325 20.8056H15.5233C15.8178 20.8062 16.1061 20.8907 16.3544 21.0491C16.6027 21.2075 16.8007 21.4333 16.9254 21.7002L17.3683 22.6534C17.4161 22.7562 17.4897 22.8449 17.582 22.9107C17.6743 22.9766 17.7821 23.0174 17.8949 23.0291C18.0077 23.0409 18.1216 23.0231 18.2255 22.9777C18.3293 22.9322 18.4197 22.8605 18.4876 22.7697C18.5485 22.6881 18.5896 22.5935 18.6078 22.4933L19.0481 20.0481C19.0731 19.9071 19.0515 19.7618 18.9863 19.6343C18.9212 19.5067 18.8162 19.4039 18.6873 19.3415L17.479 18.7597C17.2616 18.6545 17.0717 18.5 16.9246 18.3085C16.7774 18.117 16.6769 17.8938 16.6311 17.6567L16.3999 16.446C16.3418 16.1452 16.3746 15.8339 16.4943 15.5519C16.6139 15.2698 16.8148 15.0298 17.0715 14.8625L18.7913 13.7363C18.8975 13.6667 18.9812 13.5678 19.0322 13.4516C19.0833 13.3354 19.0995 13.2069 19.079 13.0816L18.6232 10.3102Z" fill="#402A18"/>
</svg>
