<svg width="37" height="37" viewBox="0 0 37 37" fill="none" xmlns="http://www.w3.org/2000/svg">
<g clip-path="url(#clip0)">
<path d="M36.5983 29.8845L28.9891 22.2753C28.73 22.0162 28.3856 21.8736 28.0193 21.8736C27.7658 21.8736 27.5237 21.9433 27.3123 22.0711L23.0375 17.7963C22.8184 17.5773 22.4632 17.5773 22.2441 17.7963C22.025 18.0154 22.025 18.3706 22.2441 18.5896L26.4895 22.8351L24.9255 24.3992L17.1384 16.6121L18.7025 15.0481L19.7445 16.0899C19.9634 16.309 20.3187 16.3089 20.5378 16.0899C20.7569 15.8708 20.7569 15.5156 20.5377 15.2966L19.4958 14.2547L22.2073 11.5432L22.4219 11.7578C22.6883 12.0243 23.0427 12.1711 23.4197 12.1711C23.7966 12.1711 24.151 12.0243 24.4175 11.7578L25.417 10.7584C25.6834 10.4919 25.8303 10.1375 25.8303 9.7606C25.8303 9.38366 25.6834 9.02927 25.417 8.76283L17.7484 1.09415C17.4819 0.82763 17.1275 0.680786 16.7505 0.680786C16.3736 0.680786 16.0193 0.827558 15.7528 1.09407L14.7533 2.09351C14.4868 2.36002 14.34 2.71434 14.34 3.09135C14.34 3.46822 14.4868 3.82261 14.7532 4.08912L14.9678 4.30368L6.39406 12.8774L6.1795 12.6629C5.62935 12.1128 4.73412 12.1128 4.18396 12.6629L3.18453 13.6624C2.91808 13.9289 2.77124 14.2833 2.77124 14.6601C2.77124 15.0371 2.91808 15.3915 3.18453 15.6579L10.853 23.3264C11.1195 23.593 11.4739 23.7397 11.8508 23.7397C12.2278 23.7397 12.5821 23.593 12.8486 23.3264L13.8481 22.327C13.8482 22.327 13.8482 22.327 13.8482 22.327C14.3982 21.7769 14.3983 20.8817 13.8482 20.3315L13.6336 20.1169L16.345 17.4055L24.1615 25.222C24.0337 25.4334 23.964 25.6755 23.964 25.9289C23.964 26.2953 24.1067 26.6397 24.3657 26.8988L31.9749 34.508C32.2339 34.767 32.5783 34.9096 32.9447 34.9096C33.3111 34.9096 33.6554 34.767 33.9145 34.508L36.5983 31.8242C36.8573 31.5652 37 31.2207 37 30.8544C37 30.488 36.8573 30.1435 36.5983 29.8845ZM15.5466 2.88691L16.5462 1.88741C16.6008 1.83284 16.6734 1.80278 16.7505 1.80278C16.8277 1.80278 16.9003 1.83284 16.9549 1.88748L24.6235 9.55602C24.6781 9.61058 24.7082 9.6832 24.7082 9.76038C24.7082 9.83756 24.6781 9.91019 24.6234 9.96482L23.6241 10.9643C23.5148 11.0734 23.3244 11.0735 23.2152 10.9643L15.5467 3.29579C15.4921 3.24116 15.462 3.1686 15.462 3.09135C15.462 3.0141 15.4921 2.94162 15.5466 2.88691ZM13.0548 21.5336L12.0552 22.533C11.9461 22.6422 11.7556 22.6422 11.6464 22.533L3.97786 14.8645C3.9233 14.8099 3.89316 14.7373 3.89316 14.6601C3.89316 14.583 3.92323 14.5103 3.97793 14.4557L4.97729 13.4563C5.03366 13.3999 5.10766 13.3717 5.18173 13.3717C5.2558 13.3717 5.3298 13.3999 5.3861 13.4563L13.0546 21.1247C13.1674 21.2375 13.1674 21.4208 13.0548 21.5336ZM15.9483 16.2154C15.9482 16.2154 15.9482 16.2154 15.9482 16.2155L12.8402 19.3235L7.18739 13.6708L15.7612 5.09715L21.4139 10.7498L18.3063 13.8574C18.306 13.8576 18.3058 13.8578 18.3056 13.858L15.9483 16.2154ZM35.8049 31.0307L33.1211 33.7145C33.0575 33.7781 32.9833 33.7875 32.9447 33.7875C32.9061 33.7875 32.8319 33.7781 32.7683 33.7145L25.1591 26.1052C25.0955 26.0416 25.086 25.9674 25.086 25.9288C25.086 25.8902 25.0955 25.816 25.1591 25.7524L25.3223 25.5892L27.8429 23.0686C27.9064 23.005 27.9806 22.9955 28.0193 22.9955C28.0579 22.9955 28.1321 23.005 28.1956 23.0686L35.8049 30.6778C35.8685 30.7414 35.878 30.8156 35.878 30.8542C35.878 30.8928 35.8685 30.9671 35.8049 31.0307Z" fill="#402A18"/>
<path d="M21.3061 31.3465H20.4465V28.3902C20.4465 27.7307 19.9101 27.1942 19.2506 27.1942H9.58025C9.27038 27.1942 9.01926 27.4454 9.01926 27.7552C9.01926 28.065 9.27038 28.3162 9.58025 28.3162H19.2506C19.2914 28.3162 19.3246 28.3494 19.3246 28.3901V31.3464H4.41839V28.3901C4.41839 28.3493 4.45156 28.3162 4.49232 28.3162H6.05543C6.3653 28.3162 6.61642 28.065 6.61642 27.7552C6.61642 27.4454 6.3653 27.1942 6.05543 27.1942H4.49232C3.83282 27.1942 3.2964 27.7307 3.2964 28.3902V31.3465H2.43687C1.09316 31.3465 0 32.4396 0 33.7833V35.3806C0 35.8982 0.42102 36.3192 0.938586 36.3192H22.8044C23.3219 36.3192 23.7429 35.8982 23.7429 35.3806V33.7833C23.7429 32.4396 22.6498 31.3465 21.3061 31.3465ZM22.621 35.1972H1.122V33.7833C1.122 33.0584 1.71183 32.4684 2.43687 32.4684H21.3061C22.0311 32.4684 22.621 33.0583 22.621 33.7833V35.1972Z" fill="#402A18"/>
</g>
<defs>
<clipPath id="clip0">
<rect width="37" height="37" fill="white"/>
</clipPath>
</defs>
</svg>
