<svg width="34" height="34" viewBox="0 0 34 34" fill="none" xmlns="http://www.w3.org/2000/svg">
<path d="M26.5625 5.3125C26.5625 4.43381 25.8474 3.71875 24.9688 3.71875C24.0901 3.71875 23.375 4.43381 23.375 5.3125C23.375 6.19119 24.0901 6.90625 24.9688 6.90625C25.8474 6.90625 26.5625 6.19119 26.5625 5.3125ZM24.4375 5.3125C24.4375 5.01925 24.6755 4.78125 24.9688 4.78125C25.262 4.78125 25.5 5.01925 25.5 5.3125C25.5 5.60575 25.262 5.84375 24.9688 5.84375C24.6755 5.84375 24.4375 5.60575 24.4375 5.3125Z" fill="#402A18"/>
<path d="M29.2188 6.90625C28.3401 6.90625 27.625 7.62131 27.625 8.5C27.625 9.37869 28.3401 10.0938 29.2188 10.0938C30.0974 10.0938 30.8125 9.37869 30.8125 8.5C30.8125 7.62131 30.0974 6.90625 29.2188 6.90625ZM29.2188 9.03125C28.9255 9.03125 28.6875 8.79325 28.6875 8.5C28.6875 8.20675 28.9255 7.96875 29.2188 7.96875C29.512 7.96875 29.75 8.20675 29.75 8.5C29.75 8.79325 29.512 9.03125 29.2188 9.03125Z" fill="#402A18"/>
<path d="M24.5337 9.80237L28.7859 3.42785L29.6699 4.01753L25.4177 10.3921L24.5337 9.80237Z" fill="#402A18"/>
<path d="M24.4375 19.6562H22.3125C21.4338 19.6562 20.7188 20.3713 20.7188 21.25V29.75C20.7188 30.6287 21.4338 31.3438 22.3125 31.3438H24.4375C25.3162 31.3438 26.0312 30.6287 26.0312 29.75V21.25C26.0312 20.3713 25.3162 19.6562 24.4375 19.6562ZM24.9688 29.75C24.9688 30.0433 24.7308 30.2812 24.4375 30.2812H22.3125C22.0193 30.2812 21.7812 30.0433 21.7812 29.75V21.25C21.7812 20.9568 22.0193 20.7188 22.3125 20.7188H24.4375C24.7308 20.7188 24.9688 20.9568 24.9688 21.25V29.75Z" fill="#402A18"/>
<path d="M18.0625 26.0312H15.9375C15.0588 26.0312 14.3438 26.7463 14.3438 27.625V29.75C14.3438 30.6287 15.0588 31.3438 15.9375 31.3438H18.0625C18.9412 31.3438 19.6562 30.6287 19.6562 29.75V27.625C19.6562 26.7463 18.9412 26.0312 18.0625 26.0312ZM18.5938 29.75C18.5938 30.0433 18.3558 30.2812 18.0625 30.2812H15.9375C15.6443 30.2812 15.4062 30.0433 15.4062 29.75V27.625C15.4062 27.3318 15.6443 27.0938 15.9375 27.0938H18.0625C18.3558 27.0938 18.5938 27.3318 18.5938 27.625V29.75Z" fill="#402A18"/>
<path d="M11.7188 26.0312H9.59375C8.71506 26.0312 8 26.7463 8 27.625V29.75C8 30.6287 8.71506 31.3438 9.59375 31.3438H11.7188C12.5974 31.3438 13.3125 30.6287 13.3125 29.75V27.625C13.3125 26.7463 12.5974 26.0312 11.7188 26.0312ZM12.25 29.75C12.25 30.0433 12.012 30.2812 11.7188 30.2812H9.59375C9.3005 30.2812 9.0625 30.0433 9.0625 29.75V27.625C9.0625 27.3318 9.3005 27.0938 9.59375 27.0938H11.7188C12.012 27.0938 12.25 27.3318 12.25 27.625V29.75Z" fill="#402A18"/>
<path d="M18.0625 19.6562H15.9375C15.0588 19.6562 14.3438 20.3713 14.3438 21.25V23.375C14.3438 24.2537 15.0588 24.9688 15.9375 24.9688H18.0625C18.9412 24.9688 19.6562 24.2537 19.6562 23.375V21.25C19.6562 20.3713 18.9412 19.6562 18.0625 19.6562ZM18.5938 23.375C18.5938 23.6683 18.3558 23.9062 18.0625 23.9062H15.9375C15.6443 23.9062 15.4062 23.6683 15.4062 23.375V21.25C15.4062 20.9568 15.6443 20.7188 15.9375 20.7188H18.0625C18.3558 20.7188 18.5938 20.9568 18.5938 21.25V23.375Z" fill="#402A18"/>
<path d="M11.7188 19.6562H9.59375C8.71506 19.6562 8 20.3713 8 21.25V23.375C8 24.2537 8.71506 24.9688 9.59375 24.9688H11.7188C12.5974 24.9688 13.3125 24.2537 13.3125 23.375V21.25C13.3125 20.3713 12.5974 19.6562 11.7188 19.6562ZM12.25 23.375C12.25 23.6683 12.012 23.9062 11.7188 23.9062H9.59375C9.3005 23.9062 9.0625 23.6683 9.0625 23.375V21.25C9.0625 20.9568 9.3005 20.7188 9.59375 20.7188H11.7188C12.012 20.7188 12.25 20.9568 12.25 21.25V23.375Z" fill="#402A18"/>
<path d="M18.0625 13.2812H15.9375C15.0588 13.2812 14.3438 13.9963 14.3438 14.875V17C14.3438 17.8787 15.0588 18.5938 15.9375 18.5938H18.0625C18.9412 18.5938 19.6562 17.8787 19.6562 17V14.875C19.6562 13.9963 18.9412 13.2812 18.0625 13.2812ZM18.5938 17C18.5938 17.2933 18.3558 17.5312 18.0625 17.5312H15.9375C15.6443 17.5312 15.4062 17.2933 15.4062 17V14.875C15.4062 14.5818 15.6443 14.3438 15.9375 14.3438H18.0625C18.3558 14.3438 18.5938 14.5818 18.5938 14.875V17Z" fill="#402A18"/>
<path d="M11.6875 13.2812H9.5625C8.68381 13.2812 7.96875 13.9963 7.96875 14.875V17C7.96875 17.8787 8.68381 18.5938 9.5625 18.5938H11.6875C12.5662 18.5938 13.2812 17.8787 13.2812 17V14.875C13.2812 13.9963 12.5662 13.2812 11.6875 13.2812ZM12.2188 17C12.2188 17.2933 11.9808 17.5312 11.6875 17.5312H9.5625C9.26925 17.5312 9.03125 17.2933 9.03125 17V14.875C9.03125 14.5818 9.26925 14.3438 9.5625 14.3438H11.6875C11.9808 14.3438 12.2188 14.5818 12.2188 14.875V17Z" fill="#402A18"/>
<path d="M20.7188 14.875V17C20.7188 17.8787 21.4338 18.5938 22.3125 18.5938H24.4375C25.3162 18.5938 26.0312 17.8787 26.0312 17V14.875C26.0312 13.9963 25.3162 13.2812 24.4375 13.2812H22.3125C21.4338 13.2812 20.7188 13.9963 20.7188 14.875ZM24.9688 14.875V17C24.9688 17.2933 24.7308 17.5312 24.4375 17.5312H22.3125C22.0193 17.5312 21.7812 17.2933 21.7812 17V14.875C21.7812 14.5818 22.0193 14.3438 22.3125 14.3438H24.4375C24.7308 14.3438 24.9688 14.5818 24.9688 14.875Z" fill="#402A18"/>
<path fill-rule="evenodd" clip-rule="evenodd" d="M27.0938 0.53125C30.609 0.53125 33.4688 3.39097 33.4688 6.90625C33.4688 10.0587 31.1663 12.6772 28.1562 13.1851V30.8125C28.1562 32.2772 26.9647 33.4688 25.5 33.4688H6.375V32.4062H9.72453H25.5C26.3787 32.4062 27.0938 31.6912 27.0938 30.8125V13.2812C25.2121 13.2812 23.5232 12.4567 22.3555 11.1562H9.03125C8.44528 11.1562 7.96875 10.6797 7.96875 10.0938V3.71875C7.96875 3.13278 8.44528 2.65625 9.03125 2.65625H22.3555C22.7173 2.25356 23.1253 1.89391 23.5774 1.59375H8.5C7.62131 1.59375 6.90625 2.30881 6.90625 3.1875V21.8078L5.84375 21.8083V3.1875C5.84375 1.72284 7.03534 0.53125 8.5 0.53125H27.0938ZM20.7188 6.90625C20.7188 5.74441 21.0359 4.65747 21.581 3.71875H9.03125V10.0938H21.581C21.0359 9.15503 20.7188 8.06809 20.7188 6.90625ZM21.7812 6.90625C21.7812 9.83556 24.1644 12.2188 27.0938 12.2188C30.0231 12.2188 32.4062 9.83556 32.4062 6.90625C32.4062 3.97694 30.0231 1.59375 27.0938 1.59375C24.1644 1.59375 21.7812 3.97694 21.7812 6.90625Z" fill="#402A18"/>
<path d="M6.375 22.8438C6.19546 22.8438 6.0182 22.8537 5.84375 22.8731V27.5H6.90625V22.8731C6.7318 22.8537 6.55454 22.8438 6.375 22.8438Z" fill="#402A18"/>
<path d="M6.90625 21.8078L5.84375 21.8083V22.8731C6.0182 22.8537 6.19546 22.8438 6.375 22.8438C6.55454 22.8438 6.7318 22.8537 6.90625 22.8731V21.8078Z" fill="#402A18"/>
</svg>
