<svg width="35" height="35" viewBox="0 0 35 35" fill="none" xmlns="http://www.w3.org/2000/svg">
<path d="M21.7543 0C18.3437 0 15.5688 2.77478 15.5688 6.18557C15.5688 6.47363 15.8023 6.70715 16.0904 6.70715C16.3785 6.70715 16.6119 6.47363 16.6119 6.18557C16.6119 3.35009 18.9188 1.0431 21.7543 1.0431C24.5899 1.0431 26.8968 3.34995 26.8968 6.18557C26.8968 9.02111 24.5899 11.328 21.7543 11.328C21.5502 11.328 21.3449 11.3159 21.1442 11.2922C20.8586 11.2587 20.5988 11.4629 20.565 11.7489C20.5313 12.0349 20.7357 12.2942 21.0217 12.3281C21.263 12.3566 21.5095 12.3711 21.7543 12.3711C25.165 12.3711 27.9398 9.59629 27.9398 6.18557C27.9398 2.77484 25.1651 0 21.7543 0Z" fill="#402A18"/>
<path d="M11.4867 7.83566C11.3386 7.58868 11.0184 7.50849 10.7711 7.65656C8.91522 8.76945 7.76221 10.8036 7.76221 12.965C7.76221 14.2978 8.17961 15.5671 8.96923 16.6358C9.0717 16.7743 9.22941 16.8475 9.38923 16.8475C9.49696 16.8475 9.60552 16.8143 9.69876 16.7454C9.93043 16.5742 9.97944 16.2476 9.80827 16.016C9.15216 15.1281 8.80537 14.0731 8.80537 12.9651C8.80537 11.1408 9.74073 9.49078 11.3076 8.55118C11.5546 8.40305 11.6348 8.08264 11.4867 7.83566Z" fill="#402A18"/>
<path d="M13.9478 6.77954C13.5111 6.77954 13.0749 6.82534 12.6514 6.91571C12.3697 6.97587 12.19 7.253 12.2501 7.53464C12.3103 7.81628 12.5875 7.99579 12.8692 7.93584C13.2212 7.86064 13.5841 7.82264 13.9479 7.82264C16.7834 7.82264 19.0904 10.1296 19.0904 12.9652C19.0904 14.0732 18.7436 15.1281 18.0875 16.0161C17.9163 16.2477 17.9654 16.5743 18.197 16.7455C18.2902 16.8144 18.3988 16.8476 18.5065 16.8476C18.6663 16.8476 18.8241 16.7744 18.9264 16.636C19.716 15.5673 20.1334 14.298 20.1334 12.9652C20.1334 9.55445 17.3585 6.77954 13.9478 6.77954Z" fill="#402A18"/>
<path d="M27.4266 13.0343H21.1277C20.8396 13.0343 20.6061 13.2678 20.6061 13.5559C20.6061 13.8439 20.8396 14.0775 21.1277 14.0775H27.4266C27.628 14.0775 27.7919 14.2413 27.7919 14.4427V15.1093H20.8031C20.5149 15.1093 20.2815 15.3428 20.2815 15.6309C20.2815 15.9189 20.5149 16.1524 20.8031 16.1524H27.7919V16.5046C27.7919 16.7926 28.0253 17.0261 28.3134 17.0261C28.6016 17.0261 28.835 16.7926 28.835 16.5046V14.4428C28.835 13.6661 28.2033 13.0343 27.4266 13.0343Z" fill="#402A18"/>
<path d="M28.3134 22.1765C28.6016 22.1765 28.835 21.943 28.835 21.655V19.0514C28.835 18.0626 28.0306 17.2583 27.042 17.2583H7.81268C6.93754 17.2583 6.2253 16.5477 6.22236 15.6732V15.6676C6.22236 15.6672 6.2223 15.6667 6.2223 15.6662C6.22298 15.0427 6.59055 14.4741 7.15923 14.2173C7.42173 14.0989 7.53849 13.7899 7.42002 13.5274C7.30142 13.2649 6.99264 13.1481 6.73007 13.2667C5.78794 13.692 5.1792 14.6345 5.1792 15.668C5.1792 15.6698 5.17934 15.6715 5.17934 15.6733V32.3662C5.17934 33.8185 6.36052 35 7.81254 35H27.0419C28.0306 35 28.835 34.1956 28.835 33.2069V29.7916C28.835 29.5036 28.6015 29.2701 28.3134 29.2701C28.0253 29.2701 27.7919 29.5036 27.7919 29.7916V33.2069C27.7919 33.6205 27.4554 33.9569 27.0419 33.9569H7.81247C6.93569 33.9569 6.22236 33.2434 6.22236 32.3662V17.7653C6.66458 18.1014 7.21563 18.3014 7.81268 18.3014H27.0419C27.4555 18.3014 27.7919 18.6379 27.7919 19.0514V21.655C27.7919 21.943 28.0253 22.1765 28.3134 22.1765Z" fill="#402A18"/>
<path d="M28.3779 22.5925H24.6608C22.9345 22.5925 21.53 23.997 21.53 25.7233C21.53 27.4495 22.9344 28.854 24.6608 28.854H25.6057C25.8938 28.854 26.1273 28.6205 26.1273 28.3324C26.1273 28.0443 25.8938 27.8108 25.6057 27.8108H24.6608C23.5096 27.8108 22.5731 26.8743 22.5731 25.7232C22.5731 24.5721 23.5096 23.6356 24.6608 23.6356H28.3779C28.5983 23.6356 28.7776 23.8149 28.7776 24.0354V27.411C28.7776 27.6315 28.5983 27.8108 28.3779 27.8108H27.3442C27.0561 27.8108 26.8226 28.0443 26.8226 28.3324C26.8226 28.6205 27.0561 28.854 27.3442 28.854H28.3779C29.1735 28.854 29.8207 28.2067 29.8207 27.4111V24.0355C29.8207 23.2398 29.1735 22.5925 28.3779 22.5925Z" fill="#402A18"/>
<path d="M24.6028 24.1581C23.7398 24.1581 23.0376 24.8603 23.0376 25.7233C23.0376 26.5863 23.7397 27.2885 24.6028 27.2885C25.4659 27.2885 26.1681 26.5864 26.1681 25.7233C26.1681 24.8602 25.4659 24.1581 24.6028 24.1581ZM24.6028 26.2454C24.3148 26.2454 24.0806 26.0112 24.0806 25.7232C24.0806 25.4353 24.3148 25.2011 24.6028 25.2011C24.8908 25.2011 25.1249 25.4354 25.1249 25.7232C25.1249 26.0112 24.8908 26.2454 24.6028 26.2454Z" fill="#402A18"/>
<path d="M10.4417 2.63831C10.1536 2.63831 9.92017 2.87182 9.92017 3.15989V5.80239C9.92017 6.09045 10.1536 6.32397 10.4417 6.32397C10.7299 6.32397 10.9633 6.09045 10.9633 5.80239V3.15989C10.9633 2.87182 10.7299 2.63831 10.4417 2.63831Z" fill="#402A18"/>
<path d="M13.0492 1.59521C12.761 1.59521 12.5276 1.82873 12.5276 2.1168V4.7593C12.5276 5.04736 12.761 5.28088 13.0492 5.28088C13.3373 5.28088 13.5708 5.04736 13.5708 4.7593V2.1168C13.5707 1.82873 13.3372 1.59521 13.0492 1.59521Z" fill="#402A18"/>
</svg>
