<svg width="35" height="35" viewBox="0 0 35 35" fill="none" xmlns="http://www.w3.org/2000/svg">
<g clip-path="url(#clip0)">
<path fill-rule="evenodd" clip-rule="evenodd" d="M33.3486 24.9076C32.817 24.0837 31.7518 23.8676 30.9624 24.4022L30.5467 24.6208L28.3937 22.9039C26.2476 21.1925 23.6506 20.2609 21.0117 20.1352C21.1378 19.4492 21.4817 18.5301 22.3625 17.6491C22.6227 17.7209 23.5818 17.7446 23.8815 17.7446C25.6376 17.7446 27.1923 17.4019 28.5165 16.7215C28.7684 16.592 28.8676 16.283 28.7382 16.0311C28.6087 15.7791 28.2995 15.68 28.0478 15.8094C26.7602 16.4712 25.2091 16.7725 23.4296 16.7103C26.6427 14.0268 30.2405 11.8983 31.8393 11.0015C31.564 11.9364 30.9932 13.3203 29.8486 14.4849C29.6501 14.6868 29.653 15.0115 29.8549 15.2099C30.0567 15.4082 30.3813 15.4056 30.5799 15.2036C32.2914 13.4621 32.8635 11.3005 33.03 10.452C33.1371 9.90626 32.6704 9.42303 32.1025 9.43034C27.0761 9.52625 22.3309 11.6755 21.7008 16.7175C21.6946 16.7671 21.6937 16.8165 21.6966 16.8656C21.3855 17.1689 21.1274 17.4775 20.914 17.7839V13.5185C23.1338 11.4977 23.8343 8.8307 23.286 5.84168C22.8251 3.32975 21.5806 1.17609 21.0669 0.36685C20.7651 -0.108726 20.0557 -0.135865 19.7368 0.366782C19.2231 1.17609 17.9786 3.32968 17.5177 5.84168C16.9708 8.82318 17.665 11.4927 19.8885 13.5176V17.6971C19.6876 17.4193 19.4494 17.1403 19.1676 16.8656C19.1705 16.8165 19.1696 16.7671 19.1634 16.7175C18.5343 11.6832 13.7862 9.52612 8.76169 9.43028C8.18856 9.42474 7.72761 9.9092 7.83419 10.4519C8.63358 14.5258 11.7149 17.7456 16.9622 17.7456C17.2637 17.7456 18.2428 17.7204 18.5018 17.649C19.3843 18.5308 19.7288 19.4468 19.8546 20.1319C17.8244 20.2166 15.8049 20.779 13.9814 21.8321C13.7747 21.7586 13.5868 21.6963 13.4298 21.6494C11.8969 21.1902 10.1927 21.3898 8.75389 22.1966L5.06994 24.2622C4.61159 23.7957 3.88329 23.6773 3.28925 24.0204L2.0948 24.71C1.39309 25.1152 1.15179 26.0158 1.55695 26.7175L5.91445 34.2647C6.31982 34.9667 7.21718 35.2095 7.92203 34.8026L9.1164 34.1131C9.8069 33.7143 10.0502 32.8363 9.67182 32.1397L10.571 31.3422C10.832 31.1107 11.2003 31.0333 11.5322 31.1401L15.6754 32.4718C16.1916 32.6718 16.7632 32.7546 17.3342 32.6962L25.612 31.8468C26.2108 31.7854 26.793 31.5701 27.2958 31.2243C29.7348 29.5454 31.1377 28.5811 31.9466 28.0252C33.0295 27.2808 33.048 27.2682 33.0628 27.2522C33.0646 27.2504 33.0663 27.2485 33.0696 27.2453C33.7051 26.6507 33.825 25.6456 33.3486 24.9076ZM30.5311 10.5688C28.712 11.6278 25.6985 13.5046 22.9298 15.7928C24.0045 11.9756 27.9935 10.8764 30.5311 10.5688ZM16 14.2822C16.6467 14.761 17.298 15.2667 17.9363 15.7943C17.0017 12.4615 13.7594 10.9972 10.3404 10.5731C10.8465 10.8678 11.4444 11.2254 12.1035 11.6374L11.5 12.4687C10.4808 11.8333 9.61486 11.3325 9.02323 11.0007C9.62069 13.0492 11.5349 16.9169 17.4351 16.7108C16.806 16.1854 16.1622 15.6813 15.5216 15.2036L16 14.2822ZM22.2774 6.0268C22.7169 8.42232 22.2578 10.4406 20.914 12.0438V10H19.8887V12.0425C18.5457 10.4395 18.0869 8.4217 18.5263 6.0268C18.8016 4.52638 19.3815 3.15783 19.8887 2.16962V3.50003H20H20.914V2.1675C21.4215 3.15598 22.002 4.52542 22.2774 6.0268ZM27.7544 23.7057L29.5554 25.1419L27.3018 26.3264C26.5627 26.715 25.7798 26.9597 24.9675 27.0566L24.9796 26.8567C24.9812 26.8303 24.9808 26.8039 24.9782 26.7776C24.8661 25.5891 23.9963 24.6411 22.8629 24.4721C22.8583 24.4715 22.8536 24.4708 22.849 24.4703L18.7343 23.9709C17.9986 23.86 17.6217 23.6298 17.0701 23.2928C16.6443 23.0327 16.1144 22.7091 15.2352 22.3277C19.2863 20.3604 24.1946 20.8669 27.7544 23.7057ZM32.3929 26.4733L26.7146 30.3796C26.3531 30.6282 25.9357 30.7828 25.5074 30.8268L17.2296 31.6762C16.7053 31.73 16.3658 31.6188 16.0729 31.5229L16.004 31.5004L11.8459 30.1639C11.1704 29.947 10.4211 30.1044 9.89051 30.5752L9.14997 31.2321L7.49095 28.3586C7.34938 28.1133 7.03568 28.0295 6.79061 28.1709C6.54541 28.3125 6.46139 28.6261 6.60297 28.8713L8.76627 32.6182C8.8887 32.8304 8.81576 33.1026 8.60364 33.2251L7.40927 33.9146C7.19619 34.0375 6.92501 33.9645 6.80237 33.752L2.44515 26.205C2.32271 25.9929 2.39558 25.7206 2.60777 25.5981L3.80215 24.9085C4.0157 24.7852 4.28675 24.8593 4.40904 25.0712L5.40203 26.7911C5.54367 27.0363 5.85723 27.1202 6.10237 26.9787C6.34758 26.8372 6.43159 26.5236 6.29002 26.2784L5.62509 25.1267L9.25558 23.0911C10.4535 22.4193 11.8679 22.252 13.1358 22.6317C14.7717 23.1216 15.6679 23.6553 16.4089 24.0967C17.1098 24.5142 17.6719 24.849 18.5897 24.9859C18.592 24.9862 18.5942 24.9865 18.5965 24.9868C18.5989 24.9872 18.6012 24.9875 18.6036 24.9877L22.718 25.4871C23.3692 25.5874 23.8723 26.1388 23.9535 26.8368L23.9358 27.13L18.7055 27.4716C18.4229 27.4901 18.2088 27.7341 18.2273 28.0167C18.245 28.2879 18.4705 28.496 18.7384 28.496C18.7497 28.496 18.761 28.4956 18.7724 28.4949C20.4962 28.3391 21.8021 28.2726 22.8509 28.2192C25.17 28.101 26.2327 28.0468 27.779 27.2339C29.342 26.4116 30.2458 25.9372 30.7709 25.6615C31.4773 25.2907 31.4983 25.2796 31.5172 25.2656L31.5249 25.2599C31.8415 25.0356 32.2664 25.1213 32.4872 25.4636C32.6926 25.7818 32.6507 26.2097 32.3929 26.4733Z" fill="#402A18"/>
</g>
<defs>
<clipPath id="clip0">
<rect width="35" height="35" fill="white"/>
</clipPath>
</defs>
</svg>
