<svg width="40" height="40" viewBox="0 0 40 40" fill="none" xmlns="http://www.w3.org/2000/svg">
<g clip-path="url(#clip0)">
<path fill-rule="evenodd" clip-rule="evenodd" d="M37.6932 18.2046C36.0563 20.0633 33.7952 21.1727 31.3253 21.3298C31.1245 21.3423 30.9245 21.3485 30.7259 21.3483C29.9649 21.3483 29.2164 21.2561 28.4929 21.0764C28.5585 21.4351 28.603 21.7991 28.6265 22.1679C28.7835 24.6391 27.9686 27.0228 26.3325 28.8799C25.7785 29.5088 25.1534 30.0527 24.4721 30.5019C24.8964 30.5308 25.3089 30.5206 25.7527 30.4167L34.1607 28.4526C35.8382 28.0354 36.9079 28.9596 37.1923 29.9948C37.4876 31.0723 36.9781 32.4637 35.4514 32.92L22.2554 36.8655C21.4358 37.1108 20.6787 37.1873 20.0505 37.1873C19.3621 37.1873 18.8284 37.0952 18.5378 37.0295L13.9654 36.2366C13.6466 36.1811 13.4325 35.878 13.488 35.5592C13.5434 35.2405 13.8466 35.0272 14.1654 35.0819L18.7527 35.8772C18.7588 35.8781 18.7649 35.8794 18.771 35.8807C18.7751 35.8816 18.7791 35.8825 18.7831 35.8834C19.237 35.9873 20.452 36.1811 21.9194 35.7428L35.1162 31.7973C35.9764 31.5403 36.2092 30.8434 36.0616 30.3051C35.9225 29.7988 35.4232 29.3449 34.4403 29.591C34.4383 29.5915 34.4362 29.592 34.4344 29.5926C34.4334 29.5928 34.4325 29.5931 34.4317 29.5934L26.0191 31.5583C25.1081 31.7712 24.3498 31.6813 23.5474 31.5861L23.543 31.5856C23.2828 31.5544 23.014 31.5223 22.7359 31.5005C22.7187 31.4997 22.7015 31.4973 22.6843 31.4942L22.5398 31.47L18.6455 30.8184L17.9728 30.7059C17.9603 30.7036 17.9478 30.7012 17.9353 30.6981C16.6375 30.3911 16.1852 29.3551 16.3133 28.5215C16.4461 27.6573 17.1946 26.8277 18.369 26.9034H19.848C21.1888 26.9034 21.7272 26.1612 21.7834 25.4674C21.7952 25.3237 21.7873 25.176 21.7592 25.0299C21.6631 24.5252 21.3303 24.0337 20.7584 23.7494C20.5732 23.6564 20.3638 23.5853 20.1286 23.5431H18.2291C16.1446 23.5431 14.6592 23.7072 11.5167 24.6635C11.4686 24.6781 11.4202 24.6931 11.3713 24.7081C11.3496 24.7149 11.3277 24.7216 11.3058 24.7284L10.3955 25.0096L6.67359 26.1587V33.7818L11.4988 34.6194C11.8177 34.6741 12.0317 34.978 11.9763 35.2968C11.927 35.582 11.6793 35.7827 11.3996 35.7827C11.366 35.7827 11.3324 35.7796 11.2988 35.7741L6.58773 34.9564C6.37867 35.5586 5.80641 35.9928 5.13313 35.9928H1.53844C0.690078 35.9928 0 35.3027 0 34.4543V25.633C0 24.7835 0.690078 24.0923 1.53844 24.0924H5.13313C5.74797 24.0924 6.27836 24.4554 6.52523 24.9776L10.1832 23.8487C9.88391 21.3229 10.6168 18.6852 12.4256 16.6305C14.2548 14.5538 16.8144 13.4928 19.385 13.4928C20.1351 13.4928 20.8859 13.5834 21.6196 13.7647C21.2165 11.5849 21.597 9.2668 22.8284 7.25266C22.9971 6.97687 23.3581 6.89016 23.6339 7.05891C23.9097 7.22766 23.9972 7.58781 23.8284 7.86437C22.6315 9.82148 22.3548 12.1084 22.9182 14.1912C23.0698 14.753 23.2831 15.2999 23.5566 15.8218C24.0066 16.6843 24.62 17.4781 25.3896 18.1555C25.7584 18.4805 26.1514 18.7687 26.564 19.018C27.0663 19.3219 27.5977 19.5687 28.1493 19.7547C29.1338 20.0875 30.1831 20.2273 31.2512 20.1602C33.4084 20.0234 35.3837 19.0538 36.8135 17.4303C39.7615 14.0809 39.4365 8.95492 36.0884 6.00398C33.0858 3.36016 28.672 3.28742 25.5927 5.83055C25.3435 6.0368 24.9739 6.00164 24.7677 5.75164C24.5622 5.50242 24.5973 5.13289 24.8466 4.92664C26.4998 3.56094 28.5899 2.8125 30.7433 2.8125C30.7784 2.8125 30.8136 2.8125 30.8495 2.81328C33.063 2.83828 35.1992 3.65937 36.8627 5.12508C40.6959 8.50336 41.0686 14.3709 37.6932 18.2046ZM5.13313 34.821C5.33297 34.821 5.50172 34.6531 5.50172 34.4544V25.633C5.50172 25.4331 5.33289 25.2642 5.13313 25.2642H1.53844C1.33641 25.2642 1.17203 25.4297 1.17203 25.633V34.4544C1.17203 34.6531 1.33984 34.821 1.53844 34.821H5.13313ZM22.4212 30.2622C23.5729 29.7966 24.6082 29.0653 25.4528 28.1059C26.8827 26.4831 27.5945 24.401 27.4569 22.2423C27.4225 21.697 27.3342 21.1641 27.1967 20.6477C26.2653 20.2626 25.3941 19.7211 24.6152 19.0344C23.3666 17.9352 22.4759 16.5679 21.9672 15.0866C18.97 14.0787 15.5235 14.8873 13.3053 17.4054C11.7755 19.1422 11.1262 21.3572 11.3238 23.4979C13.8843 22.7252 15.3884 22.4666 17.0096 22.3955L18.6591 22.1696H20.11C20.6929 22.1696 21.2156 22.4352 21.5641 22.8524C22.5735 23.4806 23.033 24.5705 22.9517 25.562C22.8502 26.8128 21.8509 28.0754 19.8483 28.0754H18.3489C18.3355 28.0754 18.3221 28.0747 18.3081 28.0739L18.3059 28.0738C17.802 28.0379 17.5238 28.3613 17.4715 28.7004C17.409 29.1091 17.6762 29.427 18.1872 29.5536L22.4212 30.2622Z" fill="#402A18"/>
<path d="M30.687 16.12C29.751 16.12 29.031 15.932 28.527 15.556C28.023 15.18 27.771 14.612 27.771 13.852C27.771 13.548 27.815 13.272 27.903 13.024H27.339V12.256H28.347C28.507 12.096 28.719 11.952 28.983 11.824C29.255 11.688 29.535 11.568 29.823 11.464C30.119 11.36 30.379 11.272 30.603 11.2C30.827 11.12 30.971 11.064 31.035 11.032H27.339V10.264H31.923C31.987 10.152 32.031 10.036 32.055 9.916C32.087 9.796 32.103 9.644 32.103 9.46C32.103 9.084 31.975 8.792 31.719 8.584C31.463 8.368 31.063 8.26 30.519 8.26C30.127 8.26 29.755 8.312 29.403 8.416C29.059 8.52 28.751 8.636 28.479 8.764L28.179 7.816C28.483 7.672 28.855 7.552 29.295 7.456C29.735 7.36 30.163 7.312 30.579 7.312C31.387 7.312 32.023 7.48 32.487 7.816C32.959 8.144 33.195 8.648 33.195 9.328C33.195 9.496 33.183 9.664 33.159 9.832C33.135 9.992 33.091 10.136 33.027 10.264H33.687V11.032H32.643C32.515 11.16 32.315 11.292 32.043 11.428C31.771 11.556 31.487 11.676 31.191 11.788C30.895 11.9 30.627 11.996 30.387 12.076C30.147 12.156 29.991 12.216 29.919 12.256H33.687V13.024H29.019C28.955 13.144 28.911 13.256 28.887 13.36C28.863 13.464 28.851 13.608 28.851 13.792C28.851 14.72 29.495 15.184 30.783 15.184C31.239 15.184 31.679 15.128 32.103 15.016C32.535 14.896 32.895 14.772 33.183 14.644V15.616C32.911 15.744 32.547 15.86 32.091 15.964C31.635 16.068 31.167 16.12 30.687 16.12Z" fill="#402A18"/>
</g>
<defs>
<clipPath id="clip0">
<rect width="40" height="40" fill="white"/>
</clipPath>
</defs>
</svg>
