<svg width="38" height="38" viewBox="0 0 38 38" fill="none" xmlns="http://www.w3.org/2000/svg">
<path d="M26.6 4.1167C25.2028 4.1167 24.0667 5.25291 24.0667 6.65001V7.10794L9.26444 13.0284C9.02441 13.1253 8.8667 13.3577 8.8667 13.6167V22.4834C8.8667 22.7424 9.02441 22.9749 9.26444 23.0711L24.0667 28.9916V29.4501C24.0667 30.8473 25.2029 31.9834 26.6 31.9834C27.9971 31.9834 29.1333 30.8472 29.1333 29.4501V6.65001C29.1333 5.25284 27.9972 4.1167 26.6 4.1167ZM27.8667 29.45C27.8667 30.1486 27.2986 30.7167 26.6 30.7167C25.9014 30.7167 25.3333 30.1486 25.3333 29.45V28.5633C25.3333 28.3036 25.1756 28.0712 24.935 27.975L10.1333 22.0546V14.0455L24.935 8.12503C25.1757 8.0281 25.3333 7.79572 25.3333 7.5367V6.65001C25.3333 5.95146 25.9014 5.38332 26.6 5.38332C27.2986 5.38332 27.8667 5.95139 27.8667 6.65001V29.45Z" fill="#402A18"/>
<path d="M9.5 12.9833H5.06669C2.27302 12.9833 0 15.2563 0 18.05C0 20.8436 2.27302 23.1167 5.06669 23.1167H9.5C9.84957 23.1167 10.1333 22.8336 10.1333 22.4833V13.6167C10.1333 13.267 9.84957 12.9833 9.5 12.9833ZM8.86669 21.85H5.06669C2.97098 21.85 1.26669 20.1457 1.26669 18.05C1.26669 15.9543 2.97098 14.25 5.06669 14.25H8.86669V21.85Z" fill="#402A18"/>
<path d="M32.5002 15.5489L28.7002 14.2822C28.5064 14.2183 28.2955 14.2506 28.1295 14.3697C27.9642 14.4887 27.8667 14.68 27.8667 14.8833V21.2167C27.8667 21.4199 27.9642 21.6112 28.1295 21.7309C28.2391 21.8094 28.3689 21.85 28.5 21.85C28.5672 21.85 28.6349 21.8392 28.7002 21.817L32.5002 20.5503C32.7592 20.4648 32.9334 20.2229 32.9334 19.9499V16.1499C32.9333 15.877 32.7592 15.6357 32.5002 15.5489ZM31.6667 19.4933L29.1334 20.3375V15.7617L31.6667 16.606V19.4933Z" fill="#402A18"/>
<path d="M12.6077 30.3955L11.9719 29.759L10.1143 22.33C10.044 22.0482 9.79065 21.85 9.50001 21.85H4.43324C4.23946 21.85 4.05703 21.9387 3.93672 22.0894C3.81641 22.2414 3.77203 22.4396 3.81641 22.6284L6.34972 33.3951C6.41874 33.6858 6.67777 33.8834 6.96596 33.8834C7.00589 33.8834 7.04574 33.8796 7.08627 33.8713L11.8426 32.953C11.8489 32.9518 11.8553 32.9505 11.8616 32.9492C12.1403 32.8865 12.3948 32.7472 12.5975 32.5477C12.8863 32.262 13.0466 31.882 13.0491 31.4755C13.0517 31.0694 12.8959 30.6869 12.6077 30.3955ZM11.7077 31.6457C11.6754 31.678 11.6349 31.7002 11.5905 31.7116L7.44408 32.5128L5.2331 23.1166H9.00527L10.7862 30.2365C10.8141 30.348 10.8717 30.45 10.9528 30.531L11.7102 31.2885C11.7742 31.3525 11.7831 31.4278 11.7831 31.4678C11.7825 31.5064 11.7724 31.5818 11.7077 31.6457Z" fill="#402A18"/>
<path d="M38 17.4167H34.2V18.6834H38V17.4167Z" fill="#402A18"/>
<path d="M37.0391 9.90835L33.8728 11.8087L34.5246 12.8947L37.6909 10.9943L37.0391 9.90835Z" fill="#402A18"/>
<path d="M34.5304 23.2065L33.8787 24.2927L37.0454 26.1928L37.6971 25.1066L34.5304 23.2065Z" fill="#402A18"/>
<path d="M25.3333 7.28333H24.0667V28.8166H25.3333V7.28333Z" fill="#402A18"/>
<path d="M7.59994 15.5167H6.33325V18.05H7.59994V15.5167Z" fill="#402A18"/>
<path d="M5.06674 15.5167H3.80005V18.05H5.06674V15.5167Z" fill="#402A18"/>
</svg>
