<svg width="33" height="33" viewBox="0 0 33 33" fill="none" xmlns="http://www.w3.org/2000/svg">
<g clip-path="url(#clip0)">
<path d="M16.5686 5.7688C10.6515 5.7688 5.8374 10.5826 5.8374 16.5C5.8374 22.417 10.6515 27.2311 16.5686 27.2311C22.4859 27.2311 27.2997 22.417 27.2997 16.5C27.2997 10.5826 22.4859 5.7688 16.5686 5.7688ZM11.1675 24.3527V20.5912C11.1705 19.4337 12.0346 18.4591 13.1832 18.3176C14.7014 20.0869 17.3263 20.3878 19.2052 19.008C19.4801 18.8069 19.7309 18.5755 19.953 18.3176C21.1022 18.4591 21.9664 19.4334 21.9696 20.5912V24.3527C20.3943 25.4106 18.5696 26.0309 16.5686 26.0309C14.5675 26.0309 12.7428 25.4106 11.1675 24.3527ZM23.1698 23.3743V20.5912C23.1648 18.6634 21.6021 17.1024 19.674 17.1001C19.4833 17.1001 19.3036 17.1912 19.1905 17.345C18.5775 18.1796 17.6041 18.6727 16.5686 18.6727C15.533 18.6727 14.5593 18.1796 13.9463 17.345C13.8335 17.1912 13.6538 17.1001 13.4631 17.1001C11.5353 17.1024 9.97228 18.6634 9.96729 20.5912V23.3743C8.09487 21.5775 7.03558 19.095 7.03412 16.5C7.03412 11.2446 11.3114 6.96903 16.5668 6.96903C21.8222 6.96903 26.1018 11.2448 26.1018 16.5C26.1009 19.095 25.042 21.5775 23.1698 23.3743Z" fill="#402A18"/>
<path d="M31.1343 18.1833C31.2793 16.8453 31.2442 15.4939 31.0303 14.165L32.6911 12.5722C32.8728 12.3981 32.9264 12.1291 32.8256 11.8985L30.9347 7.57609C30.8328 7.34284 30.5948 7.19926 30.3408 7.21831L28.0417 7.38738C27.2142 6.32253 26.2323 5.38719 25.1285 4.61244L25.1958 2.31571C25.2035 2.06136 25.0496 1.82987 24.8123 1.73816L20.4128 0.0400777C20.1763 -0.051053 19.9079 0.0160498 19.7424 0.207981L18.2526 1.93448C16.9144 1.78973 15.5627 1.8246 14.2338 2.03851L12.6409 0.377642C12.4669 0.195967 12.1979 0.142343 11.9672 0.243144L7.64513 2.13462C7.41188 2.23659 7.2683 2.47453 7.28705 2.72829L7.45613 5.02765C6.39127 5.85515 5.45594 6.83708 4.68118 7.94061L2.38445 7.87322C2.12982 7.86472 1.89803 8.01885 1.8069 8.25708L0.109117 12.6563C0.0176931 12.8927 0.0847958 13.1608 0.276727 13.3267L2.00352 14.8164C1.85847 16.1544 1.89334 17.5058 2.10755 18.8347L0.446388 20.4276C0.264713 20.6016 0.211089 20.8706 0.312183 21.1012L2.20336 25.4233C2.30534 25.6566 2.54327 25.8002 2.79733 25.7814L5.0964 25.6124C5.9239 26.6772 6.90583 27.6125 8.00936 28.3873L7.94196 30.684C7.93434 30.9384 8.08818 31.1699 8.32582 31.2616L12.7253 32.9597C12.9618 33.0511 13.2302 32.984 13.3957 32.7918L14.8852 31.065C16.2231 31.21 17.5746 31.1751 18.9034 30.9612L20.4963 32.6221C20.6707 32.8038 20.9394 32.8574 21.17 32.7566L25.4924 30.8654C25.7253 30.7634 25.8689 30.5255 25.8502 30.2717L25.6811 27.9727C26.7459 27.1449 27.6813 26.1629 28.456 25.0591L30.7528 25.1265C31.0071 25.1338 31.2386 24.98 31.3303 24.7427L33.0284 20.3432C33.1195 20.1067 33.0524 19.8386 32.8605 19.6727L31.1343 18.1833ZM30.3633 23.9143L28.1639 23.8495C27.9567 23.8431 27.7613 23.9442 27.6467 24.1168C26.852 25.3102 25.8554 26.3566 24.7021 27.2087C24.5365 27.3312 24.4451 27.5299 24.4604 27.7353L24.6221 29.9359L21.0727 31.4887L19.549 29.8999C19.4095 29.7545 19.2064 29.6889 19.008 29.7252C17.5919 29.9843 16.1443 30.0218 14.7167 29.836C14.5166 29.8099 14.3167 29.8861 14.1849 30.0391L12.7631 31.6873L9.15421 30.2949L9.21867 28.0951C9.22482 27.8886 9.12402 27.6931 8.95202 27.5783C7.75824 26.7833 6.71184 25.787 5.85973 24.6336C5.73724 24.4681 5.53857 24.377 5.33316 24.3919L3.13255 24.5537L1.57981 21.0042L3.1683 19.4805C3.31393 19.341 3.37957 19.138 3.34323 18.9396C3.0839 17.5234 3.04669 16.0759 3.23247 14.6482C3.25855 14.4481 3.18207 14.2483 3.0294 14.1164L1.38084 12.6941L2.77359 9.08517L4.97333 9.14993C5.17991 9.15579 5.37536 9.05499 5.49022 8.88269C6.2852 7.6892 7.28148 6.6431 8.43512 5.79069C8.60068 5.6685 8.69181 5.46953 8.67658 5.26442L8.51483 3.06351L12.0642 1.51077L13.588 3.09955C13.7274 3.24489 13.9308 3.31053 14.1289 3.27449C15.5454 3.01487 16.9935 2.97736 18.4214 3.16343C18.6215 3.18951 18.8214 3.11303 18.9532 2.96036L20.3753 1.3121L23.9839 2.70485L23.9191 4.90429C23.913 5.11117 24.0138 5.30661 24.1861 5.42148C25.3796 6.21616 26.426 7.21274 27.2781 8.36608C27.4006 8.53164 27.5992 8.62277 27.8046 8.60783L30.0053 8.44608L31.5583 11.9955L29.9695 13.5192C29.8242 13.6587 29.7582 13.8618 29.7946 14.0601C30.0539 15.4763 30.0914 16.9239 29.9056 18.3515C29.8796 18.5516 29.9557 18.7512 30.1087 18.883L31.7564 20.3054L30.3633 23.9143Z" fill="#402A18"/>
<path d="M16.5686 9.38123C14.4635 9.38123 12.757 11.0875 12.757 13.1926C12.757 15.298 14.4635 17.0043 16.5686 17.0043C18.6737 17.0043 20.3803 15.2977 20.3803 13.1926C20.3779 11.0887 18.6728 9.38357 16.5686 9.38123ZM16.5686 15.804C15.1264 15.804 13.9572 14.6349 13.9572 13.1926C13.9572 11.7503 15.1264 10.5812 16.5686 10.5812C18.0109 10.5812 19.1801 11.7503 19.1801 13.1926C19.1783 14.6343 18.0103 15.8023 16.5686 15.804Z" fill="#402A18"/>
</g>
<defs>
<clipPath id="clip0">
<rect width="33" height="33" fill="white"/>
</clipPath>
</defs>
</svg>
