<svg width="187" height="20" viewBox="0 0 187 20" fill="none" xmlns="http://www.w3.org/2000/svg">
<path d="M186.083 7.72898C185.377 7.38036 184.562 7.59712 183.804 7.53571C184.054 7.45623 184.252 7.39301 184.404 7.34063C184.328 7.34063 184.252 7.34244 184.173 7.34424C182.959 7.37676 182.636 6.96492 182.181 6.54224C181.649 6.05093 182.263 5.901 182.893 5.65895C183.714 5.34285 183.121 5.14235 182.52 5.01048C181.468 4.77747 181.178 4.47402 182.171 4.03328C182.227 4.00799 182.319 4.00799 182.398 4.00799C182.395 3.97909 182.395 3.952 182.392 3.9231C182.326 3.9249 182.256 3.9267 182.207 3.90503C181.623 3.75149 181.059 3.56002 180.373 3.69369C179.644 3.8382 178.994 3.77859 178.397 3.50222C178.037 3.33604 177.576 3.2385 177.137 3.33605C175.758 3.63951 174.808 3.21141 173.831 2.80499C173.825 2.85557 173.822 2.90795 173.815 2.95852C172.792 3.17528 171.753 3.1518 170.704 3.02716C169.111 2.93143 169.758 2.37328 169.833 1.93254C169.827 1.93254 169.82 1.93073 169.814 1.93073C169.243 1.59295 168.596 1.35633 167.867 1.2064C167.455 1.27685 167.049 1.36355 166.64 1.44664L166.65 1.43581C166.373 1.23892 166.033 1.08358 165.674 0.986038C165.426 0.969781 165.179 0.939065 164.971 0.875845C164.961 0.875845 164.948 0.874048 164.938 0.874048C164.262 0.854178 163.243 0.431497 162.952 1.28588C160.604 1.17028 158.252 1.05468 155.903 0.94088C155.903 0.933655 155.9 0.928228 155.896 0.921002C155.84 0.960741 155.748 0.97881 155.573 0.94991C155.431 0.926427 155.339 0.816239 155.187 0.720505C155.339 0.666316 155.471 0.60852 155.603 0.557944C155.306 0.444146 154.857 0.574201 154.501 0.557944C153.759 0.435115 153.083 0.565167 152.416 0.736767C152.36 0.738573 152.304 0.740373 152.248 0.74218C152.264 0.751211 152.278 0.760247 152.291 0.769279C152.255 0.77831 152.218 0.787346 152.182 0.796378C152.109 0.794571 152.034 0.79276 151.961 0.790954C151.981 0.790954 152.001 0.790954 152.017 0.790954C151.931 0.729539 152.02 0.790953 152.043 0.722313C152.073 0.733151 152.106 0.742179 152.136 0.753017C152.129 0.745792 152.123 0.738569 152.119 0.73315C152.129 0.73315 152.136 0.73315 152.146 0.73315C152.146 0.740376 152.146 0.747602 152.146 0.756633C152.162 0.762052 152.179 0.767476 152.195 0.772895C152.205 0.7458 152.212 0.720512 152.222 0.693417C152.02 0.700642 152.07 0.693409 151.968 0.74218C151.977 0.729536 151.984 0.71509 151.994 0.702446C151.968 0.702446 151.941 0.704254 151.918 0.704254C151.911 0.716899 151.902 0.729534 151.895 0.740372C151.879 0.702439 151.855 0.729543 151.915 0.704254C151.842 0.706061 151.766 0.709669 151.694 0.711476C151.687 0.720507 151.681 0.729543 151.674 0.738575C151.681 0.740381 151.687 0.740373 151.694 0.74218C151.681 0.753018 151.664 0.763863 151.651 0.772895C151.648 0.774701 151.648 0.77831 151.644 0.780116C151.648 0.780116 151.648 0.780118 151.651 0.781924C151.648 0.781924 151.641 0.781924 151.638 0.781924C151.641 0.778312 151.648 0.776507 151.651 0.772895C151.661 0.762057 151.667 0.749412 151.677 0.738575C151.618 0.729543 151.555 0.720507 151.496 0.711476C151.466 0.733151 151.436 0.753016 151.407 0.774692C151.242 0.769273 151.077 0.765668 150.912 0.760249C150.932 0.736767 150.958 0.709674 150.988 0.68258C151.08 0.73135 151.176 0.734955 151.446 0.731342C151.436 0.724117 151.43 0.718701 151.42 0.711476C151.42 0.707863 151.42 0.704253 151.42 0.702446C151.377 0.682577 151.338 0.662704 151.295 0.642835C151.182 0.65006 151.09 0.644645 151.024 0.646451C151.12 0.552523 151.219 0.456784 151.192 0.438721C150.889 0.234609 150.506 0.418858 150.157 0.377313L150.147 0.370081C149.833 0.0720401 149.368 0.156941 148.939 0.160554C147.402 0.175004 145.862 0.19487 144.324 0.212933L144.328 0.211125C144.308 0.211125 144.288 0.212933 144.268 0.212933C144.242 0.212933 144.216 0.212935 144.186 0.214741C144.186 0.211128 144.189 0.209321 144.199 0.202096C144.189 0.198483 144.183 0.194873 144.173 0.193066C144.173 0.200291 144.173 0.209324 144.173 0.216549C144.14 0.216549 144.107 0.216551 144.077 0.218357C144.067 0.207519 144.057 0.194875 144.047 0.184037C143.938 0.221969 144.064 0.200289 143.922 0.212933C143.925 0.214739 143.925 0.216551 143.929 0.218357C143.783 0.220163 143.638 0.221964 143.49 0.22377C141.913 0.198482 140.34 0.0431462 138.763 0.106367C138.743 0.106367 138.72 0.106367 138.7 0.106367C138.7 0.108173 138.7 0.109972 138.7 0.109972C138.7 0.109972 138.7 0.109972 138.697 0.109972C138.697 0.108166 138.697 0.106367 138.697 0.106367C137.912 0.0955291 137.268 0.0792697 137.057 0.0359184C136.932 0.0521751 136.803 0.0684354 136.678 0.0846922C136.694 0.072048 136.711 0.0575918 136.727 0.0449477C136.695 0.0575918 136.661 0.072048 136.625 0.0846922C136.599 0.0883048 136.576 0.0919152 136.549 0.0937215C136.576 0.100947 136.599 0.106363 136.625 0.113588C136.536 0.129845 136.427 0.137073 136.302 0.138879L136.252 0.128042L136.157 0.140687C135.467 0.135268 134.448 0.0178487 133.924 0.153322C133.867 0.0882947 132.759 0.0882999 132.459 0.113588C132.027 0.12262 131.595 0.129848 131.163 0.138879C129.856 -0.0218822 128.553 -0.0778768 127.263 0.162362C127.207 0.156943 127.148 0.151519 127.092 0.1461C127.108 0.158745 127.125 0.173201 127.141 0.185845C127.082 0.198489 127.023 0.205715 126.963 0.220165C126.64 0.175008 126.32 0.0919117 125.997 0.0901054C120.036 0.0557855 114.078 0.140678 108.128 0.277957C107.174 0.268926 106.191 0.263508 105.307 0.256283C105.324 0.277958 105.337 0.301439 105.353 0.323115C105.337 0.323115 105.324 0.323115 105.307 0.323115C105.307 0.301439 105.307 0.277958 105.307 0.256283C103.895 0.245445 102.731 0.229196 102.348 0.185845C102.121 0.202102 101.893 0.218351 101.665 0.234608C101.695 0.221964 101.725 0.207518 101.758 0.194874C101.698 0.207518 101.636 0.221964 101.576 0.234608C101.53 0.23822 101.484 0.241831 101.441 0.243637C101.487 0.250862 101.533 0.25629 101.576 0.263515C101.477 0.274353 101.359 0.279769 101.233 0.283382C100.867 0.2599 100.498 0.234607 100.131 0.211125C97.1428 0.178611 94.1542 0.146102 91.1655 0.113588C90.6279 0.0882999 88.6288 0.0882947 88.5266 0.153322C87.3291 -0.0182775 84.6935 0.218354 83.6577 0.113588C83.7038 0.106363 83.75 0.100947 83.7929 0.0937215C83.7467 0.0901089 83.7005 0.0864985 83.6577 0.0846922C83.5983 0.072048 83.5356 0.0575918 83.4762 0.0449477C83.5059 0.0575918 83.5356 0.072048 83.5686 0.0846922C83.341 0.0684354 83.1134 0.0521751 82.8858 0.0359184C82.5031 0.0792697 81.3387 0.0955291 79.9268 0.106367C79.9268 0.128043 79.9268 0.151524 79.9268 0.173199C79.9103 0.173199 79.8971 0.173199 79.8806 0.173199C79.8971 0.151524 79.9103 0.128043 79.9268 0.106367C77.4561 0.126236 74.22 0.131657 73.016 0.254486C72.1979 0.249067 71.3435 0.240025 70.4727 0.2328C70.4826 0.225574 70.4958 0.21835 70.5057 0.211125C70.2484 0.196674 70.4727 0.220161 70.278 0.182229C70.2517 0.198486 70.2286 0.214746 70.2022 0.231003C70.1527 0.231003 70.0999 0.231003 70.0504 0.231003C70.0504 0.218359 70.0504 0.20571 70.0504 0.193066C70.0339 0.196679 70.0208 0.200289 70.0043 0.202096C70.1032 0.241834 69.9581 0.209319 69.7766 0.211125C69.803 0.216544 69.8294 0.221969 69.8558 0.229195C69.7766 0.229195 69.6975 0.227387 69.6216 0.227387C69.6282 0.22558 69.6348 0.223769 69.6414 0.221962C69.6117 0.221962 69.582 0.221962 69.549 0.221962C69.549 0.223769 69.549 0.22558 69.549 0.227387C66.4977 0.212936 63.4233 0.249066 61.4935 0.536269H61.4903C61.4276 0.545301 61.3682 0.554327 61.3121 0.565165C61.3121 0.556134 61.3121 0.545301 61.3121 0.536269C61.2956 0.539882 61.2824 0.543492 61.2659 0.545298C61.2758 0.552524 61.289 0.559748 61.2989 0.566973C60.9691 0.621162 60.6722 0.684381 60.4248 0.756633C60.3555 0.763858 60.2994 0.772893 60.2664 0.781924C60.1378 0.758442 60.1939 0.81082 60.1741 0.821658C60.1147 0.805401 60.052 0.789152 59.9926 0.772895C59.7287 0.803602 59.9563 0.789149 59.6727 0.792762C59.643 0.799987 59.6133 0.805403 59.5803 0.812628C59.6133 0.82166 59.6496 0.830694 59.6826 0.837919C59.6925 0.839726 59.7056 0.839729 59.7155 0.841535C59.7122 0.843342 59.7089 0.843334 59.7056 0.845141C59.7551 0.857785 59.8013 0.870431 59.8508 0.881269C59.93 0.879463 60.0091 0.875854 60.0883 0.874048C60.0256 0.899336 59.9662 0.924623 59.9135 0.951718C59.8574 0.946299 59.7782 0.955324 59.699 0.967968C59.1086 0.980612 58.5544 1.01494 58.2113 1.07816C58.0299 1.11067 57.0898 1.10886 56.3212 1.11428C55.9286 1.10886 55.5361 1.10164 55.1435 1.09622C56.1661 1.05648 57.5351 0.977001 57.8913 0.980614C57.9078 0.980614 57.921 0.980614 57.9375 0.980614C57.954 0.971582 57.9672 0.960749 57.9837 0.951718C57.9078 0.944492 57.832 0.939076 57.7561 0.931851C56.618 0.982427 55.48 1.033 54.3452 1.08357C53.3589 1.06551 52.3726 1.04745 51.3863 1.02758C51.3797 0.971584 51.4687 0.960749 51.7029 0.951718C51.5215 0.944492 51.3401 0.939076 51.1554 0.931851C51.1719 0.95172 51.1851 0.971582 51.2015 0.991451C51.1851 0.995064 51.1719 0.998674 51.1554 1.00048C51.1389 1.00409 51.1257 1.00771 51.1092 1.00952C50.7661 0.948106 50.6968 0.977007 50.4164 1.00952C50.3307 1.00771 50.2416 1.0059 50.1558 1.0041C50.1558 0.996871 50.1558 0.987839 50.1558 0.980614C50.0767 0.987839 49.9942 0.993255 49.915 1.00048C49.6214 0.995061 49.3312 0.989649 49.0376 0.98423C47.9127 1.19196 46.7186 1.05286 45.5541 1.05648C45.4717 1.09802 45.3925 1.14137 45.31 1.18292C44.1654 1.24072 43.0669 1.4918 41.8925 1.41594C41.5627 1.45387 41.2328 1.49181 40.9029 1.52974C40.7578 1.52251 40.6258 1.49902 40.4972 1.46289C39.0128 1.50444 37.4987 1.32923 36.0703 1.68146C35.8889 1.76094 35.691 1.82055 35.4633 1.85126C34.4143 1.77539 33.4346 2.14207 32.3724 1.99576C32.2801 1.88196 32.1712 1.78984 32.0492 1.7194C31.4917 1.60921 30.8682 1.74107 30.3008 1.65979C30.3074 1.64534 30.3206 1.6327 30.3272 1.61825C30.2876 1.61644 30.2481 1.61283 30.2085 1.60741C30.2349 1.62366 30.258 1.63992 30.2909 1.65979C29.5586 1.69411 28.8296 1.73024 28.0973 1.76456C27.6421 1.84042 27.2 1.78081 26.7613 1.71759C26.4248 1.6905 26.0884 1.66159 25.7486 1.6345C25.4286 1.6634 25.2472 1.40148 24.8876 1.50986C24.8052 1.47373 24.7227 1.43942 24.6369 1.4051C24.6996 1.17209 24.5908 0.875855 25.2967 0.886693C25.3759 0.85418 25.455 0.821661 25.5342 0.790954C21.3712 0.821661 17.2115 0.899329 13.0485 1.04745C13.0419 1.04745 13.0353 1.04745 13.032 1.04745C13.1013 1.10705 13.1607 1.17208 13.2201 1.24253C13.3025 1.10886 13.385 0.984224 13.7446 1.11428C14.1074 1.24795 14.335 1.38523 13.9656 1.60922C13.7907 1.59838 13.6192 1.58753 13.4444 1.5785C13.5532 1.78984 13.6357 2.0355 13.6951 2.31367C14.0085 2.33173 14.4538 1.94518 14.4373 2.0951C14.335 2.95671 15.5688 2.7526 16.1031 3.16986C15.5127 3.52931 14.9585 3.44984 14.4109 3.39023C14.3944 3.88335 13.9887 4.00438 13.3916 3.94477C11.894 3.58351 10.4821 4.40898 8.98781 4.10733C8.68762 4.0983 8.38744 4.08927 8.08396 4.08566C8.15983 4.1254 8.2258 4.18139 8.27858 4.26267C7.49679 4.51194 6.73148 4.7558 5.96618 4.99965C5.93979 4.74315 5.9134 4.48846 5.88701 4.23197C5.57033 4.23377 5.25695 4.20306 5.01615 4.04953C4.3696 3.64311 4.1057 3.61241 3.56801 3.91767C3.41957 3.9267 3.27113 3.92489 3.12598 3.91586C3.11609 3.9538 3.10949 3.99354 3.10949 4.03328C3.25133 4.0676 3.39648 4.14707 3.54822 4.29158C3.52513 4.39815 3.49214 4.48846 3.45585 4.57155C3.94406 4.99242 3.97046 5.33201 3.64718 5.58851C3.90118 5.59031 4.15518 5.59212 4.40588 5.58309C4.95677 5.60657 5.42849 5.44761 5.88041 5.24711C6.45439 5.07912 7.00857 5.08093 7.52977 5.34826C7.73429 5.45484 7.92232 5.66798 8.17303 5.62102C9.80589 5.31033 11.4157 5.41511 13.0188 5.71857L13.164 5.72217C13.827 5.85764 14.6088 5.83055 14.9717 6.37424C16.245 5.99311 17.4556 6.37245 18.6827 6.56392C18.9302 6.49708 19.3128 6.68674 19.425 6.42302C19.4711 6.31825 19.2435 6.15388 19.1413 6.0166C20.3255 5.92809 19.6196 6.77164 20.4839 7.03536C19.3392 7.08413 18.5673 7.17986 17.8746 6.83125C16.8586 6.72467 15.8294 7.07871 14.8199 6.77525C14.9288 7.40204 14.3416 7.52487 13.6753 7.5899C13.5005 7.62602 13.3223 7.65311 13.1475 7.67479C13.3157 7.73259 13.4873 7.80485 13.672 7.89336C13.7182 8.363 12.4383 8.39912 12.9562 9.0223C13.0551 9.08191 13.0881 9.1397 13.0551 9.19931C13.2333 9.2535 13.3553 9.35104 13.3751 9.52445C13.131 9.84777 12.6989 10.0898 12.5933 10.4728C13.7446 10.657 14.18 11.3434 14.0184 12.0009C13.8435 12.7036 12.8011 12.6873 11.9303 12.6765C11.7323 12.6746 11.5344 12.8517 11.3332 12.9474C9.94773 13.4387 8.71401 12.821 7.42091 12.6674C7.30876 12.559 7.27907 12.4615 7.28897 12.3676C7.06135 12.2664 6.83375 12.1671 6.60613 12.0659C6.25317 12.196 5.6627 11.9034 5.51096 12.3856C5.97278 12.6205 6.57644 12.7505 6.6985 13.231C6.20699 13.4116 5.99587 14.107 5.21737 13.7241C4.79843 13.5182 4.32672 13.2418 4.60051 12.8282C3.90118 12.7848 3.20185 12.8499 2.49922 12.8408C2.37057 12.8228 2.24522 12.8101 2.11657 12.8011C1.99122 13.0901 1.38426 13.2039 0.975214 13.3899C0.93563 13.2599 0.826771 13.1551 0.582666 13.0793C0.635445 13.1985 0.671731 13.2798 0.70142 13.3538C0.770693 13.3809 0.833367 13.4044 0.896043 13.4279C0.833367 13.4604 0.780591 13.4947 0.734409 13.5308C0.81028 13.623 0.863057 13.7115 0.83007 13.7909C0.90594 14.0312 0.863059 14.3003 0.780591 14.4719C1.86257 14.2624 1.88896 14.5731 1.66135 15.6785C1.02799 15.7941 1.12696 15.1023 0.480406 15.1403C0.348457 15.1475 0.200014 15.1547 0.0515714 15.1493C0.0350778 15.4112 0.252793 15.6948 0.190117 15.9459C-0.17934 16.6269 -0.0869747 16.6991 1.15994 16.7063C1.80649 16.8761 2.39037 17.12 2.96105 17.3747C3.28102 17.1669 3.70326 17.0369 4.04962 16.849C4.00344 17.176 3.99355 17.53 3.81212 17.7522C4.3663 17.9924 4.94028 18.2164 5.58023 18.3681C5.69569 18.3952 5.81444 18.4205 5.92989 18.4476C6.37192 17.7684 6.4346 17.7666 7.66502 17.7576C7.31865 18.1821 6.92611 18.4621 6.32244 18.5379C7.00528 18.6897 7.69141 18.8269 8.38084 18.9516C8.45012 18.9064 8.51939 18.8594 8.58866 18.8071C8.81957 18.6409 8.97131 18.3681 9.41664 18.491C9.70363 18.7619 9.93454 19.1286 10.5514 18.8378C11.3596 18.8125 12.1909 18.8631 12.9694 18.742C13.8402 18.6066 13.9161 18.9769 14.0447 19.3869C13.827 19.4826 13.5928 19.5585 13.3619 19.6362C16.1394 19.9071 18.9499 20.0101 21.7703 19.9992C28.856 19.9685 35.9318 19.6524 43.0141 19.5495C50.4329 19.4411 57.8551 19.4393 65.2739 19.3923C66.7121 19.423 68.1537 19.4519 69.5919 19.4826C74.5169 19.5892 79.432 19.4935 84.3438 19.3183C84.4625 19.3291 84.578 19.3417 84.6967 19.3526C86.3164 19.7662 87.9097 19.7951 89.4667 19.2514C89.6382 19.2496 89.8131 19.2478 89.9846 19.2442C90.8555 19.5531 91.5416 19.0744 92.33 19.022C92.5774 19.0997 92.8248 19.1774 93.0722 19.255C93.5241 19.5061 93.7583 19.4302 94.0981 19.1051C94.7677 18.4621 95.6155 18.0737 96.5524 17.8588C96.6249 17.8606 96.6975 17.8642 96.7668 17.866C96.902 17.8407 97.034 17.8154 97.1692 17.7883C97.2088 17.81 97.2484 17.8335 97.2913 17.8551C97.4265 17.8425 97.5585 17.8299 97.6937 17.8172C97.6409 17.81 97.5848 17.8046 97.5321 17.7973C97.5848 17.7901 97.6409 17.7847 97.6937 17.7775C97.6805 17.7702 97.6673 17.7648 97.6541 17.7576C97.8553 17.7775 98.0566 17.7955 98.2578 17.8154C98.3699 17.7883 99.0231 17.7757 99.7917 17.7666C99.795 17.7666 99.7983 17.7666 99.8016 17.7666C100.108 17.763 100.435 17.7594 100.752 17.7558C100.758 17.7558 100.768 17.7576 100.775 17.7576C100.442 17.8046 100.079 17.8551 99.8379 17.9057C99.8544 17.9147 99.8676 17.9256 99.8841 17.9346C99.8676 17.931 99.8544 17.9274 99.8379 17.9256C99.7719 17.9491 99.8907 17.9418 99.9302 17.9454C100.141 17.9184 100.356 17.8931 100.567 17.866C100.567 17.8786 100.567 17.8931 100.567 17.9057C100.725 17.8822 100.992 17.8371 101.276 17.7883C102.53 17.8533 103.79 17.8389 104.908 17.7721C107.346 17.6275 109.817 17.8172 112.244 17.521C112.924 17.4379 113.613 17.5083 114.148 17.1489C115.028 17.0983 115.969 17.3187 116.767 16.9122C117.314 16.8978 117.865 16.8815 118.413 16.8671C118.756 16.9375 119.099 17.0098 119.442 17.0802C120.603 17.0658 121.768 17.0513 122.929 17.0369C123.021 17.1109 123.176 17.1778 123.325 17.1814C123.378 17.1868 123.338 17.1868 123.374 17.1724C123.48 17.2284 123.45 17.2464 123.602 17.2518C123.635 17.2591 123.668 17.2645 123.704 17.2717C123.731 17.2428 123.754 17.2121 123.78 17.1832C123.731 17.1868 123.678 17.1904 123.628 17.1922C123.612 17.1922 123.595 17.1922 123.579 17.1922C123.579 17.2085 123.579 17.2247 123.579 17.241C123.569 17.241 123.562 17.241 123.552 17.241C123.509 17.2103 123.566 17.2157 123.477 17.2211C123.424 17.1814 123.519 17.2067 123.427 17.1814C123.47 17.1814 123.513 17.1814 123.552 17.1814C123.486 17.1543 123.417 17.129 123.351 17.1019C123.387 17.0911 123.394 17.1055 123.401 17.0658C123.397 17.0658 123.397 17.064 123.394 17.064C123.381 17.0676 123.364 17.0694 123.351 17.073C123.298 17.0676 123.338 17.0676 123.302 17.082C123.279 17.0568 123.275 17.0423 123.272 17.0315C123.305 17.0315 123.341 17.0315 123.374 17.0297V17.0315C123.364 17.0387 123.358 17.0441 123.348 17.0513C123.361 17.0549 123.378 17.0586 123.391 17.0622C123.394 17.0622 123.394 17.0604 123.397 17.0604C123.397 17.0622 123.397 17.0622 123.397 17.064C123.407 17.0658 123.414 17.0676 123.424 17.0712C123.44 17.0586 123.457 17.0441 123.473 17.0315C123.47 17.0297 123.467 17.0297 123.463 17.0279C123.483 17.0279 123.503 17.0279 123.519 17.0279C123.519 17.0333 123.523 17.0369 123.523 17.0423C123.549 17.0387 123.566 17.0333 123.589 17.0279C123.839 17.0242 124.087 17.0206 124.337 17.0188C124.466 17.0568 124.598 17.0929 124.727 17.1308C124.882 17.1236 124.997 17.1182 125.152 17.1091L125.288 17.0495C125.697 17.0911 126.106 17.1326 126.511 17.1742C126.287 17.2103 126.155 17.185 125.809 17.1832C125.815 17.2031 125.825 17.2211 125.832 17.241C125.815 17.241 125.802 17.241 125.786 17.241C125.786 17.2247 125.786 17.2085 125.786 17.1922C125.779 17.1922 125.769 17.1922 125.763 17.1922C125.733 17.1994 125.703 17.2049 125.673 17.2121C125.69 17.2247 125.703 17.2374 125.72 17.25C125.697 17.2338 125.673 17.2175 125.654 17.2013C125.601 17.2049 125.548 17.2085 125.499 17.2103C125.522 17.232 125.545 17.2554 125.565 17.2771C125.522 17.2699 125.446 17.2681 125.353 17.2681C125.347 17.2681 125.344 17.2663 125.34 17.2663C125.344 17.2663 125.347 17.2681 125.347 17.2681C125.076 17.2699 124.657 17.297 124.427 17.3259C124.486 17.3349 124.545 17.3458 124.605 17.3548C124.608 17.3584 124.618 17.3584 124.621 17.3638H124.624L124.621 17.3656C124.624 17.3711 124.628 17.3765 124.624 17.3927C124.677 17.3837 124.73 17.3729 124.78 17.3638C124.796 17.3548 124.809 17.344 124.826 17.3349C124.862 17.3566 124.902 17.3801 124.938 17.4018C124.944 17.3729 124.954 17.344 124.961 17.3151C124.977 17.3313 124.991 17.3476 125.007 17.3638C125.043 17.3512 125.083 17.3385 125.119 17.3259C125.142 17.3512 125.165 17.3765 125.185 17.4036C125.202 17.3837 125.215 17.3656 125.231 17.3458C125.231 17.3747 125.231 17.4036 125.231 17.4325C125.255 17.4072 125.278 17.3819 125.297 17.3548C125.321 17.3584 125.344 17.362 125.363 17.3638C125.386 17.3765 125.41 17.3891 125.429 17.4018C125.39 17.4162 125.09 17.4451 125.037 17.483C125.057 17.4812 125.076 17.4794 125.096 17.4776C125.096 17.5029 125.096 17.5282 125.096 17.5553C125.126 17.5589 125.156 17.5625 125.185 17.5643C125.179 17.5517 125.169 17.539 125.162 17.5264C125.353 17.5535 125.502 17.4993 125.677 17.5463C125.693 17.5174 125.706 17.4885 125.723 17.4596C125.852 17.5282 125.776 17.5481 125.746 17.5553C125.776 17.5643 125.805 17.5752 125.835 17.5842C125.835 17.5842 126.076 17.5968 126.125 17.5463C126.132 17.5517 126.139 17.5571 126.145 17.5625C126.139 17.5625 126.132 17.5607 126.125 17.5607C126.125 17.5607 126.135 17.5643 126.152 17.5697C126.165 17.5806 126.178 17.5932 126.191 17.6041C126.198 17.5968 126.201 17.5914 126.205 17.586C126.271 17.6077 126.369 17.6384 126.482 17.6745C126.369 17.6835 126.257 17.6908 126.145 17.6998C126.122 17.6998 126.099 17.6998 126.079 17.6998C126.106 17.7233 126.366 17.7359 126.706 17.745C126.91 17.81 127.122 17.8732 127.234 17.9039C127.234 17.8913 127.234 17.8768 127.234 17.8642C127.353 17.8913 127.468 17.9166 127.587 17.9437C127.607 17.94 127.676 17.9473 127.636 17.9238C127.626 17.9274 127.62 17.931 127.61 17.9328C127.62 17.9238 127.626 17.9129 127.636 17.9039C127.501 17.8533 127.293 17.8028 127.108 17.754C127.29 17.7576 127.478 17.7612 127.656 17.7648C127.659 17.7648 127.659 17.7648 127.663 17.7648C128.088 17.7739 128.451 17.7883 128.514 17.8136C128.626 17.7937 128.738 17.7757 128.847 17.7558C128.84 17.763 128.83 17.7684 128.824 17.7757C128.853 17.7829 128.883 17.7883 128.913 17.7955C128.883 17.8028 128.853 17.8082 128.824 17.8154C128.9 17.828 128.972 17.8407 129.048 17.8533C129.071 17.8317 129.094 17.8082 129.114 17.7865C129.19 17.8118 129.262 17.8371 129.338 17.8642C129.444 17.857 129.546 17.8515 129.652 17.8443C129.639 17.8317 129.622 17.819 129.606 17.8064C129.642 17.81 129.681 17.8136 129.718 17.8154C129.701 17.8407 129.688 17.866 129.672 17.8931C129.962 17.8606 130.285 17.9346 130.519 17.8443C130.585 17.8876 130.503 17.884 130.608 17.9021C130.641 17.9202 131.852 17.9924 131.971 17.9021C132.017 17.922 132.06 17.94 132.106 17.9599C132.06 17.9671 132.017 17.9725 131.971 17.9798C132.037 17.9888 132.106 17.9996 132.172 18.0087C132.508 17.9147 133.066 17.9238 133.356 17.9599C133.363 17.9852 133.373 18.0105 133.379 18.0376C133.386 18.0412 133.396 18.0448 133.402 18.0466C133.851 18.0611 134.527 17.8768 134.92 18.0755C135.095 18.0719 134.996 18.0809 135.055 18.0267C135.161 18.0556 135.735 18.0538 135.949 18.0069C135.942 17.9906 135.936 17.9744 135.926 17.9581C135.932 17.9545 135.942 17.9509 135.949 17.9491C135.972 17.9563 135.995 17.9617 136.015 17.9689C136.051 17.9563 136.091 17.9437 136.127 17.931C136.134 17.94 136.144 17.9509 136.15 17.9599C136.167 17.9725 136.18 17.9852 136.196 17.9978C136.213 17.9906 136.226 17.9852 136.243 17.978C136.266 17.9689 136.289 17.9581 136.309 17.9491C136.335 18.0231 136.467 17.9725 136.576 18.0267C136.599 18.0105 136.622 17.9942 136.642 17.978C136.642 17.9906 136.642 18.0033 136.642 18.0159C136.678 18.0033 136.718 17.9906 136.754 17.978C136.774 18.0123 136.747 18.0177 136.665 18.0358C136.665 18.0394 136.665 18.043 136.665 18.0448C136.741 18.0412 136.813 18.0376 136.889 18.0358C136.859 18.0285 136.83 18.0231 136.8 18.0159C136.8 17.9996 136.8 17.9834 136.8 17.9671C136.902 17.9924 136.906 17.987 136.978 17.9292C137.008 17.9382 137.038 17.9491 137.067 17.9581C137.061 17.9707 137.051 17.9834 137.044 17.996C137.097 17.9924 137.15 17.9888 137.199 17.987C137.163 17.9798 137.123 17.9744 137.087 17.9671C137.183 17.9328 137.127 17.9707 137.133 17.9093C137.186 17.9455 137.239 17.9798 137.288 18.0159C137.295 18.0159 137.305 18.0159 137.311 18.0159C137.334 18.0033 137.358 17.9906 137.377 17.978C137.305 17.9238 137.334 17.9111 137.377 17.8624C137.275 17.875 137.325 17.8804 137.242 17.8425C137.259 17.8497 137.272 17.8551 137.288 17.8624C137.232 17.8299 137.295 17.8515 137.199 17.8335C137.193 17.8497 137.183 17.866 137.176 17.8822C137.12 17.8624 136.876 17.8262 136.82 17.8335C136.803 17.8136 136.79 17.7955 136.774 17.7757C136.78 17.7757 136.79 17.7757 136.797 17.7757C136.853 17.8208 136.85 17.7594 136.932 17.8046C136.968 17.7721 137.008 17.7395 137.044 17.7088C137.038 17.7305 137.028 17.754 137.021 17.7757C137.239 17.7594 137.377 17.7522 137.513 17.7558C137.513 17.7468 137.513 17.7359 137.513 17.7269C137.43 17.7359 137.348 17.7468 137.268 17.7558C137.341 17.7305 137.272 17.7305 137.424 17.7359C137.407 17.6908 137.407 17.6908 137.447 17.6583C137.44 17.6781 137.43 17.6962 137.424 17.7161C137.466 17.7106 137.506 17.7034 137.549 17.698C137.549 17.6962 137.549 17.6944 137.549 17.6926C137.519 17.6781 137.555 17.689 137.493 17.6871C137.509 17.6745 137.522 17.6619 137.539 17.6492C137.542 17.6637 137.546 17.6781 137.549 17.6926C137.552 17.6944 137.555 17.6962 137.559 17.698C137.555 17.698 137.552 17.6998 137.549 17.6998C137.552 17.7124 137.555 17.7251 137.559 17.7377C137.638 17.7197 137.618 17.7215 137.648 17.7179C137.717 17.7034 137.78 17.7793 137.783 17.7847C137.849 17.7757 137.918 17.7648 137.984 17.7558C138.001 17.7522 138.014 17.7486 138.03 17.7468C138.024 17.7377 138.014 17.7269 138.007 17.7179C137.961 17.7413 137.961 17.7179 137.984 17.7468C137.961 17.7504 137.938 17.754 137.918 17.7558C137.928 17.7052 137.902 17.7143 137.965 17.707C137.918 17.698 137.875 17.6872 137.829 17.6781C137.813 17.6781 137.8 17.6781 137.783 17.6781C138.007 17.6294 138.06 17.6799 138.209 17.6203C138.215 17.6366 138.225 17.6528 138.232 17.6691C138.367 17.6402 138.423 17.6546 138.522 17.6601C138.538 17.6601 138.552 17.6601 138.568 17.6601C138.585 17.6528 138.598 17.6474 138.614 17.6402C138.634 17.6745 138.651 17.6438 138.68 17.6203C138.812 17.6853 139.251 17.6962 139.416 17.6203C139.423 17.6366 139.432 17.6528 139.439 17.6691C139.469 17.6601 139.498 17.6492 139.528 17.6402C139.528 17.6474 139.528 17.6528 139.528 17.6601C139.7 17.6474 139.871 17.6348 140.043 17.6221C140.155 17.6239 140.062 17.6131 140.132 17.651C140.194 17.6294 140.181 17.6564 140.178 17.6221C140.283 17.6294 140.386 17.6348 140.491 17.642C140.485 17.6348 140.475 17.6294 140.468 17.6221C140.445 17.6221 140.422 17.6221 140.402 17.6221C140.402 17.6185 140.402 17.6149 140.402 17.6131C140.528 17.6294 140.498 17.6239 140.514 17.642C140.597 17.6492 140.679 17.6546 140.759 17.6619C140.775 17.6402 140.788 17.6167 140.805 17.595C140.818 17.6077 140.834 17.6203 140.851 17.633C140.867 17.6275 140.887 17.6221 140.904 17.6149C140.9 17.6149 140.897 17.6131 140.894 17.6131C140.91 17.6095 140.923 17.6059 140.94 17.6041C140.927 17.6077 140.917 17.6113 140.904 17.6149C141.052 17.651 141.217 17.6185 141.296 17.5752C141.319 17.595 141.342 17.6131 141.362 17.633C141.385 17.6257 141.408 17.6203 141.428 17.6131C141.412 17.5914 141.398 17.5679 141.382 17.5463C141.102 17.5607 140.818 17.4794 140.511 17.5463C140.511 17.53 140.511 17.5137 140.511 17.4975C140.475 17.5101 140.435 17.5228 140.399 17.5354C140.399 17.5192 140.399 17.5029 140.399 17.4867C140.224 17.539 140.247 17.4686 140.109 17.5156C140.115 17.5029 140.125 17.4903 140.132 17.4776C139.779 17.5192 138.98 17.474 138.324 17.4198C138.324 17.4126 138.324 17.4072 138.324 17.4C138.235 17.3873 138.159 17.3963 138.123 17.371C138.1 17.3638 138.077 17.3584 138.057 17.3512C138.063 17.3421 138.07 17.3313 138.08 17.3223C138.166 17.3331 138.275 17.3241 138.347 17.2843C138.364 17.297 138.377 17.3096 138.393 17.3223C138.387 17.2844 138.456 17.2825 138.37 17.2356C138.479 17.2049 138.43 17.2573 138.482 17.2067C138.505 17.2193 138.529 17.232 138.548 17.2446C138.571 17.2446 138.595 17.2446 138.614 17.2446C138.571 17.2085 138.588 17.2211 138.68 17.2157C138.664 17.2193 138.651 17.2229 138.634 17.2247C138.766 17.2392 139.086 17.2428 139.192 17.1868C139.607 17.2825 140.956 17.1507 140.976 17.2356C141.102 17.2247 141.072 17.2464 141.111 17.1976C141.141 17.2139 141.171 17.2302 141.201 17.2464C141.177 17.2175 141.154 17.1886 141.135 17.1597C141.141 17.1597 141.151 17.1597 141.158 17.1597C141.174 17.1814 141.187 17.2049 141.204 17.2265C141.28 17.2265 141.352 17.2265 141.428 17.2265C141.435 17.2338 141.445 17.2392 141.451 17.2464C141.455 17.1958 141.445 17.2229 141.405 17.1976C141.422 17.1886 141.435 17.1778 141.451 17.1687C141.494 17.1868 141.537 17.2049 141.577 17.2229C141.586 17.2139 141.596 17.2067 141.606 17.1976C141.629 17.2211 141.695 17.241 141.85 17.2464C141.85 17.2338 141.85 17.2211 141.85 17.2085C141.873 17.2247 141.897 17.241 141.916 17.2572C141.969 17.2356 142.022 17.2121 142.071 17.1904C142.055 17.2121 142.042 17.2356 142.025 17.2572C142.091 17.2446 142.16 17.232 142.226 17.2193C142.226 17.2067 142.226 17.194 142.226 17.1814C142.263 17.1742 142.302 17.1687 142.339 17.1615C142.316 17.1778 142.292 17.194 142.273 17.2103C142.309 17.2103 142.348 17.2103 142.385 17.2103C142.385 17.2193 142.385 17.2302 142.385 17.2392C142.391 17.1886 142.401 17.1362 142.408 17.0857C142.424 17.1146 142.438 17.1435 142.454 17.1724C142.461 17.1724 142.471 17.1724 142.477 17.1724C142.53 17.1651 142.583 17.1597 142.632 17.1525C142.596 17.1398 142.579 17.1308 142.566 17.1236C142.566 17.1236 142.566 17.1236 142.563 17.1236C142.543 17.1109 142.55 17.1019 142.517 17.0766C142.533 17.0694 142.546 17.064 142.563 17.0568C142.609 17.0568 142.593 17.0748 142.609 17.0568C142.682 17.1182 142.659 17.0784 142.566 17.1236C142.566 17.1236 142.566 17.1236 142.566 17.1254C142.602 17.138 142.639 17.1507 142.675 17.1633C142.791 17.1254 142.761 17.1308 142.876 17.1724C142.876 17.1507 142.876 17.1272 142.876 17.1055C142.899 17.1218 142.922 17.138 142.942 17.1543C142.959 17.1362 142.946 17.1453 142.988 17.1543C143.018 17.1344 143.048 17.1164 143.078 17.0965C143.094 17.1218 143.107 17.1471 143.124 17.1742C143.13 17.1778 143.14 17.1814 143.147 17.1832C143.153 17.1633 143.163 17.1453 143.17 17.1254C143.176 17.138 143.186 17.1507 143.193 17.1633C143.252 17.1507 143.312 17.138 143.371 17.1254C143.365 17.1344 143.355 17.1453 143.348 17.1543C143.374 17.1435 143.397 17.1326 143.424 17.1218C143.434 17.1272 143.44 17.1344 143.454 17.1398C143.454 17.1326 143.454 17.1254 143.454 17.1182C143.51 17.129 143.473 17.1308 143.46 17.1543C143.49 17.1615 143.52 17.1669 143.549 17.1742C143.556 17.1778 143.566 17.1814 143.572 17.1832C143.652 17.1543 143.605 17.1814 143.661 17.1254C143.678 17.1832 143.694 17.1254 143.684 17.1832C143.737 17.1615 143.79 17.138 143.84 17.1164C143.846 17.12 143.853 17.1236 143.863 17.1254C143.846 17.1344 143.833 17.1453 143.816 17.1543C143.853 17.1579 143.892 17.1615 143.929 17.1633C143.929 17.1724 143.929 17.1832 143.929 17.1922C143.942 17.1525 143.981 17.1633 143.882 17.1543C143.945 17.138 143.938 17.1272 144.018 17.1832C144.047 17.1796 144.077 17.176 144.107 17.1742C144.084 17.1669 144.061 17.1615 144.041 17.1543C144.196 17.1164 144.354 17.0766 144.509 17.0387C144.532 17.0513 144.555 17.064 144.575 17.0766C144.602 17.0315 144.783 17.0333 144.842 17.0477C144.849 17.0351 144.859 17.0224 144.865 17.0098C144.77 17.0188 144.658 16.9827 144.575 16.943C144.46 16.9773 143.995 16.9899 143.579 16.9809C143.546 16.9737 143.582 16.9827 143.579 16.9448C143.493 16.952 143.411 16.9574 143.325 16.9646C143.315 16.9448 143.305 16.9339 143.289 16.9249C143.394 16.9267 143.5 16.9303 143.602 16.9321C143.602 16.9339 143.602 16.9339 143.602 16.9357C143.609 16.9339 143.612 16.9339 143.618 16.9321C143.942 16.9375 144.265 16.9375 144.588 16.9357C144.605 16.9448 144.621 16.9538 144.638 16.9628C144.631 16.9502 144.628 16.9412 144.625 16.9357C144.747 16.9357 144.865 16.9339 144.987 16.9321C144.987 16.9466 144.987 16.9592 144.987 16.9737C145.03 16.9773 145.073 16.9809 145.113 16.9827C145.129 16.9863 145.146 16.9899 145.162 16.9917C145.172 16.9791 145.179 16.9646 145.189 16.952C145.08 16.9682 145.083 16.9574 145.007 16.9303C145.057 16.9303 145.106 16.9285 145.156 16.9285C145.156 16.9303 145.152 16.9303 145.152 16.9321C145.169 16.9411 145.172 16.9357 145.176 16.9285C145.228 16.9285 145.281 16.9267 145.331 16.9249C145.331 16.9303 145.331 16.9357 145.331 16.9411C145.354 16.9411 145.377 16.9411 145.397 16.9411C145.377 16.9357 145.357 16.9303 145.337 16.9249C145.495 16.9213 145.654 16.9195 145.812 16.9159C145.875 16.9285 145.938 16.9393 146 16.952C146.007 16.952 146.017 16.952 146.023 16.952C146.023 16.9195 146.033 16.9195 146.013 16.9104C146.122 16.9068 146.231 16.905 146.34 16.9014C146.663 16.9357 146.986 16.9682 147.313 17.0026C147.283 16.9484 147.254 16.9719 147.211 16.9628C147.217 16.9484 147.224 16.9339 147.231 16.9195C147.356 16.9177 147.554 16.9448 147.633 17.0297C147.669 17.0098 147.709 16.9917 147.745 16.9719C147.781 17.008 147.745 17.0062 147.791 17.0495C147.755 17.0423 147.716 17.0369 147.679 17.0297C147.673 17.0712 147.663 17.1128 147.656 17.1543C147.673 17.1254 147.686 17.0965 147.702 17.0676C147.725 17.0766 147.749 17.0875 147.768 17.0965C147.781 17.0893 147.798 17.0838 147.814 17.0766C147.791 17.0929 147.768 17.1091 147.749 17.1254C147.785 17.1326 147.824 17.138 147.861 17.1453C147.861 17.12 147.861 17.0947 147.861 17.0676C148.036 17.0405 148.009 17.1398 148.24 17.0766C148.224 17.1182 148.21 17.1597 148.194 17.2013C148.171 17.185 148.148 17.1687 148.128 17.1525C148.121 17.1597 148.111 17.1651 148.105 17.1724C148.134 17.2085 148.164 17.2428 148.194 17.2789C148.2 17.2699 148.21 17.2591 148.217 17.25C148.27 17.2807 148.329 17.2699 148.306 17.2988C148.405 17.2934 148.349 17.2988 148.418 17.2609C148.454 17.2825 148.494 17.306 148.53 17.3277C148.583 17.2916 148.636 17.2573 148.685 17.2211C148.669 17.2374 148.656 17.2536 148.639 17.2699C148.669 17.2825 148.699 17.2952 148.728 17.3078C148.778 17.2753 148.738 17.2807 148.705 17.2699C148.722 17.2572 148.735 17.2446 148.751 17.232C148.811 17.2428 148.87 17.2555 148.929 17.2663C148.936 17.2645 148.946 17.2627 148.953 17.2609C148.953 17.2645 148.956 17.2681 148.956 17.2717C148.969 17.2735 148.982 17.2771 148.995 17.2789C149.002 17.2573 148.999 17.2681 149.019 17.2591C149.035 17.2518 149.048 17.2464 149.065 17.2392C149.042 17.2609 149.019 17.2843 148.999 17.306C149.051 17.3223 149.104 17.3385 149.154 17.3548C149.154 17.3331 149.154 17.3096 149.154 17.288C149.147 17.288 149.147 17.2825 149.088 17.297C149.134 17.2771 149.177 17.2591 149.223 17.2392C149.17 17.2356 149.117 17.232 149.068 17.2302C149.068 17.1976 149.068 17.1651 149.068 17.1344C149.134 17.1669 149.094 17.138 149.114 17.1832C149.21 17.1416 149.15 17.1146 149.114 17.0387C149.098 17.0459 149.084 17.0513 149.068 17.0586C149.068 17.0712 149.068 17.0839 149.068 17.0965C149.055 17.073 149.038 17.0513 149.025 17.0279C149.025 17.0279 149.025 17.0279 149.025 17.026C149.019 17.0134 149.009 17.0008 149.002 16.9881C149.038 16.9953 149.078 17.0008 149.114 17.008C149.108 16.9953 149.098 16.9827 149.091 16.9701C149.108 16.9664 149.124 16.961 149.141 16.9574C149.236 16.9971 149.332 17.0351 149.428 17.0748C149.428 17.0748 149.428 17.0766 149.424 17.0766C149.428 17.0766 149.431 17.0784 149.434 17.0784C149.437 17.0784 149.437 17.0802 149.441 17.0802C149.441 17.0838 149.441 17.0875 149.441 17.0893C149.411 17.0911 149.385 17.0929 149.355 17.0929C149.362 17.0875 149.371 17.0802 149.378 17.0748C149.371 17.0748 149.362 17.0748 149.355 17.0748C149.348 17.0802 149.345 17.0875 149.338 17.0929C149.319 17.0947 149.299 17.0947 149.279 17.0965C149.269 17.0676 149.256 17.0369 149.246 17.008C149.24 17.0152 149.23 17.0206 149.223 17.0279C149.207 17.0206 149.193 17.0152 149.177 17.008C149.16 17.0279 149.147 17.0459 149.131 17.0658C149.154 17.0567 149.177 17.0459 149.197 17.0369C149.19 17.0568 149.18 17.0748 149.174 17.0947C149.187 17.1037 149.203 17.1127 149.216 17.1236C149.213 17.129 149.21 17.1344 149.207 17.138C149.22 17.1453 149.233 17.1525 149.246 17.1597C149.23 17.1705 149.21 17.1814 149.193 17.1904C149.21 17.1904 149.223 17.1904 149.24 17.1904C149.246 17.1832 149.256 17.1742 149.263 17.1669C149.289 17.1814 149.319 17.1958 149.345 17.2103C149.332 17.2103 149.319 17.2103 149.305 17.2103C149.362 17.2284 149.368 17.2211 149.329 17.2392C149.352 17.2482 149.375 17.2591 149.395 17.2681C149.398 17.2591 149.401 17.25 149.404 17.2428C149.414 17.2482 149.421 17.2518 149.431 17.2572C149.444 17.2572 149.454 17.2572 149.467 17.2572C149.503 17.2934 149.536 17.3295 149.573 17.3656C149.553 17.3295 149.536 17.2934 149.517 17.2572C149.556 17.2572 149.592 17.2572 149.632 17.2572C149.629 17.2609 149.622 17.2645 149.619 17.2681C149.642 17.2807 149.665 17.2934 149.685 17.306C149.672 17.2898 149.658 17.2717 149.645 17.2555C149.665 17.2555 149.688 17.2555 149.708 17.2555C149.734 17.2356 149.757 17.2157 149.784 17.1958C150.087 17.2518 150.391 17.3078 150.691 17.3638C150.81 17.3078 150.668 17.2916 150.615 17.2555C150.625 17.2518 150.632 17.2482 150.641 17.2464C150.717 17.2554 150.793 17.2663 150.869 17.2753C150.886 17.2789 150.902 17.2825 150.919 17.2843C150.876 17.2446 150.833 17.2049 150.793 17.1669C151.054 17.1091 150.886 17.1001 150.843 16.9989C150.859 16.9989 150.876 16.9989 150.892 16.9989C150.935 17.026 150.975 17.0513 151.018 17.0784C151.232 17.0477 151.295 17.0116 151.496 17.0297C151.45 16.9195 151.245 16.9068 151.117 16.8237C151.1 16.8165 151.084 16.8111 151.067 16.8039C151.169 16.7858 151.117 16.8147 151.166 16.7659C151.182 16.7623 151.199 16.7587 151.215 16.7551C151.308 16.784 151.403 16.8129 151.496 16.8418C151.407 16.7804 151.338 16.7533 151.169 16.7334C151.173 16.728 151.176 16.7226 151.182 16.7172C151.295 16.7136 151.403 16.7117 151.516 16.7099C151.981 16.7659 152.931 16.8526 153.191 16.8725C153.191 16.8563 153.191 16.84 153.191 16.8237C153.271 16.8761 153.868 16.9466 154.056 16.9122C154.085 16.9249 154.115 16.9393 154.148 16.952C154.072 16.9682 153.996 16.9845 153.92 17.0008C154.056 16.9917 154.194 16.9809 154.329 16.9719C154.27 16.9845 154.207 16.9989 154.148 17.0116C154.207 17.0206 154.27 17.0315 154.329 17.0405C154.329 17.0242 154.329 17.008 154.329 16.9917C154.484 17.0423 154.811 17.0369 154.785 17.0405C154.861 17.0568 154.936 17.073 155.012 17.0893C155.105 17.0802 155.194 17.0694 155.286 17.0604C155.21 17.0694 155.134 17.0802 155.058 17.0893C155.181 17.1091 155.303 17.129 155.421 17.1489C155.517 17.1037 155.464 17.1218 155.603 17.1091C155.619 17.1128 155.632 17.1164 155.649 17.1182C155.606 17.1471 155.576 17.1236 155.649 17.1471C155.649 17.1543 155.649 17.1597 155.649 17.1669C155.725 17.1579 155.801 17.1471 155.877 17.138C155.86 17.1507 155.847 17.1651 155.83 17.1778C155.731 17.1724 155.791 17.1687 155.738 17.1868C155.982 17.2031 156.223 17.2193 156.467 17.2356C156.467 17.2392 156.467 17.2428 156.467 17.2446C156.299 17.2518 156.134 17.2573 155.966 17.2645C155.982 17.2807 155.995 17.297 156.012 17.3132C156.045 17.3096 156.078 17.306 156.111 17.3024C156.111 17.3114 156.114 17.3205 156.114 17.3277C156.111 17.3295 156.107 17.3313 156.104 17.3313C156.107 17.3313 156.111 17.3313 156.114 17.3295C156.117 17.3512 156.117 17.3729 156.121 17.3927C156.025 17.3981 155.926 17.4036 155.83 17.409C155.929 17.4216 156.028 17.4343 156.127 17.4451C156.127 17.4469 156.127 17.4469 156.127 17.4487C156.131 17.4487 156.137 17.4469 156.14 17.4469C156.144 17.4469 156.144 17.4469 156.147 17.4487C156.269 17.4451 156.391 17.4415 156.51 17.4397C156.48 17.427 156.451 17.4126 156.418 17.4C156.368 17.4054 156.315 17.4108 156.266 17.4162C156.253 17.3837 156.239 17.3512 156.223 17.3187C156.774 17.2717 157.612 17.3656 158.146 17.4975C158.13 17.4686 158.116 17.4379 158.1 17.409C158.116 17.4054 158.13 17.4018 158.146 17.4C158.192 17.4234 158.238 17.4451 158.281 17.4686C158.298 17.409 158.364 17.3548 158.463 17.3801C158.73 17.3711 158.819 17.3765 159.146 17.409C159.294 17.3132 159.548 17.306 159.736 17.2229C160.778 17.2356 161.478 17.344 162.101 17.2428C162.055 17.2428 162.009 17.2428 161.966 17.2428C161.949 17.2356 161.936 17.2302 161.92 17.2229C161.936 17.1994 161.949 17.1778 161.966 17.1543C162.227 17.2157 162.147 17.1651 162.514 17.194C162.56 17.2067 162.606 17.2211 162.649 17.2338C162.728 17.1868 162.679 17.2121 162.83 17.185C162.801 17.1976 162.771 17.2121 162.738 17.2247C163.045 17.2067 162.867 17.2103 163.193 17.2338C163.107 17.1633 162.933 17.1543 162.603 17.1453C162.632 17.1326 162.662 17.1182 162.695 17.1055C162.893 17.0857 163.091 17.0658 163.285 17.0459C163.088 17.0134 162.89 16.9809 162.695 16.9484C162.801 16.9195 162.817 16.9448 162.791 16.9068C163.167 16.9014 163.543 16.896 163.919 16.8924C163.866 16.9809 163.82 17.0495 163.797 17.073C163.965 17.0315 164.113 16.9755 164.275 16.961C164.684 16.9231 165.1 16.9141 165.509 16.8815C165.575 16.8761 165.637 16.8707 165.703 16.8635C165.727 16.8635 165.753 16.8635 165.776 16.8617C165.806 16.8707 165.839 16.8797 165.868 16.8888C165.868 16.8797 165.868 16.8689 165.868 16.8599C165.888 16.8599 165.908 16.8599 165.928 16.8581C166.017 16.8833 166.132 16.8852 166.119 16.887C166.162 16.9032 166.205 16.9195 166.244 16.9357C166.294 16.9267 166.347 16.9159 166.396 16.9068C166.353 16.9159 166.31 16.9267 166.271 16.9357C166.337 16.9556 166.406 16.9755 166.472 16.9953C166.525 16.9502 166.495 16.9682 166.574 16.9556C166.584 16.9592 166.591 16.9628 166.601 16.9646C166.578 16.9917 166.561 16.9701 166.601 16.9935C166.601 17.0008 166.601 17.0062 166.601 17.0134C166.644 17.0044 166.686 16.9935 166.726 16.9845C166.716 16.9971 166.71 17.0116 166.7 17.0242C166.647 17.0188 166.68 17.0152 166.65 17.0333C166.785 17.0495 166.921 17.0658 167.053 17.082C167.053 17.0857 167.053 17.0893 167.053 17.0911C166.96 17.0983 166.868 17.1037 166.776 17.1109C166.785 17.1272 166.792 17.1435 166.802 17.1597C166.835 17.1525 166.868 17.1471 166.904 17.1398C166.888 17.1525 166.871 17.1651 166.855 17.1796C167.155 17.1055 167.673 17.2049 167.989 17.3476C167.98 17.3187 167.973 17.288 167.963 17.2591C167.973 17.2554 167.98 17.2518 167.989 17.25C168.016 17.2735 168.039 17.2952 168.065 17.3187C168.075 17.2591 168.112 17.2049 168.168 17.2302C168.316 17.2211 168.366 17.2265 168.547 17.2591C168.629 17.1633 168.771 17.1561 168.874 17.073C169.451 17.0857 169.84 17.194 170.186 17.0929C170.16 17.0929 170.137 17.0929 170.111 17.0929C170.101 17.0857 170.094 17.0802 170.084 17.073C170.094 17.0495 170.101 17.0279 170.111 17.0044C170.256 17.0658 170.213 17.0152 170.414 17.0441C170.44 17.0567 170.464 17.0712 170.49 17.0838C170.533 17.0369 170.506 17.0622 170.592 17.0351C170.576 17.0477 170.559 17.0622 170.543 17.0748C170.714 17.0568 170.612 17.0604 170.797 17.0838C170.747 17.0134 170.652 17.0044 170.47 16.9953C170.487 16.9827 170.503 16.9682 170.52 16.9556C170.628 16.9357 170.737 16.9159 170.846 16.896C170.84 16.8942 170.833 16.8924 170.823 16.8888C172.67 16.7443 174.521 16.6124 176.348 16.3902C176.358 16.3884 176.365 16.3884 176.375 16.3866C177.615 16.2349 178.842 16.0416 180.05 15.7743C180.162 15.7743 180.277 15.7761 180.389 15.7761C180.785 15.7219 181.178 15.6659 181.57 15.6081C181.646 15.6424 181.752 15.6406 181.907 15.5955C181.894 15.5846 181.88 15.5738 181.867 15.5629C183.015 15.3877 184.147 15.1764 185.225 14.8513C185.268 14.8802 185.311 14.9072 185.357 14.9361C185.479 14.8892 185.572 14.8531 185.72 14.7953C185.674 14.7808 185.634 14.7646 185.591 14.7465C186.344 14.499 185.519 14.2642 185.337 14.0258C184.909 14.4864 184.453 14.8964 183.167 14.0474C182.098 14.4773 181.452 13.6085 180.472 13.753C180.389 13.7711 180.307 13.7873 180.221 13.809C180.307 13.7819 180.389 13.7657 180.472 13.753C181.359 13.5634 182.253 13.5561 183.157 13.6392C183.493 13.5579 183.995 14.0836 184.17 13.6049C184.213 13.4911 184.255 13.3954 184.305 13.3141C184.183 13.2256 184.061 13.1353 183.935 13.0467C184.447 13.166 184.763 12.8228 185.225 12.821C186.317 12.6656 185.582 12.4236 185.281 12.2032C185.654 12.1219 186.024 12.0406 186.396 11.9594C185.552 11.8781 184.866 11.7119 184.526 11.3253C184.387 11.3362 184.252 11.3452 184.117 11.347C183.922 11.3506 183.728 11.356 183.533 11.3597C183.526 11.2838 183.52 11.2079 183.513 11.1339C183.691 11.105 183.866 11.0743 184.044 11.0454C184.15 11.049 184.259 11.0562 184.368 11.0616C184.341 10.993 184.318 10.9189 184.308 10.8394C184.275 10.5938 183.837 10.6751 183.54 10.6588C183.718 9.9977 184.806 10.2867 185.443 10.1061C185.575 10.0681 185.71 10.0302 185.839 9.99048C185.522 9.92545 185.245 9.8532 185.733 9.66534C185.542 9.63102 185.354 9.59489 185.163 9.55877C184.935 9.55335 184.707 9.54793 184.48 9.54251C184.533 9.51723 184.585 9.49194 184.638 9.46665C184.457 9.43775 184.275 9.41246 184.091 9.3962C183.919 9.37453 183.757 9.34201 183.606 9.29866C183.612 9.84416 183.042 9.77733 182.369 9.59851C182.332 9.56961 182.293 9.51542 182.26 9.51542C180.188 9.54793 178.239 9.15777 176.329 8.83624C175.339 8.67006 176.56 10.1241 175.26 9.16861C175.184 8.79109 174.508 9.02229 174.214 8.85792C174.61 8.34131 175.306 8.11914 176.309 8.22933C178.539 8.47498 180.785 8.57613 183.055 8.54181C183.078 8.51833 183.098 8.49667 183.127 8.47318C184.081 8.18779 184.998 8.48041 185.931 8.52556C186.317 8.51292 186.891 8.83624 187 8.33951C186.875 8.08482 186.667 7.88793 186.403 7.73981C186.307 7.73439 186.195 7.73078 186.083 7.72898ZM59.8541 0.85417C59.8706 0.845138 59.8838 0.834305 59.9003 0.825274C59.9168 0.825274 59.93 0.825274 59.9464 0.825274C59.9135 0.834305 59.8838 0.843332 59.8541 0.85417ZM10.8351 4.90752C10.2149 4.76844 9.41994 4.85876 9.04718 4.31687C9.81249 4.297 10.5778 4.27532 11.3431 4.25545C11.508 4.60949 12.2733 5.22905 10.8351 4.90752ZM4.19147 16.6268C3.93747 16.663 3.66697 16.6377 3.5779 16.4372C3.45915 16.1717 3.69666 16.0109 4.01004 15.9314C4.3498 15.8465 4.58732 15.9694 4.72916 16.1626C4.78524 16.486 4.51144 16.5817 4.19147 16.6268ZM4.19476 15.5124C3.51853 15.2288 2.63777 15.068 2.77302 14.2931C3.40967 14.3112 4.04632 14.3292 4.67968 14.3473C4.98316 14.835 4.27393 15.1059 4.19476 15.5124ZM13.6588 5.42774C14.0777 5.10261 14.7342 4.92379 15.3807 5.12971C15.8524 5.27963 16.2582 5.42593 16.7662 5.30311C17.1192 5.30311 17.4721 5.30311 18.3133 5.30311C16.433 6.08704 15.0443 5.28504 13.6588 5.42774ZM17.2478 2.80318C17.6667 2.5503 18.0857 2.37328 18.4716 2.82124C18.0626 2.81582 17.6535 2.81041 17.2478 2.80318ZM19.4547 2.99646C19.2996 2.83208 19.4349 2.58461 19.7021 2.581C20.3783 2.57197 20.8467 2.83027 21.104 3.30352C20.375 3.58531 19.8472 3.41552 19.4547 2.99646ZM19.5503 14.3834C19.2798 14.5026 19.006 14.5984 18.6663 14.5803C18.4551 14.5695 18.2407 14.4394 18.0263 14.5749C18.3397 14.5857 18.465 14.6959 18.3793 14.9199C18.2803 14.9596 18.2506 15.0174 18.2902 15.0933C16.9971 15.4654 15.8096 15.0265 14.589 14.8422C14.2196 14.5803 13.6489 14.6218 13.2662 14.3816C12.2667 14.8133 11.3497 15.3155 10.0104 14.9669C9.48262 14.8296 8.58536 14.9145 8.16972 15.1674C6.91951 15.9206 6.44449 15.4347 6.02556 14.6435C6.00576 14.3274 6.24657 14.1269 6.59623 13.9734C7.23618 13.7873 7.76728 14.2389 8.40394 14.1883C7.86295 14.1883 7.59245 14.0095 7.60565 13.6139C8.33796 12.1743 9.29789 13.3195 10.1721 13.4983C13.3883 13.3827 16.5584 13.7061 19.7251 14.0384C19.8736 14.0547 20.1342 14.1486 20.1309 14.1956C20.1012 14.4701 19.7482 14.3184 19.5503 14.3834ZM14.6715 10.6082C14.9651 10.6136 15.0575 10.7979 15.1069 11.2621C15.13 11.2567 14.9024 11.3651 14.6649 11.3741C14.3185 11.3868 14.3713 11.1393 14.335 10.9858C14.2987 10.8069 14.3383 10.601 14.6715 10.6082ZM19.3986 9.90919C18.4156 9.73037 17.2313 10.1621 16.433 9.42691C16.4198 9.43052 16.4066 9.43413 16.3934 9.43775L16.4 9.39981L16.3901 9.43775C16.3604 9.43413 16.3341 9.42871 16.3044 9.4251C15.4302 9.64728 14.5593 9.87126 13.6852 10.0934C13.2069 9.78817 13.5466 9.36369 13.3817 9.01327C13.5565 8.72607 13.6027 8.12637 14.2658 8.69716C14.8265 9.17945 15.5424 9.31311 16.3044 9.42691C16.3374 9.41968 16.367 9.41065 16.4 9.40343C16.4099 9.41426 16.4198 9.42149 16.433 9.43052C17.6206 9.06746 18.7091 9.72495 19.8703 9.62018C20.6554 9.73398 21.4438 9.84959 22.2289 9.96339C21.2491 10.2379 20.309 10.2614 19.3986 9.90919ZM21.7407 1.61825C20.8104 1.83861 19.867 1.86028 18.9038 1.68868C18.6762 1.80248 18.4452 1.85487 18.1945 1.70856C17.7195 1.72482 17.2478 1.73926 16.7464 1.75732C17.228 1.2064 17.228 1.20641 18.1846 1.50626C18.5904 1.32201 18.973 1.04203 19.5074 1.41594C19.6163 1.39968 19.6757 1.36175 19.6955 1.30214C20.1408 1.21183 20.596 1.17931 21.0644 1.2335C22.2355 1.05106 23.3405 1.1468 24.3928 1.47013C23.5781 1.91087 22.6346 1.6345 21.7407 1.61825ZM48.2657 1.76816C48.9584 1.46109 49.7501 1.38703 50.6078 1.47735C50.08 2.1782 49.1068 1.81512 48.2657 1.76816ZM51.2312 1.01493C51.2213 1.01493 51.2147 1.01493 51.2048 1.01493C51.2048 1.00771 51.2048 0.998676 51.2048 0.991451C51.2345 0.995064 51.2642 0.998674 51.2972 1.00048C51.2741 1.0059 51.2543 1.01132 51.2312 1.01493ZM77.7859 0.203904C77.7694 0.194872 77.7562 0.184039 77.7397 0.175008C77.7562 0.175008 77.7694 0.175008 77.7859 0.175008C77.7859 0.185845 77.7859 0.194872 77.7859 0.203904ZM81.3815 0.0864892C81.398 0.0864892 81.4112 0.0864892 81.4277 0.0864892C81.398 0.0955208 81.3683 0.106365 81.3354 0.115396C81.3518 0.106365 81.3683 0.0973271 81.3815 0.0864892ZM81.4277 0.165967C81.4574 0.158742 81.4871 0.153326 81.5201 0.1461C81.5366 0.1461 81.5498 0.1461 81.5663 0.1461C81.5201 0.151519 81.4739 0.158742 81.4277 0.165967ZM81.9291 0.243637C81.9456 0.240024 81.9588 0.236414 81.9753 0.234608C81.9918 0.234608 82.005 0.234608 82.0215 0.234608C81.9687 0.252671 82.0314 0.24725 81.9291 0.243637ZM82.7934 0.4315C82.8099 0.424275 82.8231 0.418859 82.8396 0.411633C82.8693 0.415246 82.899 0.418856 82.9319 0.420663C82.8858 0.424275 82.8396 0.427888 82.7934 0.4315ZM83.2024 0.332155C83.2189 0.315899 83.2321 0.299638 83.2486 0.283382C83.2783 0.290607 83.308 0.296023 83.341 0.303248C83.2948 0.31228 83.2486 0.323124 83.2024 0.332155ZM83.3839 0.332155C83.3839 0.323124 83.3839 0.31228 83.3839 0.303248C83.4004 0.303248 83.4136 0.303248 83.43 0.303248C83.4168 0.31228 83.4004 0.323124 83.3839 0.332155ZM84.8881 0.303248C84.9046 0.294217 84.9178 0.283384 84.9343 0.274352C84.9507 0.274352 84.964 0.274352 84.9804 0.274352C84.9475 0.283384 84.9178 0.29241 84.8881 0.303248ZM85.3895 0.165967C85.3895 0.156936 85.3895 0.146103 85.3895 0.137071C85.406 0.137071 85.4192 0.137071 85.4357 0.137071C85.4192 0.146103 85.4027 0.155129 85.3895 0.165967ZM85.5709 0.332155C85.5544 0.328543 85.5412 0.324921 85.5247 0.323115C85.5412 0.310471 85.5544 0.297832 85.5709 0.283382C85.6006 0.296026 85.6303 0.310471 85.6633 0.323115C85.6303 0.326728 85.6006 0.328543 85.5709 0.332155ZM86.5704 0.175008C86.5539 0.17862 86.5407 0.182231 86.5242 0.184037C86.5407 0.171393 86.5539 0.156937 86.5704 0.144292C86.5704 0.15513 86.5704 0.165976 86.5704 0.175008ZM87.9361 0.312278C87.9361 0.310471 87.9394 0.310479 87.9394 0.308673C87.9493 0.308673 87.9592 0.306866 87.9691 0.308673C87.9856 0.308673 87.9922 0.308673 87.9988 0.308673C87.979 0.310479 87.9592 0.310471 87.9361 0.312278ZM91.06 0.225578C91.0501 0.223772 91.0402 0.221962 91.0303 0.221962C91.0171 0.234606 91.0039 0.247255 90.9907 0.259899C90.994 0.259899 90.9973 0.259899 91.0006 0.259899C90.9973 0.263511 90.994 0.267125 90.9874 0.272544C90.9709 0.272544 90.9577 0.272544 90.9412 0.272544C90.9577 0.249062 90.9709 0.227386 90.9874 0.203904C91.0534 0.221967 91.0666 0.221966 91.06 0.225578ZM91.9144 0.221962C91.911 0.221962 91.9111 0.221962 91.9078 0.221962C91.9045 0.216543 91.9012 0.209323 91.8979 0.203904C91.8979 0.196678 91.8979 0.191262 91.8979 0.184037C91.9341 0.200294 91.9704 0.216543 92.01 0.2328C91.977 0.229187 91.9407 0.227381 91.9144 0.221962ZM94.1278 0.165967C94.1575 0.185837 94.1872 0.205709 94.2202 0.225578C94.108 0.193065 94.1311 0.2039 94.1278 0.165967ZM95.3087 0.240032C95.279 0.238226 95.2494 0.236412 95.2197 0.2328C95.2164 0.234606 95.2098 0.236418 95.2065 0.238224C95.1999 0.238224 95.1933 0.238224 95.1867 0.238224C95.1999 0.223773 95.2098 0.207517 95.223 0.193066C95.2395 0.200291 95.2527 0.205708 95.2691 0.212933C95.2955 0.221965 95.3219 0.231 95.3516 0.240032C95.3351 0.240032 95.3219 0.240032 95.3087 0.240032ZM96.2225 0.234608C96.239 0.225576 96.2522 0.214743 96.2687 0.205712C96.2984 0.214743 96.328 0.225576 96.361 0.234608C96.3115 0.234608 96.2654 0.234608 96.2225 0.234608ZM96.8591 0.22377C96.8888 0.227383 96.9185 0.230993 96.9515 0.2328C96.8459 0.234606 96.9284 0.234608 96.8591 0.22377ZM103.674 0.296027C103.691 0.296027 103.704 0.296027 103.72 0.296027C103.75 0.303252 103.78 0.308669 103.813 0.315894C103.767 0.308669 103.72 0.301446 103.674 0.296027ZM103.813 0.236416C103.829 0.236416 103.843 0.236416 103.859 0.236416C103.876 0.245447 103.889 0.256291 103.905 0.265323C103.872 0.256291 103.843 0.245447 103.813 0.236416ZM123.186 17.0531C123.17 17.0568 123.153 17.0604 123.137 17.0622C123.147 17.0531 123.153 17.0423 123.163 17.0333C123.16 17.0315 123.157 17.0279 123.153 17.0242C123.17 17.0242 123.186 17.0242 123.203 17.0242C123.199 17.0333 123.193 17.0423 123.186 17.0531ZM125.449 17.4921C125.426 17.4921 125.403 17.4921 125.383 17.4921C125.439 17.4758 125.386 17.483 125.449 17.4921C125.449 17.483 125.449 17.4722 125.449 17.4632C125.466 17.4722 125.479 17.483 125.495 17.4921C125.479 17.4921 125.466 17.4921 125.449 17.4921ZM125.495 17.4054C125.502 17.3927 125.512 17.3801 125.518 17.3674C125.548 17.3747 125.578 17.3801 125.607 17.3873C125.631 17.3909 125.654 17.3945 125.673 17.3963C125.614 17.4 125.555 17.4018 125.495 17.4054ZM125.697 17.4054C125.697 17.4018 125.7 17.4 125.703 17.3963C125.706 17.3981 125.706 17.3981 125.71 17.4C125.703 17.4018 125.7 17.4036 125.697 17.4054ZM126.297 17.3385C126.304 17.3548 126.313 17.3711 126.32 17.3873C126.29 17.3783 126.261 17.3674 126.231 17.3584C126.254 17.3512 126.274 17.344 126.297 17.3385ZM126.221 17.5625C126.214 17.5589 126.201 17.5535 126.185 17.5408C126.211 17.5499 126.238 17.5571 126.261 17.5661C126.251 17.5643 126.238 17.5625 126.221 17.5625ZM126.432 17.5806C126.432 17.5788 126.432 17.577 126.432 17.5752C126.432 17.5734 126.432 17.5716 126.429 17.5697C126.419 17.5716 126.412 17.5752 126.402 17.577C126.376 17.5734 126.346 17.5716 126.313 17.5679C126.337 17.5643 126.36 17.5553 126.373 17.5481C126.386 17.5499 126.399 17.5517 126.412 17.5553C126.419 17.5607 126.426 17.5643 126.429 17.5679C126.429 17.5679 126.429 17.5679 126.432 17.5679C126.432 17.5697 126.432 17.5715 126.432 17.5752C126.432 17.577 126.432 17.5788 126.432 17.5806ZM130.648 16.7605C130.655 16.7533 130.664 16.7479 130.671 16.7406C130.671 16.7569 130.671 16.7732 130.671 16.7894C130.655 16.7822 130.641 16.7768 130.625 16.7696C130.635 16.7677 130.641 16.7641 130.648 16.7605ZM130.453 16.7118C130.453 16.7118 130.457 16.7118 130.453 16.7118C130.453 16.7154 130.45 16.719 130.45 16.7226C130.45 16.719 130.453 16.7154 130.453 16.7118ZM130.45 16.9719C130.443 16.9719 130.434 16.9719 130.427 16.9719C130.42 16.9628 130.41 16.952 130.404 16.943C130.381 16.9339 130.358 16.9231 130.338 16.9141C130.361 16.8942 130.384 16.8761 130.404 16.8563C130.42 16.896 130.434 16.9339 130.45 16.9719ZM130.269 16.8093C130.305 16.8093 130.344 16.8093 130.381 16.8093C130.295 16.8526 130.368 16.8328 130.245 16.8093C130.269 16.8039 130.269 16.8003 130.269 16.8093ZM130.292 17.2428C130.298 17.2338 130.308 17.2229 130.315 17.2139C130.354 17.2374 130.298 17.2392 130.292 17.2428ZM130.292 16.8851C130.298 16.8942 130.308 16.905 130.315 16.9141C130.292 16.9141 130.269 16.9141 130.249 16.9141C130.262 16.905 130.278 16.896 130.292 16.8851ZM130.12 16.7154C130.13 16.7154 130.14 16.7154 130.153 16.7154C130.163 16.7298 130.173 16.7461 130.183 16.7605C130.176 16.7605 130.166 16.7605 130.16 16.7605C130.143 16.7479 130.13 16.7352 130.114 16.7226C130.117 16.7208 130.117 16.719 130.12 16.7154ZM130.114 16.8292C130.12 16.8364 130.13 16.8418 130.137 16.849C130.12 16.8454 130.107 16.8418 130.09 16.84C130.1 16.8346 130.107 16.831 130.114 16.8292ZM130.071 16.8671C130.094 16.8707 130.117 16.8743 130.137 16.8761C130.137 16.8924 130.137 16.9086 130.137 16.9249C130.107 16.9159 130.077 16.905 130.048 16.896C130.054 16.8851 130.061 16.8761 130.071 16.8671ZM130.133 17.2013H130.137V17.2031C130.133 17.2031 130.133 17.2049 130.13 17.2049C130.13 17.2049 130.133 17.2031 130.133 17.2013ZM129.912 16.7804C129.912 16.8201 129.926 16.8111 129.846 16.8382C129.869 16.8183 129.889 16.8003 129.912 16.7804ZM129.757 16.7425C129.764 16.7461 129.774 16.7497 129.78 16.7515C129.751 16.7641 129.721 16.7768 129.691 16.7894C129.711 16.7732 129.734 16.7569 129.757 16.7425ZM129.711 16.8851C129.695 16.8942 129.681 16.905 129.665 16.9141C129.652 16.9068 129.635 16.9014 129.619 16.8942C129.652 16.8924 129.681 16.8888 129.711 16.8851ZM129.556 16.7605C129.579 16.7569 129.602 16.7533 129.622 16.7515C129.576 16.7804 129.632 16.7768 129.556 16.7714C129.556 16.7677 129.556 16.7641 129.556 16.7605ZM129.49 16.8003C129.569 16.8454 129.503 16.8219 129.602 16.8292C129.596 16.849 129.586 16.8671 129.579 16.887C129.543 16.8653 129.503 16.8418 129.467 16.8201C129.474 16.8129 129.48 16.8057 129.49 16.8003ZM129.282 16.7244H129.286C129.239 16.7533 129.269 16.7677 129.332 16.8003C129.286 16.7804 129.243 16.7623 129.197 16.7425C129.226 16.7352 129.256 16.7298 129.282 16.7244ZM129.022 16.7262C129.038 16.7262 129.055 16.7262 129.071 16.7262C129.055 16.728 129.038 16.7316 129.022 16.7334C129.022 16.7298 129.022 16.728 129.022 16.7262ZM128.975 16.7262C128.975 16.728 128.975 16.7298 128.975 16.7334C128.969 16.7316 128.966 16.7298 128.962 16.7262C128.966 16.7262 128.972 16.7262 128.975 16.7262ZM128.84 16.7425C128.857 16.7623 128.87 16.7804 128.886 16.8003C128.87 16.8003 128.86 16.8003 128.853 16.8003C128.857 16.793 128.86 16.7858 128.863 16.7786C128.85 16.7786 128.84 16.7804 128.827 16.7804C128.834 16.7677 128.837 16.7551 128.84 16.7425ZM128.82 16.8039C128.82 16.8057 128.824 16.8057 128.824 16.8075C128.82 16.8075 128.82 16.8075 128.82 16.8093C128.82 16.8075 128.82 16.8057 128.82 16.8039ZM128.778 16.7262C128.784 16.7262 128.791 16.7262 128.797 16.7262C128.787 16.728 128.778 16.7298 128.768 16.7334C128.771 16.7316 128.774 16.7298 128.778 16.7262ZM128.59 16.7659C128.593 16.7677 128.593 16.7677 128.596 16.7696C128.593 16.7714 128.593 16.775 128.59 16.7768C128.59 16.7732 128.59 16.7696 128.59 16.7659ZM126.762 17.0604C126.779 17.0604 126.792 17.0604 126.808 17.0604C126.779 17.0694 126.749 17.0802 126.716 17.0893C126.732 17.0802 126.746 17.0694 126.762 17.0604ZM126.67 17.1796C126.673 17.1796 126.68 17.1814 126.683 17.1814C126.673 17.185 126.663 17.1904 126.653 17.194C126.66 17.1886 126.666 17.185 126.67 17.1796ZM126.769 17.6438C126.752 17.6366 126.732 17.6294 126.719 17.6239C126.716 17.6257 126.713 17.6275 126.709 17.6312C126.66 17.6257 126.617 17.6384 126.587 17.6095C126.577 17.6131 126.574 17.6167 126.567 17.6185C126.554 17.6113 126.538 17.6059 126.525 17.6023C126.528 17.5932 126.531 17.586 126.534 17.577C126.577 17.5842 126.617 17.5896 126.66 17.595C126.666 17.6023 126.673 17.6113 126.68 17.6185C126.676 17.6113 126.673 17.6041 126.67 17.5968C126.716 17.6041 126.759 17.6095 126.805 17.6167C126.792 17.6239 126.782 17.6348 126.769 17.6438ZM126.861 17.6763C126.854 17.6745 126.848 17.6727 126.845 17.6709C126.841 17.6655 126.838 17.6619 126.835 17.6564C126.835 17.6492 126.835 17.6438 126.835 17.6366C126.851 17.6438 126.864 17.6492 126.881 17.6564C126.874 17.6619 126.868 17.6691 126.861 17.6763ZM126.943 17.6564C126.937 17.6492 126.93 17.6402 126.924 17.633C126.937 17.6348 126.953 17.6366 126.967 17.6384C126.96 17.6438 126.953 17.6492 126.943 17.6564ZM127.013 17.185C127.013 17.185 127.009 17.185 127.013 17.185C127.009 17.1832 127.009 17.1832 127.013 17.185C127.013 17.1832 127.013 17.1832 127.013 17.185ZM127.125 17.6745C127.115 17.6673 127.105 17.6619 127.095 17.6546C127.108 17.6564 127.118 17.6583 127.132 17.6601C127.125 17.6655 127.125 17.6691 127.125 17.6745ZM127.145 17.5932C127.145 17.5914 127.145 17.5914 127.145 17.5932C127.145 17.5914 127.145 17.5896 127.145 17.5896C127.145 17.5896 127.145 17.5914 127.145 17.5932ZM127.125 17.4722C127.158 17.4596 127.131 17.4614 127.171 17.4722C127.155 17.4722 127.138 17.4722 127.125 17.4722ZM127.145 17.1453C127.145 17.1416 127.145 17.138 127.145 17.1362C127.168 17.1398 127.191 17.1435 127.211 17.1453C127.191 17.1453 127.168 17.1453 127.145 17.1453ZM127.636 17.2609C127.62 17.2536 127.607 17.2482 127.59 17.241C127.607 17.241 127.62 17.241 127.636 17.241C127.636 17.2482 127.636 17.2554 127.636 17.2609ZM127.702 17.2031C127.696 17.2031 127.686 17.2031 127.679 17.2031C127.663 17.1868 127.649 17.1706 127.633 17.1543C127.633 17.1507 127.633 17.1471 127.633 17.1453C127.663 17.1525 127.692 17.1579 127.722 17.1651C127.719 17.1778 127.712 17.1904 127.702 17.2031ZM128.105 17.1362C128.055 17.1091 128.072 17.1417 128.058 17.1073C127.979 17.1398 128.016 17.1073 128.035 17.1561C128.012 17.1398 127.989 17.1236 127.969 17.1073C127.844 17.1236 127.894 17.1019 127.903 17.1561C127.818 17.1344 127.659 17.1254 127.659 17.1073C127.623 17.1073 127.583 17.1073 127.547 17.1073C127.57 17.12 127.593 17.1326 127.613 17.1453L127.494 17.1417C127.498 17.1435 127.498 17.1435 127.501 17.1453C127.484 17.1525 127.471 17.1579 127.455 17.1651C127.442 17.1579 127.425 17.1525 127.409 17.1453C127.412 17.1435 127.415 17.1417 127.418 17.1398L127.006 17.1272C127.006 17.1362 127.006 17.1453 127.006 17.1561C126.996 17.1525 126.986 17.1471 126.973 17.1435C126.976 17.138 126.98 17.1326 126.983 17.1272C126.97 17.1326 126.967 17.1362 126.96 17.1398C126.91 17.1272 126.845 17.1164 126.802 17.1001C126.818 17.0965 126.831 17.0929 126.848 17.0911C126.983 17.1001 127.122 17.1109 127.257 17.12C127.287 17.1236 127.316 17.1272 127.349 17.129C127.283 17.0947 127.217 17.0604 127.151 17.026C127.158 17.0224 127.164 17.017 127.171 17.0134C127.372 17.1091 127.306 17.0224 127.524 17.0622C127.541 17.0351 127.557 17.0098 127.574 16.9827C127.574 16.9953 127.574 17.0098 127.574 17.0224C127.616 17.0459 127.659 17.0676 127.699 17.0911C127.699 17.082 127.699 17.0712 127.699 17.0622C127.709 17.0495 127.715 17.0351 127.725 17.0224C127.752 17.0459 127.775 17.0676 127.801 17.0911C127.818 17.0676 127.976 17.0856 128.157 17.1001C128.098 17.12 128.128 17.1073 128.105 17.1362ZM128.174 17.194C128.157 17.1904 128.144 17.1868 128.128 17.185C128.144 17.176 128.157 17.1651 128.174 17.1561C128.174 17.1687 128.174 17.1814 128.174 17.194ZM128.276 17.2265C128.27 17.2265 128.263 17.2247 128.256 17.2247C128.243 17.2049 128.23 17.185 128.217 17.1651C128.246 17.1814 128.276 17.1976 128.306 17.2139C128.296 17.2175 128.286 17.2229 128.276 17.2265ZM128.352 17.1561C128.322 17.1398 128.293 17.1236 128.263 17.1073C128.279 17.1236 128.293 17.1398 128.309 17.1561C128.27 17.138 128.227 17.12 128.187 17.1037C128.263 17.1091 128.339 17.1127 128.415 17.1146C128.392 17.1272 128.372 17.1416 128.352 17.1561ZM128.952 17.2139C128.969 17.1597 128.992 17.1561 128.84 17.1362C128.847 17.1272 128.857 17.1164 128.863 17.1073C128.758 17.1489 128.771 17.1308 128.774 17.1742C128.751 17.1778 128.728 17.1814 128.708 17.1832C128.715 17.1669 128.725 17.1507 128.731 17.1344C128.708 17.1254 128.685 17.1146 128.665 17.1055C128.659 17.1091 128.649 17.1127 128.642 17.1146C128.613 17.1344 128.583 17.1525 128.553 17.1724C128.56 17.1525 128.57 17.1344 128.576 17.1146C128.553 17.1127 128.527 17.1109 128.504 17.1091C128.593 17.1055 128.669 17.0947 128.718 17.0694C128.764 17.0929 128.84 17.1037 128.933 17.1055C128.919 17.1561 129.098 17.1669 128.952 17.2139ZM129.111 17.232C129.111 17.2247 129.111 17.2193 129.111 17.2121C129.14 17.2157 129.17 17.2193 129.2 17.2211C129.17 17.2265 129.14 17.2284 129.111 17.232ZM129.2 17.185C129.206 17.1778 129.216 17.1724 129.223 17.1651C129.223 17.1868 129.223 17.1687 129.2 17.185ZM129.2 17.1453C129.121 17.1073 129.2 17.1272 129.022 17.1362C129.025 17.1272 129.032 17.12 129.035 17.1109C129.104 17.1109 129.18 17.1091 129.256 17.1091C129.236 17.1218 129.22 17.1326 129.2 17.1453ZM129.711 17.0495C129.675 17.0477 129.652 17.0495 129.629 17.0531C129.107 17.0423 128.599 16.9592 128.434 16.9141C128.434 16.9375 128.434 16.9592 128.434 16.9827C128.316 17.0586 128.316 16.9646 128.283 17.0513C128.256 17.0279 128.233 17.0062 128.207 16.9827C128.164 16.999 128.151 16.9755 128.131 17.0315C128.121 17.0242 128.115 17.0188 128.105 17.0116C128.078 17.0116 128.055 17.0116 128.029 17.0116C128.055 17.0026 128.078 16.9917 128.105 16.9827C127.979 17.0134 127.758 16.9917 127.613 16.9502C127.623 16.9502 127.636 16.9502 127.646 16.9502C127.62 16.943 127.597 16.9375 127.57 16.9303C127.567 16.9321 127.56 16.9321 127.557 16.9339C127.557 16.9339 127.554 16.9339 127.55 16.9321C127.55 16.9339 127.55 16.9339 127.55 16.9357C127.531 16.9412 127.514 16.9448 127.494 16.9502C127.511 16.9502 127.527 16.9502 127.544 16.9502C127.537 16.9646 127.531 16.9773 127.527 16.9917C127.511 16.9845 127.494 16.9791 127.478 16.9719C127.478 16.9719 127.435 16.9664 127.379 16.9592C127.409 16.9339 127.27 16.9068 127.221 16.8436C127.221 16.8436 127.224 16.8436 127.224 16.8418C127.254 16.8418 127.283 16.8418 127.31 16.8418C127.336 16.8508 127.362 16.8599 127.392 16.8707C127.385 16.8725 127.379 16.8743 127.372 16.8743C127.395 16.8743 127.402 16.8743 127.409 16.8761C127.451 16.8906 127.498 16.9068 127.541 16.9213C127.666 16.9104 127.762 16.9014 127.844 16.8924L127.841 16.8942C127.847 16.8924 127.854 16.8906 127.861 16.8906C127.877 16.8888 127.893 16.887 127.907 16.8851C127.907 16.8978 127.907 16.9104 127.907 16.9231C127.936 16.9159 127.966 16.9104 127.996 16.9032C127.989 16.8942 127.986 16.887 127.979 16.8779C128.055 16.8707 128.131 16.8689 128.217 16.8671C128.23 16.8689 128.24 16.8689 128.246 16.8671C128.286 16.8671 128.329 16.8689 128.378 16.8707C128.392 16.8779 128.405 16.8852 128.418 16.8942C128.418 16.8725 128.418 16.849 128.418 16.8274C128.402 16.8346 128.388 16.84 128.372 16.8472C128.362 16.8418 128.355 16.8346 128.345 16.8292C128.362 16.8219 128.365 16.8201 128.362 16.8183C128.365 16.8183 128.372 16.8165 128.375 16.8165C128.375 16.8165 128.375 16.8165 128.375 16.8183C128.378 16.8165 128.382 16.8165 128.385 16.8147C128.408 16.8111 128.428 16.8075 128.451 16.8039C128.471 16.8093 128.491 16.8129 128.51 16.8183C128.408 16.8021 128.504 16.8815 128.557 16.905C128.553 16.849 128.524 16.8888 128.623 16.8563C128.593 16.8526 128.563 16.849 128.533 16.8472C128.553 16.8346 128.57 16.8201 128.59 16.8075C128.603 16.8111 128.623 16.8129 128.639 16.8147C128.665 16.8454 128.688 16.8743 128.715 16.905C128.754 16.849 128.761 16.8635 128.738 16.8147C128.745 16.8147 128.748 16.8147 128.754 16.8129C128.794 16.8219 128.83 16.8292 128.87 16.8382C128.877 16.8635 128.886 16.8888 128.893 16.9159C128.923 16.9086 128.952 16.9032 128.982 16.896C128.959 16.8581 128.936 16.8183 128.916 16.7804C128.939 16.784 128.962 16.7876 128.982 16.7894C128.946 16.8346 129.068 16.8129 128.959 16.8472C128.966 16.8599 128.975 16.8725 128.982 16.8851C129.084 16.8472 129.078 16.84 129.16 16.8653C129.177 16.8581 129.19 16.8526 129.206 16.8454C129.137 16.8924 129.101 16.8996 128.982 16.9032C129.051 16.9339 128.982 16.9122 129.071 16.9231C129.187 16.9177 129.098 16.8978 129.249 16.9032C129.243 16.887 129.233 16.8707 129.226 16.8544C129.243 16.8581 129.256 16.8617 129.272 16.8635C129.342 16.8779 129.312 16.8671 129.319 16.9122C129.447 16.8942 129.371 16.8797 129.342 16.8544C129.365 16.8581 129.388 16.8617 129.408 16.8635C129.411 16.8653 129.46 16.896 129.497 16.9122C129.48 16.9285 129.467 16.9448 129.45 16.961C129.434 16.9484 129.421 16.9357 129.404 16.9231C129.411 16.943 129.421 16.961 129.427 16.9809C129.444 16.9845 129.457 16.9881 129.474 16.9899C129.48 16.9737 129.49 16.9574 129.497 16.9411C129.513 16.9448 129.53 16.9502 129.546 16.9538C129.559 16.9339 129.573 16.9123 129.586 16.8924C129.606 16.9375 129.609 16.9321 129.553 16.9556C129.592 16.9664 129.635 16.9773 129.675 16.9881C129.711 16.9737 129.668 16.9953 129.721 16.9971C129.728 17.0062 129.737 17.017 129.744 17.026C129.751 17.0008 129.761 16.9755 129.767 16.9484C129.754 16.961 129.754 16.952 129.744 16.9393C129.728 16.9393 129.714 16.9393 129.698 16.9393C129.784 16.9104 129.767 16.9159 129.853 16.8617C129.869 16.8978 129.883 16.9321 129.899 16.9682C129.893 16.9556 129.883 16.943 129.876 16.9303C129.869 16.9303 129.86 16.9303 129.853 16.9303C129.869 16.9466 129.883 16.9628 129.899 16.9791C129.959 17.0134 129.975 17.0026 130.011 16.9791C130.031 16.9989 130.051 17.0206 130.074 17.0405C130.034 17.0441 129.991 17.0459 129.949 17.0477C129.919 17.0351 129.886 17.0206 129.856 17.008C129.856 17.0224 129.856 17.0369 129.856 17.0513C129.833 17.0513 129.81 17.0513 129.787 17.0513C129.761 17.0513 129.757 17.0549 129.711 17.0495ZM130.005 17.2031C130.005 17.2031 130.001 17.2031 130.005 17.2031C130.001 17.2031 130.001 17.2031 130.001 17.2031H130.005ZM129.889 17.2139C129.873 17.2211 129.86 17.2266 129.843 17.2338C129.84 17.2284 129.836 17.2229 129.83 17.2175C129.843 17.2139 129.86 17.2121 129.879 17.2103C129.886 17.2103 129.889 17.2121 129.889 17.2139ZM130.048 17.8389C129.982 17.8389 129.912 17.8389 129.846 17.8389C129.883 17.8317 129.922 17.8262 129.959 17.819C129.942 17.819 129.929 17.819 129.912 17.819C129.853 17.7883 129.916 17.8118 129.823 17.81C129.853 17.7973 129.883 17.7847 129.912 17.7721C129.965 17.7847 130.018 17.7973 130.067 17.81C130.061 17.819 130.054 17.828 130.048 17.8389ZM130.048 16.9719C130.064 16.9719 130.077 16.9719 130.094 16.9719C130.1 16.9646 130.11 16.9592 130.117 16.952C130.11 16.9646 130.1 16.9773 130.094 16.9899C130.077 16.9863 130.061 16.9791 130.048 16.9719ZM130.114 17.2428C130.12 17.232 130.123 17.2193 130.13 17.2085C130.133 17.2085 130.137 17.2085 130.14 17.2085C130.143 17.2338 130.143 17.2464 130.183 17.2229C130.153 17.2428 130.193 17.2338 130.114 17.2428ZM130.137 16.9719C130.166 16.9628 130.196 16.952 130.226 16.943C130.219 16.9502 130.209 16.9556 130.203 16.9628C130.18 16.9664 130.16 16.9701 130.137 16.9719ZM130.269 16.943C130.232 16.9339 130.193 16.9231 130.156 16.9141C130.245 16.9014 130.209 16.9213 130.311 16.9231C130.288 16.952 130.265 16.9809 130.245 17.0098C130.196 16.9809 130.236 16.9827 130.269 16.943ZM130.45 17.81C130.397 17.8136 130.344 17.8172 130.295 17.819C130.295 17.8118 130.295 17.8064 130.295 17.7991C130.354 17.7919 130.414 17.7865 130.473 17.7793C130.463 17.7901 130.457 17.7991 130.45 17.81ZM130.45 16.9141C130.45 16.9104 130.45 16.9068 130.45 16.905C130.457 16.9014 130.467 16.8978 130.473 16.896C130.503 16.9122 130.45 16.9141 130.45 16.9141ZM130.496 16.7118C130.496 16.7136 130.499 16.7135 130.503 16.7154C130.506 16.7135 130.509 16.7118 130.509 16.7118C130.519 16.7118 130.529 16.7118 130.539 16.7118C130.532 16.719 130.523 16.7262 130.516 16.7316C130.509 16.7262 130.499 16.719 130.496 16.7118C130.493 16.7118 130.493 16.7118 130.496 16.7118ZM130.605 16.8292C130.582 16.8292 130.559 16.8292 130.539 16.8292C130.539 16.8255 130.539 16.8219 130.539 16.8201C130.559 16.8219 130.582 16.8255 130.605 16.8292ZM130.516 17.81C130.539 17.8028 130.562 17.7973 130.582 17.7901C130.598 17.7901 130.612 17.7901 130.628 17.7901C130.589 17.7973 130.552 17.8028 130.516 17.81ZM130.582 17.2609C130.589 17.2573 130.598 17.2536 130.605 17.2518C130.605 17.2428 130.605 17.232 130.605 17.2229C130.628 17.232 130.651 17.2428 130.671 17.2518C130.641 17.2554 130.612 17.2573 130.582 17.2609ZM130.671 16.8761C130.694 16.8852 130.717 16.896 130.737 16.905C130.714 16.8978 130.691 16.8924 130.671 16.8851C130.671 16.8833 130.671 16.8797 130.671 16.8761ZM130.74 17.2807C130.734 17.2843 130.727 17.2862 130.721 17.2898C130.75 17.2717 130.78 17.2518 130.806 17.2338C130.777 17.2862 130.79 17.2681 130.74 17.2807ZM130.955 16.7533C130.948 16.7533 130.945 16.7515 130.938 16.7515C130.938 16.7443 130.938 16.7388 130.938 16.7316C130.948 16.7352 130.955 16.7388 130.965 16.7425C130.961 16.7461 130.958 16.7497 130.955 16.7533ZM131.364 16.8292C131.397 16.8165 131.37 16.8183 131.41 16.8292C131.393 16.8292 131.377 16.8292 131.364 16.8292ZM131.677 16.8183C131.7 16.8219 131.723 16.8256 131.743 16.8274C131.72 16.8274 131.697 16.8274 131.677 16.8274C131.677 16.8256 131.677 16.8219 131.677 16.8183ZM131.72 16.905C131.72 16.896 131.72 16.8852 131.72 16.8761C131.75 16.8833 131.779 16.8888 131.809 16.896C131.779 16.8996 131.75 16.9014 131.72 16.905ZM131.944 16.9249C131.938 16.9285 131.928 16.9321 131.921 16.9339C131.938 16.9177 131.951 16.9014 131.967 16.8851C131.974 16.9014 131.984 16.9177 131.991 16.9339C131.974 16.9303 131.958 16.9285 131.944 16.9249ZM132.324 16.7316C132.271 16.7316 132.218 16.7316 132.169 16.7316C132.192 16.7244 132.215 16.7172 132.238 16.7099C132.254 16.7117 132.274 16.7154 132.301 16.719C132.291 16.7154 132.281 16.7099 132.268 16.7063C132.287 16.7117 132.307 16.7172 132.324 16.7226C132.324 16.7262 132.324 16.728 132.324 16.7316ZM132.39 16.8581C132.396 16.8508 132.406 16.8454 132.413 16.8382C132.413 16.8599 132.416 16.8418 132.39 16.8581ZM132.937 17.2898C132.934 17.2898 132.934 17.288 132.931 17.288C132.937 17.2862 132.944 17.2825 132.947 17.2807C132.944 17.2843 132.941 17.2862 132.937 17.2898ZM133.036 17.6944C133.043 17.6908 133.053 17.6872 133.059 17.6854C133.082 17.651 133.04 17.6637 133.105 17.6564C133.112 17.6601 133.122 17.6637 133.129 17.6655C133.096 17.6745 133.066 17.6854 133.036 17.6944ZM133.307 17.7901C133.313 17.7937 133.323 17.7973 133.33 17.7991C133.3 17.8028 133.27 17.8064 133.241 17.8082C133.261 17.8028 133.284 17.7973 133.307 17.7901ZM133.284 17.8967C133.29 17.8895 133.3 17.884 133.307 17.8768C133.323 17.8732 133.336 17.8696 133.353 17.8678C133.326 17.8768 133.307 17.8858 133.284 17.8967ZM134.399 17.6854C134.415 17.6817 134.428 17.6781 134.445 17.6763C134.445 17.6853 134.445 17.6962 134.445 17.7052C134.428 17.7016 134.415 17.698 134.399 17.6962C134.399 17.6908 134.399 17.6872 134.399 17.6854ZM133.986 16.6738C134.006 16.6738 134.023 16.6738 134.042 16.6738C134.013 16.6828 133.983 16.6937 133.953 16.7027C133.973 16.6865 133.98 16.6792 133.986 16.6738ZM133.818 16.7316C133.825 16.7244 133.835 16.719 133.841 16.7118C133.841 16.7352 133.844 16.7172 133.818 16.7316ZM133.841 17.7142C133.841 17.7052 133.841 17.6944 133.841 17.6854C133.871 17.698 133.9 17.7106 133.93 17.7233C133.9 17.7197 133.871 17.7161 133.841 17.7142ZM134.065 17.7522C134.072 17.7395 134.082 17.7269 134.089 17.7142C133.999 17.7251 134.072 17.7088 133.999 17.7341C133.976 17.7251 133.953 17.7143 133.933 17.7052C134.016 17.698 134.098 17.6926 134.178 17.6854C134.201 17.6854 134.224 17.6854 134.244 17.6854C134.184 17.707 134.125 17.7287 134.065 17.7522ZM134.778 17.7721C134.705 17.7486 134.765 17.763 134.689 17.763C134.649 17.7504 134.686 17.7612 134.643 17.7721C134.636 17.7648 134.626 17.7594 134.62 17.7522C134.498 17.7413 134.593 17.7594 134.531 17.7034C134.524 17.7197 134.514 17.7359 134.507 17.7522C134.507 17.7432 134.507 17.7323 134.507 17.7233C134.471 17.7359 134.432 17.7486 134.395 17.7612C134.366 17.745 134.336 17.7287 134.306 17.7124C134.3 17.7161 134.29 17.7197 134.283 17.7215C134.283 17.6998 134.28 17.7179 134.306 17.7016C134.382 17.6781 134.356 17.6926 134.372 17.7395C134.438 17.7179 134.507 17.6944 134.573 17.6727C134.59 17.6763 134.603 17.6799 134.62 17.6817C134.679 17.6944 134.738 17.707 134.798 17.7197C134.794 17.7395 134.785 17.7558 134.778 17.7721ZM135.098 17.3873C135.101 17.3909 135.108 17.3927 135.111 17.3963C135.105 17.3927 135.098 17.3909 135.088 17.3873C135.095 17.3873 135.098 17.3873 135.098 17.3873ZM135.068 17.371H135.072C135.075 17.3747 135.081 17.3765 135.085 17.3801C135.081 17.3819 135.081 17.3819 135.078 17.3837C135.075 17.3819 135.072 17.3801 135.068 17.3801C135.068 17.3747 135.068 17.3729 135.068 17.371ZM135.019 0.1461C135.019 0.147907 135.022 0.149717 135.022 0.149717H135.019C135.019 0.14791 135.019 0.147907 135.019 0.1461ZM134.999 17.7305C134.999 17.7305 134.999 17.7323 135.002 17.7323C134.996 17.7359 134.986 17.7395 134.979 17.7413C134.986 17.7359 134.992 17.7323 134.999 17.7305C134.992 17.7215 134.986 17.7124 134.979 17.7034C135.022 17.7287 135.025 17.7179 134.999 17.7305ZM135.022 17.6944C135.006 17.6872 134.992 17.6817 134.976 17.6745C134.999 17.6655 135.022 17.6546 135.042 17.6456C135.039 17.6619 135.032 17.6781 135.022 17.6944ZM135.045 17.7522C135.068 17.7432 135.091 17.7323 135.111 17.7233C135.118 17.7323 135.128 17.7432 135.134 17.7522C135.105 17.7522 135.075 17.7522 135.045 17.7522ZM136.16 17.7251C136.154 17.7305 136.147 17.7359 136.14 17.7413C136.134 17.7395 136.13 17.7377 136.124 17.7341C136.134 17.7323 136.147 17.7287 136.16 17.7251ZM136.078 17.7088C136.078 17.7106 136.078 17.7124 136.078 17.7161C136.074 17.7143 136.071 17.7124 136.068 17.7124C136.071 17.7106 136.074 17.7106 136.078 17.7088ZM135.626 17.8967C135.655 17.9382 135.655 17.9184 135.58 17.9545C135.596 17.9346 135.613 17.9148 135.626 17.8967ZM135.448 17.9834C135.441 17.987 135.431 17.9906 135.424 17.9924C135.431 17.9635 135.441 17.9346 135.448 17.9057C135.464 17.9382 135.477 17.9707 135.494 18.0015C135.477 17.996 135.464 17.9888 135.448 17.9834ZM135.56 18.0015C135.626 17.9762 135.58 17.9906 135.649 17.9816C135.619 17.9888 135.589 17.996 135.56 18.0015ZM135.649 0.135263C135.659 0.135263 135.665 0.135263 135.675 0.135263C135.675 0.138876 135.675 0.144296 135.675 0.147909C135.672 0.147909 135.665 0.147909 135.662 0.147909C135.655 0.144296 135.652 0.140682 135.649 0.135263ZM135.692 17.4343C135.685 17.427 135.675 17.4216 135.669 17.4144C135.669 17.4108 135.669 17.4072 135.669 17.4054C135.692 17.4054 135.715 17.4054 135.735 17.4054C135.721 17.4144 135.708 17.4252 135.692 17.4343ZM135.85 17.8479C135.853 17.7865 135.85 17.7901 135.985 17.7522C135.939 17.7847 135.893 17.8154 135.85 17.8479ZM136.252 17.819C136.163 17.819 136.074 17.819 135.985 17.819C136.094 17.7648 136.127 17.7594 136.21 17.7702C136.226 17.763 136.239 17.7576 136.256 17.7504C136.252 17.7739 136.252 17.7973 136.252 17.819ZM136.229 17.3963C136.213 17.3891 136.2 17.3837 136.183 17.3765C136.183 17.3729 136.183 17.3692 136.183 17.3674C136.206 17.3638 136.229 17.3602 136.249 17.3584C136.243 17.371 136.236 17.3837 136.229 17.3963ZM136.741 17.6366C136.734 17.6456 136.724 17.6564 136.718 17.6655C136.688 17.6655 136.658 17.6655 136.629 17.6655C136.668 17.6564 136.704 17.6456 136.741 17.6366ZM136.632 17.6854C136.661 17.6926 136.691 17.698 136.721 17.7052C136.714 17.7179 136.704 17.7305 136.698 17.7431C136.635 17.7305 136.701 17.7287 136.632 17.7341C136.638 17.7251 136.648 17.7143 136.655 17.7052C136.645 17.698 136.638 17.6908 136.632 17.6854ZM136.45 17.6854C136.473 17.6854 136.497 17.6854 136.516 17.6854C136.516 17.6926 136.516 17.698 136.516 17.7052C136.487 17.7124 136.457 17.7179 136.427 17.7251C136.437 17.7106 136.444 17.698 136.45 17.6854ZM136.295 17.7034C136.299 17.6962 136.305 17.689 136.309 17.6799H136.312C136.309 17.6872 136.305 17.6944 136.302 17.7016C136.322 17.6962 136.342 17.6908 136.361 17.6835C136.378 17.6908 136.391 17.6962 136.408 17.7034C136.338 17.7251 136.417 17.7269 136.295 17.7233C136.289 17.7395 136.279 17.7558 136.272 17.7721C136.282 17.7486 136.292 17.7251 136.302 17.7034C136.299 17.7034 136.299 17.7034 136.295 17.7034ZM136.431 17.9725C136.424 17.9689 136.414 17.9653 136.408 17.9635C136.437 17.9545 136.467 17.9436 136.497 17.9346C136.46 17.9744 136.523 17.9473 136.431 17.9725ZM136.318 17.819C136.312 17.81 136.302 17.7991 136.295 17.7901C136.427 17.7359 136.417 17.8046 136.431 17.7323C136.437 17.7395 136.447 17.745 136.454 17.7522C136.46 17.7522 136.47 17.7522 136.477 17.7522C136.483 17.7721 136.493 17.7901 136.5 17.81C136.398 17.7757 136.424 17.7829 136.318 17.819ZM136.563 17.8389C136.546 17.8299 136.533 17.819 136.516 17.81C136.539 17.7883 136.563 17.7648 136.582 17.7431C136.589 17.763 136.599 17.7811 136.605 17.8009C136.635 17.7847 136.665 17.7684 136.694 17.7522C136.671 17.7721 136.648 17.7901 136.629 17.81C136.665 17.7937 136.704 17.7775 136.741 17.7612C136.757 17.7811 136.77 17.7991 136.787 17.819C136.668 17.8226 136.632 17.8154 136.563 17.8389ZM136.721 17.7522C136.727 17.7486 136.737 17.745 136.744 17.7431C136.76 17.7431 136.774 17.7431 136.79 17.7431C136.764 17.745 136.741 17.7486 136.721 17.7522ZM136.81 17.7323C136.793 17.707 136.78 17.6817 136.764 17.6546C136.81 17.6456 136.853 17.6348 136.899 17.6257C136.869 17.6619 136.84 17.698 136.81 17.7323ZM136.876 16.7714C136.859 16.7641 136.846 16.7587 136.83 16.7515C136.83 16.7479 136.83 16.7443 136.83 16.7425C136.853 16.7425 136.876 16.7425 136.896 16.7425C136.889 16.7515 136.883 16.7605 136.876 16.7714ZM137.232 17.4722C137.255 17.4758 137.278 17.4794 137.298 17.4812C137.275 17.4812 137.252 17.4812 137.232 17.4812C137.232 17.4794 137.232 17.4758 137.232 17.4722ZM137.077 17.6745C137.054 17.6619 137.031 17.6492 137.011 17.6366C137.034 17.6366 137.057 17.6366 137.077 17.6366C137.077 17.6492 137.077 17.6619 137.077 17.6745ZM137.054 17.0116C137.024 17.0026 136.995 16.9917 136.965 16.9827C137.001 16.9701 137.041 16.9574 137.077 16.9448C137.071 16.9664 137.061 16.9881 137.054 17.0116ZM137.143 17.6655C137.143 17.6528 137.143 17.6402 137.143 17.6276C137.16 17.6438 137.173 17.6601 137.189 17.6763C137.173 17.6709 137.16 17.6691 137.143 17.6655ZM137.209 17.7431C137.209 17.7341 137.209 17.7233 137.209 17.7142C137.226 17.7269 137.239 17.7395 137.255 17.7522C137.239 17.7486 137.226 17.745 137.209 17.7431ZM137.209 17.6564C137.232 17.6438 137.255 17.6312 137.275 17.6185C137.292 17.6275 137.305 17.6384 137.321 17.6474C137.328 17.6546 137.338 17.6601 137.344 17.6673C137.301 17.6619 137.255 17.6583 137.209 17.6564ZM137.344 17.6854C137.361 17.6727 137.374 17.6601 137.391 17.6474C137.387 17.6799 137.404 17.6583 137.344 17.6854ZM137.879 17.6944C137.885 17.7143 137.895 17.7323 137.902 17.7522C137.879 17.7594 137.856 17.7648 137.836 17.7721C137.829 17.7648 137.819 17.7594 137.813 17.7522C137.836 17.7323 137.859 17.7143 137.879 17.6944ZM138.974 17.5011C138.997 17.5083 139.02 17.5137 139.04 17.521C139.017 17.521 138.994 17.521 138.974 17.521C138.974 17.5137 138.974 17.5083 138.974 17.5011ZM138.393 17.6167C138.41 17.6167 138.423 17.6167 138.439 17.6167C138.416 17.6203 138.393 17.6239 138.374 17.6257C138.38 17.6239 138.387 17.6203 138.393 17.6167ZM137.658 16.7027C137.687 16.7118 137.717 16.7226 137.747 16.7316C137.74 16.7352 137.73 16.7388 137.724 16.7406C137.701 16.7316 137.678 16.7208 137.658 16.7118C137.658 16.7099 137.658 16.7063 137.658 16.7027ZM137.701 17.6655C137.694 17.6564 137.684 17.6456 137.678 17.6366C137.678 17.633 137.678 17.6294 137.678 17.6276C137.707 17.6276 137.737 17.6276 137.767 17.6276C137.773 17.6402 137.783 17.6528 137.79 17.6655C137.76 17.6655 137.73 17.6655 137.701 17.6655ZM137.836 17.6366C137.836 17.633 137.836 17.6294 137.836 17.6276C137.859 17.6312 137.882 17.6348 137.902 17.6366C137.879 17.6366 137.859 17.6366 137.836 17.6366ZM137.869 0.0864892C137.879 0.0864892 137.885 0.0864892 137.895 0.0864892C137.905 0.0955208 137.912 0.106365 137.922 0.115396C137.902 0.106365 137.885 0.0973271 137.869 0.0864892ZM137.948 16.8581C137.941 16.8544 137.932 16.8508 137.925 16.849C137.925 16.8454 137.925 16.8418 137.925 16.84C137.968 16.849 137.955 16.8364 137.948 16.8581ZM137.968 17.2807C137.968 17.2681 137.968 17.2554 137.968 17.2428C138.063 17.2392 138.162 17.2356 138.258 17.2338C138.228 17.2555 138.199 17.2789 138.169 17.3006C138.09 17.2771 138.057 17.2753 137.968 17.2807ZM138.347 17.2518C138.317 17.2591 138.288 17.2645 138.258 17.2717C138.281 17.2554 138.304 17.2392 138.324 17.2229C138.341 17.232 138.354 17.2428 138.37 17.2518C138.364 17.2518 138.357 17.2518 138.347 17.2518ZM138.459 16.7136C138.453 16.7172 138.443 16.7208 138.436 16.7226C138.443 16.7154 138.453 16.7081 138.459 16.7009C138.469 16.7009 138.479 16.7009 138.489 16.7009C138.492 16.7081 138.496 16.7136 138.502 16.7208C138.489 16.719 138.476 16.7154 138.459 16.7136ZM138.637 16.8671C138.644 16.8635 138.654 16.8599 138.661 16.8581C138.677 16.8581 138.69 16.8581 138.707 16.8581C138.684 16.8599 138.661 16.8635 138.637 16.8671ZM138.951 16.8003V16.7985C138.971 16.7985 138.987 16.7985 139.004 16.7985C139.007 16.8021 139.013 16.8057 139.017 16.8093C138.997 16.8057 138.974 16.8021 138.951 16.8003ZM139.132 16.7262C139.136 16.7244 139.139 16.7226 139.142 16.7208C139.172 16.7226 139.202 16.7226 139.231 16.7244C139.231 16.7244 139.231 16.7262 139.235 16.7262C139.202 16.7262 139.165 16.7262 139.132 16.7262ZM139.198 16.8183C139.205 16.8165 139.211 16.8165 139.218 16.8147C139.235 16.8183 139.248 16.8237 139.264 16.8274C139.241 16.8256 139.218 16.8219 139.198 16.8183ZM139.465 16.7894C139.465 16.7985 139.465 16.8093 139.465 16.8183C139.426 16.8129 139.383 16.8075 139.343 16.8003C139.383 16.7966 139.423 16.7912 139.459 16.7876C139.462 16.7894 139.462 16.7894 139.465 16.7894C139.465 16.7894 139.462 16.7894 139.465 16.7894C139.465 16.7876 139.465 16.7876 139.465 16.7894ZM139.489 17.0784C139.492 17.0766 139.498 17.0748 139.502 17.0748C139.502 17.0748 139.502 17.0748 139.502 17.0766C139.495 17.0766 139.492 17.0766 139.489 17.0784ZM139.515 17.0712C139.531 17.064 139.548 17.0586 139.564 17.0531C139.564 17.055 139.568 17.0568 139.568 17.0586C139.551 17.0622 139.531 17.0676 139.515 17.0712ZM139.733 16.943C139.726 16.9466 139.716 16.9502 139.71 16.952C139.726 16.9429 139.739 16.9321 139.756 16.9231C139.762 16.9321 139.769 16.9429 139.779 16.952C139.762 16.9502 139.746 16.9466 139.733 16.943ZM140 16.8003C140.023 16.8165 140.046 16.8328 140.066 16.849C140.043 16.84 140.02 16.8292 140 16.8201C140 16.8129 140 16.8057 140 16.8003ZM139.845 16.8382C139.838 16.8364 139.832 16.8328 139.828 16.831C139.838 16.8255 139.848 16.8219 139.858 16.8165C139.851 16.8237 139.848 16.831 139.845 16.8382ZM139.934 17.0495C139.94 17.0459 139.95 17.0423 139.957 17.0405C139.95 17.0315 139.944 17.0224 139.937 17.0134C139.944 17.017 139.95 17.0188 139.957 17.0224C139.96 17.026 139.957 17.026 139.964 17.026C139.997 17.0405 140.033 17.0549 140.066 17.0712C140.023 17.0622 139.977 17.0568 139.934 17.0495ZM140.112 16.8093C140.095 16.8057 140.082 16.8021 140.066 16.8003C140.066 16.7966 140.066 16.793 140.066 16.7912C140.082 16.7876 140.095 16.784 140.112 16.7822C140.112 16.7894 140.112 16.8003 140.112 16.8093ZM140.491 17.0784C140.475 17.0622 140.462 17.0459 140.445 17.0297C140.445 17.0224 140.445 17.017 140.445 17.0098C140.511 17.0441 140.524 17.026 140.491 17.0784ZM140.557 16.8183C140.534 16.8057 140.511 16.793 140.491 16.7804C140.491 16.7786 140.491 16.7786 140.491 16.7768C140.518 16.7786 140.544 16.7786 140.574 16.7804C140.567 16.793 140.564 16.8057 140.557 16.8183ZM140.669 17.1164C140.669 17.1037 140.669 17.0911 140.669 17.0784C140.722 17.1091 140.702 17.0802 140.669 17.1164ZM140.643 16.784C140.66 16.784 140.673 16.7858 140.689 16.7858C140.696 16.7894 140.706 16.7948 140.712 16.7985C140.693 16.7948 140.666 16.7894 140.643 16.784ZM140.914 17.1453C140.907 17.138 140.897 17.1326 140.89 17.1254C140.897 17.1182 140.907 17.1127 140.914 17.1055C140.92 17.1019 140.93 17.0983 140.937 17.0965C140.93 17.1146 140.923 17.129 140.914 17.1453ZM141.049 16.8183C141.095 16.8472 141.108 16.8292 141.049 16.8563C141.049 16.8436 141.049 16.831 141.049 16.8183ZM141.049 17.0495C141.055 17.0459 141.065 17.0423 141.072 17.0405C141.105 17.0568 141.049 17.0604 141.049 17.0604C141.049 17.0568 141.049 17.0531 141.049 17.0495ZM141.049 17.2031C141.042 17.194 141.032 17.1832 141.026 17.1742C141.072 17.1453 141.059 17.185 141.072 17.2031C141.065 17.2031 141.055 17.2031 141.049 17.2031ZM140.983 17.1362C140.983 17.1146 140.983 17.0911 140.983 17.0694C141.019 17.0784 141.059 17.0893 141.095 17.0983C141.055 17.1109 141.019 17.1236 140.983 17.1362ZM141.115 17.1073C141.131 17.0947 141.144 17.082 141.161 17.0694C141.144 17.0911 141.197 17.082 141.115 17.1073ZM141.171 16.8147C141.174 16.8147 141.177 16.8147 141.181 16.8147C141.181 16.8165 141.184 16.8165 141.184 16.8183C141.177 16.8165 141.174 16.8165 141.171 16.8147ZM141.405 16.8292C141.405 16.8292 141.408 16.8292 141.405 16.8292C141.422 16.8382 141.435 16.8472 141.451 16.8581C141.428 16.8581 141.405 16.8581 141.385 16.8581C141.392 16.8472 141.398 16.8382 141.405 16.8292ZM141.339 17.1164C141.339 17.1236 141.339 17.129 141.339 17.1362C141.316 17.1398 141.293 17.1435 141.273 17.1453C141.296 17.1362 141.316 17.1272 141.339 17.1164ZM141.362 17.194C141.342 17.1904 141.319 17.1868 141.3 17.1832C141.3 17.1832 141.296 17.1832 141.296 17.185L141.293 17.1832C141.28 17.1814 141.267 17.1778 141.253 17.176C141.253 17.1561 141.28 17.1742 141.293 17.1832C141.296 17.1832 141.3 17.1832 141.3 17.185C141.336 17.1724 141.372 17.1597 141.408 17.1471C141.392 17.1615 141.375 17.1778 141.362 17.194ZM141.428 16.905C141.458 16.8689 141.474 16.8563 141.461 16.8328C141.468 16.8328 141.471 16.8328 141.478 16.8346C141.478 16.8364 141.474 16.8382 141.474 16.84C141.481 16.8382 141.481 16.8382 141.484 16.8364C141.501 16.8382 141.517 16.8382 141.534 16.84C141.501 16.8599 141.464 16.8815 141.428 16.905ZM141.494 17.0983C141.488 17.0911 141.478 17.0856 141.471 17.0784C141.471 17.0748 141.471 17.0712 141.471 17.0694C141.494 17.0694 141.517 17.0694 141.537 17.0694C141.524 17.0784 141.511 17.0875 141.494 17.0983ZM141.652 17.1362C141.636 17.129 141.623 17.1236 141.606 17.1164C141.59 17.1236 141.577 17.129 141.56 17.1362C141.567 17.1272 141.577 17.1164 141.583 17.1073C141.577 17.1001 141.567 17.0947 141.56 17.0875C141.59 17.1001 141.619 17.1127 141.649 17.1254C141.652 17.129 141.652 17.1326 141.652 17.1362ZM141.784 17.185C141.748 17.185 141.709 17.185 141.672 17.185C141.702 17.1651 141.732 17.1471 141.761 17.1272C141.778 17.1398 141.791 17.1525 141.808 17.1651C141.778 17.1651 141.748 17.1651 141.718 17.1651C141.742 17.1706 141.765 17.1778 141.784 17.185ZM141.831 17.1453C141.808 17.1254 141.784 17.1073 141.765 17.0875C141.735 17.0875 141.705 17.0875 141.676 17.0875C141.817 17.0441 141.824 17.1091 141.831 17.1254C141.831 17.1326 141.831 17.1398 141.831 17.1453ZM141.873 16.8581C141.873 16.8563 141.873 16.8563 141.873 16.8581C141.877 16.8563 141.877 16.8563 141.873 16.8581C141.877 16.8563 141.877 16.8563 141.873 16.8581ZM142.121 16.8707C142.131 16.8707 142.141 16.8725 142.151 16.8725C142.134 16.8797 142.114 16.887 142.098 16.896C142.098 16.8906 142.108 16.8815 142.121 16.8707ZM142.121 17.2031C142.154 17.1435 142.131 17.1669 142.21 17.1543C142.18 17.1706 142.151 17.1868 142.121 17.2031ZM142.187 17.1073C142.164 17.12 142.141 17.1326 142.121 17.1453C142.071 17.0893 142.098 17.1236 141.986 17.1073C142.022 17.0947 142.062 17.082 142.098 17.0694C142.114 17.0893 142.127 17.1073 142.144 17.1272C142.167 17.1146 142.19 17.1019 142.21 17.0893C142.203 17.0947 142.193 17.1001 142.187 17.1073ZM142.164 16.896C142.164 16.8888 142.164 16.8815 142.164 16.8743C142.187 16.8761 142.21 16.8779 142.233 16.8779C142.24 16.887 142.246 16.896 142.253 16.905C142.223 16.9014 142.193 16.8996 142.164 16.896ZM142.342 16.8851C142.345 16.8851 142.345 16.8834 142.348 16.8834H142.352C142.348 16.8852 142.345 16.8851 142.342 16.8851ZM142.434 17.0116C142.467 16.9989 142.441 17.0008 142.48 17.0116C142.464 17.0116 142.447 17.0116 142.434 17.0116ZM142.517 16.8906C142.523 16.8906 142.533 16.8906 142.54 16.8906C142.543 16.896 142.543 16.8996 142.546 16.905C142.537 16.8996 142.527 16.896 142.517 16.8906ZM144.061 17.0586C144.021 17.0965 144.047 17.0857 143.971 17.1073C143.995 17.0983 144.018 17.0875 144.037 17.0784C144.047 17.0712 144.054 17.0658 144.061 17.0586ZM143.952 17.0008C143.985 17.0278 144.001 17.0116 143.929 17.0495C143.935 17.0333 143.942 17.017 143.952 17.0008ZM143.526 17.1073C143.556 17.1073 143.586 17.1073 143.615 17.1073C143.599 17.1146 143.586 17.12 143.569 17.1272C143.553 17.1236 143.539 17.12 143.523 17.1182C143.526 17.1146 143.526 17.1109 143.526 17.1073ZM143.124 17.1073C143.153 17.0947 143.183 17.082 143.213 17.0694C143.219 17.073 143.229 17.0766 143.236 17.0784C143.2 17.0875 143.163 17.0983 143.124 17.1073ZM142.946 16.9249C142.946 16.9249 142.86 16.9141 142.748 16.905C142.744 16.9032 142.748 16.9014 142.744 16.8996C142.896 16.905 143.051 16.9104 143.203 16.9141C143.213 16.9285 143.223 16.943 143.236 16.9574C143.114 16.9484 143.012 16.9375 142.946 16.9249ZM145.931 16.905C145.938 16.905 145.944 16.905 145.951 16.905C145.944 16.905 145.938 16.905 145.931 16.905ZM147.138 16.9357C147.128 16.9357 147.122 16.9357 147.112 16.9357C147.112 16.9231 147.112 16.9086 147.112 16.896C147.122 16.905 147.128 16.9159 147.138 16.9249C147.138 16.9285 147.138 16.9321 147.138 16.9357ZM148.732 16.8255C148.732 16.8274 148.735 16.8273 148.735 16.8292C148.732 16.831 148.732 16.8346 148.725 16.8382C148.728 16.8328 148.732 16.8292 148.732 16.8255ZM148.593 16.8093C148.537 16.8472 148.52 16.8526 148.504 16.8581C148.534 16.8418 148.563 16.8255 148.593 16.8093ZM148.616 16.9141C148.6 16.9141 148.586 16.9141 148.57 16.9141C148.603 16.9014 148.576 16.905 148.616 16.9141ZM148.504 17.0694C148.514 17.1001 148.497 17.0911 148.481 17.0983C148.487 17.0875 148.494 17.0784 148.504 17.0694ZM148.458 17.0694C148.441 17.0531 148.428 17.0369 148.412 17.0206C148.412 17.0044 148.412 16.9881 148.412 16.9719C148.418 16.9719 148.428 16.9719 148.435 16.9719C148.458 16.9881 148.481 17.0044 148.501 17.0206C148.487 17.0369 148.474 17.0531 148.458 17.0694ZM148.458 16.8183C148.474 16.8508 148.487 16.8833 148.504 16.9141C148.464 16.9014 148.468 16.8834 148.458 16.905C148.441 16.9014 148.428 16.8978 148.412 16.896C148.428 16.8707 148.445 16.8436 148.458 16.8183ZM148.346 16.9339C148.346 16.9267 148.346 16.9213 148.346 16.9141C148.369 16.9231 148.392 16.9339 148.412 16.943C148.392 16.9411 148.369 16.9375 148.346 16.9339ZM148.078 16.9249C148.062 16.9177 148.049 16.9123 148.032 16.905C148.032 16.8797 148.032 16.8563 148.032 16.831C148.148 16.8255 148.266 16.8219 148.382 16.8165C148.375 16.8454 148.372 16.8761 148.365 16.905C148.359 16.8834 148.349 16.8599 148.342 16.8382C148.25 16.8635 148.217 16.831 148.207 16.9159C148.184 16.9195 148.161 16.9231 148.141 16.9249C148.141 16.9086 148.141 16.8924 148.141 16.8761C148.125 16.8924 148.101 16.9086 148.078 16.9249ZM148.326 16.9917C148.296 16.9881 148.266 16.9845 148.237 16.9827C148.237 16.9791 148.237 16.9755 148.237 16.9737C148.26 16.9701 148.283 16.9664 148.303 16.9646C148.309 16.9719 148.316 16.9827 148.326 16.9917ZM148.214 17.0206C148.243 17.0134 148.273 17.008 148.303 17.0008C148.296 17.026 148.286 17.0513 148.28 17.0784C148.257 17.0586 148.237 17.0405 148.214 17.0206ZM148.346 17.0586C148.362 17.0712 148.375 17.0839 148.392 17.0965C148.369 17.1001 148.346 17.1037 148.326 17.1055C148.299 17.1218 148.316 17.1164 148.28 17.1055C148.303 17.0911 148.326 17.0748 148.346 17.0586ZM148.435 17.2139C148.451 17.2139 148.464 17.2139 148.481 17.2139C148.474 17.1976 148.464 17.1814 148.458 17.1651C148.405 17.1742 148.352 17.185 148.303 17.194C148.379 17.1724 148.451 17.1489 148.527 17.1272C148.458 17.1904 148.53 17.1995 148.573 17.2428C148.524 17.232 148.481 17.2229 148.435 17.2139ZM148.86 17.185C148.883 17.1724 148.906 17.1597 148.926 17.1471C148.893 17.185 148.946 17.1543 148.86 17.185ZM148.814 17.1742C148.771 17.2121 148.844 17.1994 148.903 17.2031C148.896 17.2121 148.887 17.2229 148.88 17.232C148.798 17.2031 148.718 17.1742 148.636 17.1453C148.629 17.1742 148.623 17.2031 148.613 17.2302C148.583 17.2103 148.553 17.1922 148.524 17.1724C148.576 17.1507 148.613 17.1561 148.636 17.1453C148.636 17.1453 148.636 17.1453 148.636 17.1435C148.646 17.1362 148.656 17.1272 148.656 17.1055C148.685 17.1182 148.715 17.1308 148.745 17.1435C148.751 17.1435 148.761 17.1435 148.768 17.1435C148.774 17.1272 148.784 17.1109 148.791 17.0947C148.685 17.1073 148.761 17.1145 148.636 17.0658C148.613 17.0856 148.59 17.1037 148.57 17.1236C148.57 17.0567 148.57 16.9881 148.57 16.9213C148.586 16.9628 148.6 17.0044 148.616 17.0459C148.755 16.9628 148.57 16.9104 148.662 16.8057C148.662 16.831 148.662 16.8563 148.662 16.8834C148.692 16.8797 148.722 16.8761 148.751 16.8743C148.758 16.8581 148.768 16.8418 148.774 16.8255C148.771 16.8255 148.771 16.8237 148.768 16.8237C148.771 16.8129 148.768 16.8057 148.755 16.7985C148.758 16.7985 148.761 16.7985 148.765 16.7985C148.781 16.8147 148.801 16.8292 148.817 16.8454C148.83 16.8292 148.84 16.8111 148.854 16.7948C148.873 16.7948 148.89 16.793 148.91 16.793C148.9 16.8075 148.893 16.8219 148.883 16.8364C148.89 16.8418 148.9 16.8472 148.906 16.8526V16.8544C148.91 16.8563 148.913 16.8563 148.916 16.8581C148.929 16.8671 148.939 16.8761 148.953 16.8834C148.956 16.8797 148.953 16.8761 148.956 16.8725C148.979 16.8815 148.999 16.8906 149.022 16.8996C149.022 16.9032 149.022 16.9086 149.022 16.9122C148.999 16.9032 148.976 16.8924 148.956 16.8834C148.92 16.8671 148.88 16.8508 148.844 16.8346C148.85 16.8472 148.85 16.8382 148.821 16.8436C148.811 16.9177 148.906 16.9303 148.844 16.9971C148.88 17.0098 148.92 17.0224 148.956 17.0351C148.877 17.0586 148.837 17.1109 148.814 17.1742ZM148.903 16.9827C148.936 16.9701 148.91 16.9719 148.949 16.9827C148.933 16.9827 148.92 16.9827 148.903 16.9827ZM149.015 17.194C148.992 17.194 148.969 17.194 148.949 17.194C148.949 17.1904 148.949 17.1868 148.949 17.185C148.972 17.1868 148.995 17.1904 149.015 17.194ZM149.015 16.943C148.926 16.9502 148.962 16.952 148.86 16.9141C148.88 16.9159 148.9 16.9159 148.916 16.9177C148.92 16.9195 148.923 16.9213 148.926 16.9249C148.926 16.9231 148.929 16.9213 148.929 16.9195C148.956 16.9213 148.986 16.9231 149.012 16.9249C149.019 16.9375 149.028 16.9502 149.035 16.9628C149.032 16.9574 149.025 16.9502 149.015 16.943ZM149.061 16.9538C149.058 16.9357 149.058 16.9267 149.058 16.9195C149.061 16.9213 149.061 16.9213 149.065 16.9231C149.065 16.9249 149.061 16.9249 149.061 16.9267C149.065 16.9267 149.068 16.9267 149.068 16.9267C149.071 16.9285 149.075 16.9303 149.078 16.9321C149.075 16.9375 149.068 16.9448 149.061 16.9538ZM149.104 16.8274C149.094 16.8364 149.088 16.8472 149.078 16.8563C149.035 16.8472 148.992 16.84 148.949 16.831C148.956 16.831 148.966 16.8328 148.992 16.8382C148.979 16.8237 148.966 16.8075 148.953 16.793C148.982 16.7912 149.009 16.7912 149.038 16.7894C149.061 16.7985 149.081 16.8075 149.104 16.8165C149.104 16.8201 149.104 16.8237 149.104 16.8274ZM149.559 17.1218C149.54 17.1055 149.52 17.0875 149.5 17.0712C149.507 17.0676 149.517 17.064 149.523 17.0604C149.566 17.0802 149.573 17.0929 149.559 17.1218ZM149.988 16.8563C149.988 16.8436 149.988 16.8292 149.988 16.8165C149.998 16.8165 150.005 16.8165 150.015 16.8165C150.005 16.8292 149.998 16.8436 149.988 16.8563ZM150.569 17.2392C150.579 17.2302 150.585 17.2193 150.595 17.2103C150.605 17.2103 150.612 17.2103 150.622 17.2103C150.602 17.2193 150.585 17.2302 150.569 17.2392ZM155.2 17.0134C155.23 17.0134 155.26 17.0134 155.293 17.0134C155.322 17.0206 155.352 17.026 155.385 17.0333C155.177 17.0315 155.349 17.0369 155.2 17.0134ZM155.21 2.19265C155.952 1.80971 156.566 1.81514 157.401 2.19627C156.596 2.44554 155.979 2.4365 155.21 2.19265ZM158.248 17.3674C158.248 17.3512 158.248 17.3349 158.248 17.3187C158.265 17.3385 158.278 17.3584 158.295 17.3783C158.278 17.3747 158.265 17.3711 158.248 17.3674ZM163.929 1.93795C164.12 1.96144 164.321 2.07524 164.424 2.17639C164.532 2.28477 164.572 2.43649 164.232 2.49068C163.833 2.50152 163.741 2.32812 163.629 2.17639C163.51 2.01924 163.619 1.90002 163.929 1.93795ZM161.791 1.93616C163.101 2.46179 163.121 2.49972 162.174 2.77067C162.045 2.4925 161.92 2.21433 161.791 1.93616ZM162.299 16.9159C162.293 16.9141 162.289 16.9122 162.283 16.9104C162.365 16.9086 162.448 16.9086 162.527 16.9068C162.454 16.9086 162.375 16.9123 162.299 16.9159ZM162.589 9.32576C162.55 9.15958 162.56 9.02771 162.965 9.15596C163.48 9.29866 163.995 9.44316 164.687 9.63644C163.599 9.91099 163.134 9.55516 162.589 9.32576ZM166.36 16.8635C166.376 16.8635 166.393 16.8635 166.409 16.8635C166.426 16.8707 166.442 16.8761 166.459 16.8834C166.35 16.8834 166.442 16.887 166.36 16.8635ZM167.594 2.98381C168.108 2.61533 166.498 2.88628 167.396 2.38773C167.726 2.35703 168.379 2.36786 168.685 2.70744C168.976 3.02716 168.695 3.31617 168.003 3.42455C167.867 3.27824 167.732 3.13012 167.594 2.98381ZM168.052 17.2175C168.052 17.2013 168.052 17.185 168.052 17.1687C168.062 17.1886 168.069 17.2085 168.079 17.2284C168.069 17.2247 168.062 17.2211 168.052 17.2175ZM168.445 5.11706C168.171 5.12609 167.937 5.0719 168.065 4.89669C168.118 4.82624 168.379 4.74135 168.501 4.75761C168.715 4.78832 168.893 4.89308 169.299 5.04661C168.85 5.08455 168.649 5.10984 168.445 5.11706ZM181.996 14.1847C181.996 14.1883 181.996 14.1901 181.996 14.1938C181.993 14.1901 181.989 14.1883 181.986 14.1847C181.989 14.1847 181.993 14.1847 181.996 14.1847ZM180.436 14.7086C180.422 14.7158 180.409 14.7212 180.396 14.7266C180.393 14.7194 180.386 14.7122 180.383 14.7049C180.403 14.7068 180.419 14.7067 180.436 14.7086ZM179.505 10.3463C180.459 10.0952 180.389 10.6064 180.96 10.7943C180.01 11.0381 179.495 10.9298 179.172 10.5595C179.139 10.5233 179.357 10.3843 179.505 10.3463ZM175.118 5.42052C174.815 5.76914 174.198 5.53251 173.746 5.36272C173.317 5.38801 172.852 5.47291 172.578 5.13152C173.152 4.96534 173.683 5.16944 174.208 5.15499C174.676 5.1008 175.323 5.1857 175.118 5.42052ZM176.715 7.73981C176.652 7.69827 176.748 7.5032 176.83 7.49055C177.391 7.40385 177.658 7.68382 178.41 7.77956C177.444 7.96741 177.025 7.94212 176.715 7.73981ZM178.968 6.14846C178.829 6.48262 178.473 6.52598 178.09 6.2189C177.615 6.17736 177.318 6.04731 177.331 5.76372C176.863 5.7294 176.395 5.69508 175.768 5.64812C176.401 5.25434 176.866 5.32117 177.338 5.55238C177.599 5.55418 177.856 5.55599 178.117 5.5578C179.189 5.40968 179.113 5.80526 178.968 6.14846ZM178.321 5.03397C178.215 5.00687 178.123 4.79915 178.163 4.7847C178.671 4.59142 179.215 4.68174 180.106 4.72689C179.363 5.07732 178.875 5.17305 178.321 5.03397Z" fill="#4C90FD" fill-opacity="0.85"/>
</svg>
