<svg width="109" height="98" viewBox="0 0 109 98" fill="none" xmlns="http://www.w3.org/2000/svg">
<path d="M89.9068 76.2244C87.5234 60.2297 90.114 40.7495 101.462 34.7614C112.811 28.7733 74.6558 9.34667 54.7217 24.0776C34.7875 38.8085 0.40077 14.9761 13.2968 51.7052C20.5916 72.4813 95.9755 116.951 89.9068 76.2244Z" fill="#F5F9FF"/>
<g clip-path="url(#clip0_1206_1438)">
<g filter="url(#filter0_d_1206_1438)">
<path d="M39.1946 26.2767L28.1855 37.2858V79.4872H68.5521V26.2767H39.1946Z" fill="white"/>
</g>
<path d="M39.1946 36.3684V26.2767L28.1855 37.2858H38.2772C38.5205 37.2858 38.7539 37.1891 38.9259 37.0171C39.098 36.845 39.1946 36.6117 39.1946 36.3684Z" fill="#E0EAF9"/>
<path d="M64.8823 60.2215C65.1365 60.2198 65.3875 60.1657 65.6198 60.0625C65.852 59.9593 66.0604 59.8093 66.232 59.6218C66.4036 59.4343 66.5345 59.2134 66.6168 58.9729C66.699 58.7324 66.7307 58.4776 66.7098 58.2243C66.6526 57.7558 66.4235 57.3253 66.0668 57.0163C65.7101 56.7073 65.2514 56.5418 64.7796 56.5518H64.2218L62.1025 60.2215H64.8823Z" fill="#E4C0AF"/>
<path d="M50.7542 74.4796L56.8091 69.498L58.9284 65.8283H54.7908C54.1202 65.8271 53.4736 65.5789 52.9743 65.1311L52.0385 66.7458L50.7542 74.4796Z" fill="#DF5D5D"/>
<path d="M62.1026 49.2124H59.4247C58.2952 49.2124 57.1858 49.5103 56.2082 50.076C55.2307 50.6417 54.4196 51.4552 53.8568 52.4344L48.1853 62.304C48.0655 62.513 47.9879 62.7436 47.9572 62.9826C47.9264 63.2216 47.943 63.4643 48.006 63.6969C48.0691 63.9295 48.1773 64.1474 48.3246 64.3381C48.4718 64.5288 48.6552 64.6887 48.8642 64.8086C49.4445 65.144 50.1061 65.3129 50.7762 65.2967C51.4463 65.2805 52.0989 65.0799 52.6624 64.7168C52.2667 64.2318 52.0468 63.6271 52.0385 63.0013C52.0699 62.2496 52.3921 61.5395 52.9371 61.0208C53.4821 60.5022 54.2073 60.2156 54.9596 60.2215H55.7449L59.3779 53.928L62.1026 49.2124Z" fill="#F7DDD1"/>
<path d="M72.4053 42.4893L67.6347 39.7371L62.1026 49.3149L59.3779 54.0305L55.7449 60.324H62.1026L64.2219 56.6543L68.4603 49.3149L72.4053 42.4893Z" fill="#DF5D5D"/>
<path d="M72.4054 42.3822L74.6989 38.4097C75.0639 37.7771 75.1626 37.0254 74.9734 36.32C74.7841 35.6146 74.3224 35.0133 73.6898 34.6483C73.0571 34.2833 72.3054 34.1846 71.6 34.3739C70.8946 34.5631 70.2933 35.0248 69.9283 35.6575L67.6348 39.6299L72.4054 42.3822Z" fill="#CC4848"/>
<path d="M80.3042 54.7169C79.4972 54.717 78.7 54.5396 77.9691 54.1973C77.2382 53.855 76.5916 53.3562 76.0749 52.7362L74.7905 51.1931C74.2739 50.5731 73.6272 50.0743 72.8963 49.732C72.1655 49.3897 71.3683 49.2123 70.5612 49.2124H68.4603L64.2218 56.5518H64.7796C65.2508 56.5426 65.7086 56.7086 66.0645 57.0175C66.4204 57.3265 66.6491 57.7564 66.7062 58.2242C66.727 58.4772 66.6955 58.7318 66.6135 58.972C66.5314 59.2122 66.4008 59.433 66.2296 59.6204C66.0584 59.8078 65.8505 59.958 65.6187 60.0614C65.3868 60.1648 65.1362 60.2193 64.8824 60.2215H54.9595C54.2072 60.2156 53.482 60.5022 52.937 61.0208C52.392 61.5395 52.0698 62.2496 52.0385 63.0013C52.0468 63.6271 52.2666 64.2318 52.6623 64.7168C52.7186 64.7884 52.7799 64.8558 52.8458 64.9187C52.8842 64.9602 52.9273 64.9971 52.9742 65.0288C53.4735 65.4765 54.1201 65.7247 54.7907 65.726H65.9016C67.0412 65.7259 68.1651 65.9913 69.1842 66.5012L69.7548 66.7856C70.7739 67.2955 71.8978 67.561 73.0373 67.5609H81.396V54.7169H80.3042Z" fill="#F7DDD1"/>
<path d="M63.0475 32.6987H44.699C44.4557 32.6987 44.2224 32.6021 44.0503 32.43C43.8783 32.258 43.7816 32.0246 43.7816 31.7813C43.7816 31.538 43.8783 31.3046 44.0503 31.1326C44.2224 30.9605 44.4557 30.8639 44.699 30.8639H63.0475C63.2908 30.8639 63.5242 30.9605 63.6962 31.1326C63.8683 31.3046 63.9649 31.538 63.9649 31.7813C63.9649 32.0246 63.8683 32.258 63.6962 32.43C63.5242 32.6021 63.2908 32.6987 63.0475 32.6987Z" fill="#A9A7A6"/>
<path d="M53.4563 38.4223H44.2945C44.173 38.4223 44.0565 38.3069 43.9706 38.1015C43.8847 37.896 43.8364 37.6174 43.8364 37.3269C43.8364 37.0363 43.8847 36.7577 43.9706 36.5523C44.0565 36.3469 44.173 36.2314 44.2945 36.2314H53.4563C53.5778 36.2314 53.6943 36.3469 53.7802 36.5523C53.8661 36.7577 53.9144 37.0363 53.9144 37.3269C53.9144 37.6174 53.8661 37.896 53.7802 38.1015C53.6943 38.3069 53.5778 38.4223 53.4563 38.4223Z" fill="#A9A7A6"/>
<path d="M61.2127 43.7078H35.5248C35.2815 43.7078 35.0482 43.6111 34.8761 43.4391C34.7041 43.267 34.6074 43.0337 34.6074 42.7903C34.6074 42.547 34.7041 42.3137 34.8761 42.1416C35.0482 41.9696 35.2815 41.8729 35.5248 41.8729H61.2127C61.456 41.8729 61.6893 41.9696 61.8614 42.1416C62.0334 42.3137 62.1301 42.547 62.1301 42.7903C62.1301 43.0337 62.0334 43.267 61.8614 43.4391C61.6893 43.6111 61.456 43.7078 61.2127 43.7078Z" fill="#A9A7A6"/>
<path d="M52.0384 49.2123H35.5248C35.2815 49.2123 35.0482 49.1156 34.8761 48.9436C34.7041 48.7715 34.6074 48.5382 34.6074 48.2949C34.6074 48.0515 34.7041 47.8182 34.8761 47.6461C35.0482 47.4741 35.2815 47.3774 35.5248 47.3774H52.0384C52.2818 47.3774 52.5151 47.4741 52.6872 47.6461C52.8592 47.8182 52.9559 48.0515 52.9559 48.2949C52.9559 48.5382 52.8592 48.7715 52.6872 48.9436C52.5151 49.1156 52.2818 49.2123 52.0384 49.2123Z" fill="#A9A7A6"/>
<path d="M39.8138 52.2641L36.3245 56.4484C36.2584 56.5277 36.1422 56.5597 36.0015 56.5373C35.8607 56.515 35.707 56.4402 35.5741 56.3293C35.4412 56.2185 35.3399 56.0807 35.2927 55.9463C35.2454 55.8118 35.256 55.6918 35.3221 55.6125L38.8114 51.4282C38.8775 51.3489 38.9937 51.3169 39.1345 51.3392C39.2752 51.3616 39.4289 51.4364 39.5619 51.5472C39.6948 51.6581 39.796 51.7959 39.8433 51.9303C39.8905 52.0647 39.8799 52.1848 39.8138 52.2641Z" fill="#DF5D5D"/>
<path d="M60.4081 35.6137L56.9188 39.798C56.8527 39.8773 56.7365 39.9093 56.5957 39.8869C56.455 39.8646 56.3012 39.7898 56.1683 39.6789C56.0354 39.5681 55.9342 39.4303 55.8869 39.2959C55.8397 39.1614 55.8502 39.0414 55.9164 38.9621L59.4057 34.7778C59.4718 34.6985 59.588 34.6665 59.7287 34.6889C59.8694 34.7112 60.0232 34.786 60.1561 34.8969C60.289 35.0077 60.3902 35.1455 60.4375 35.2799C60.4848 35.4144 60.4742 35.5344 60.4081 35.6137Z" fill="#DF5D5D"/>
<path d="M49.0155 68.4766L45.5262 72.6609C45.4601 72.7402 45.3439 72.7722 45.2031 72.7498C45.0624 72.7275 44.9087 72.6527 44.7757 72.5419C44.6428 72.431 44.5416 72.2932 44.4943 72.1588C44.4471 72.0243 44.4577 71.9043 44.5238 71.825L48.0131 67.6407C48.0792 67.5614 48.1954 67.5294 48.3361 67.5518C48.4768 67.5741 48.6306 67.6489 48.7635 67.7598C48.8964 67.8706 48.9977 68.0084 49.0449 68.1428C49.0922 68.2773 49.0816 68.3973 49.0155 68.4766Z" fill="#DF5D5D"/>
<path d="M35.3385 52.2641L38.8278 56.4484C38.8939 56.5277 39.0101 56.5597 39.1509 56.5373C39.2916 56.515 39.4453 56.4402 39.5783 56.3293C39.7112 56.2185 39.8124 56.0807 39.8597 55.9463C39.9069 55.8118 39.8963 55.6918 39.8302 55.6125L36.3409 51.4282C36.2748 51.3489 36.1586 51.3169 36.0179 51.3392C35.8772 51.3616 35.7234 51.4364 35.5905 51.5472C35.4576 51.6581 35.3563 51.7959 35.3091 51.9303C35.2618 52.0647 35.2724 52.1848 35.3385 52.2641Z" fill="#DF5D5D"/>
<path d="M55.9325 35.6137L59.4218 39.798C59.4879 39.8773 59.6041 39.9093 59.7449 39.8869C59.8856 39.8646 60.0393 39.7898 60.1723 39.6789C60.3052 39.5681 60.4064 39.4303 60.4537 39.2959C60.5009 39.1614 60.4903 39.0414 60.4242 38.9621L56.9349 34.7778C56.8688 34.6985 56.7526 34.6665 56.6119 34.6889C56.4711 34.7112 56.3174 34.786 56.1845 34.8969C56.0516 35.0077 55.9503 35.1455 55.9031 35.2799C55.8558 35.4144 55.8664 35.5344 55.9325 35.6137Z" fill="#DF5D5D"/>
<path d="M44.5401 68.4766L48.0294 72.6609C48.0955 72.7402 48.2117 72.7722 48.3524 72.7498C48.4931 72.7275 48.6469 72.6527 48.7798 72.5419C48.9127 72.431 49.014 72.2932 49.0612 72.1588C49.1085 72.0243 49.0979 71.9043 49.0318 71.825L45.5425 67.6407C45.4764 67.5614 45.3602 67.5294 45.2194 67.5518C45.0787 67.5741 44.925 67.6489 44.792 67.7598C44.6591 67.8706 44.5579 68.0084 44.5106 68.1428C44.4634 68.2773 44.474 68.3973 44.5401 68.4766Z" fill="#DF5D5D"/>
<path d="M46.5339 60.2213H35.5248C35.2815 60.2213 35.0482 60.1247 34.8761 59.9526C34.7041 59.7806 34.6074 59.5472 34.6074 59.3039C34.6074 59.0606 34.7041 58.8272 34.8761 58.6552C35.0482 58.4831 35.2815 58.3865 35.5248 58.3865H46.5339C46.7772 58.3865 47.0106 58.4831 47.1826 58.6552C47.3547 58.8272 47.4513 59.0606 47.4513 59.3039C47.4513 59.5472 47.3547 59.7806 47.1826 59.9526C47.0106 60.1247 46.7772 60.2213 46.5339 60.2213Z" fill="#A9A7A6"/>
<path d="M50.1899 54.6346H42.3028C42.1285 54.6346 41.9613 54.5423 41.838 54.378C41.7148 54.2136 41.6455 53.9907 41.6455 53.7583C41.6455 53.5259 41.7148 53.303 41.838 53.1386C41.9613 52.9743 42.1285 52.882 42.3028 52.882H50.1899C50.3642 52.882 50.5314 52.9743 50.6546 53.1386C50.7779 53.303 50.8471 53.5259 50.8471 53.7583C50.8471 53.9907 50.7779 54.2136 50.6546 54.378C50.5314 54.5423 50.3642 54.6346 50.1899 54.6346Z" fill="#A9A7A6"/>
<path d="M44.6991 65.7258H35.5248C35.2815 65.7258 35.0482 65.6292 34.8761 65.4571C34.7041 65.2851 34.6074 65.0517 34.6074 64.8084C34.6074 64.5651 34.7041 64.3317 34.8761 64.1597C35.0482 63.9876 35.2815 63.891 35.5248 63.891H44.6991C44.9424 63.891 45.1757 63.9876 45.3478 64.1597C45.5198 64.3317 45.6165 64.5651 45.6165 64.8084C45.6165 65.0517 45.5198 65.2851 45.3478 65.4571C45.1757 65.6292 44.9424 65.7258 44.6991 65.7258Z" fill="#A9A7A6"/>
<path d="M41.8646 71.2853H35.292C35.1177 71.2853 34.9505 71.193 34.8273 71.0286C34.704 70.8643 34.6348 70.6414 34.6348 70.4089C34.6348 70.1765 34.704 69.9536 34.8273 69.7893C34.9505 69.6249 35.1177 69.5326 35.292 69.5326H41.8646C42.0389 69.5326 42.2061 69.6249 42.3294 69.7893C42.4526 69.9536 42.5219 70.1765 42.5219 70.4089C42.5219 70.6414 42.4526 70.8643 42.3294 71.0286C42.2061 71.193 42.0389 71.2853 41.8646 71.2853Z" fill="#A9A7A6"/>
</g>
<defs>
<filter id="filter0_d_1206_1438" x="28.1855" y="26.2767" width="43.3332" height="56.1772" filterUnits="userSpaceOnUse" color-interpolation-filters="sRGB">
<feFlood flood-opacity="0" result="BackgroundImageFix"/>
<feColorMatrix in="SourceAlpha" type="matrix" values="0 0 0 0 0 0 0 0 0 0 0 0 0 0 0 0 0 0 127 0" result="hardAlpha"/>
<feOffset dx="2.96665" dy="2.96665"/>
<feColorMatrix type="matrix" values="0 0 0 0 0.878431 0 0 0 0 0.917647 0 0 0 0 0.976471 0 0 0 1 0"/>
<feBlend mode="normal" in2="BackgroundImageFix" result="effect1_dropShadow_1206_1438"/>
<feBlend mode="normal" in="SourceGraphic" in2="effect1_dropShadow_1206_1438" result="shape"/>
</filter>
<clipPath id="clip0_1206_1438">
<rect width="58.715" height="58.715" fill="white" transform="translate(25.4332 23.5244)"/>
</clipPath>
</defs>
</svg>
