<svg width="114" height="104" viewBox="0 0 114 104" fill="none" xmlns="http://www.w3.org/2000/svg">
<path d="M102.998 50.1037C90.6206 39.1635 79.8421 22.2286 84.7797 10.0871C89.7173 -2.05445 47.1138 7.83429 41.2093 32.4556C35.3047 57.0768 -7.24837 61.0438 26.9774 81.2869C46.3375 92.7376 134.513 77.9604 102.998 50.1037Z" fill="#F5F9FF"/>
<path d="M85.9133 35.7566L72.4084 22.2517H42.5046V78.2007H85.9133V35.7566Z" fill="#E0EAF9"/>
<g clip-path="url(#clip0_1206_1343)">
<path d="M84.5705 34.414L71.0656 20.9091H41.1619V76.858H84.5705V34.414Z" fill="white"/>
<path d="M71.0695 20.9091V34.414H84.5744L71.0695 20.9091Z" fill="#E0EAF9"/>
<path d="M49.8475 36.3433H58.5292C59.0626 36.3433 59.4938 35.9121 59.4938 35.3787C59.4938 34.8453 59.0626 34.4141 58.5292 34.4141H49.8475C49.314 34.4141 48.8828 34.8453 48.8828 35.3787C48.8828 35.9121 49.314 36.3433 49.8475 36.3433Z" fill="#A2AEB1"/>
<path d="M49.8475 44.0604H54.6706C55.2041 44.0604 55.6353 43.6292 55.6353 43.0957C55.6353 42.5623 55.2041 42.1311 54.6706 42.1311H49.8475C49.314 42.1311 48.8828 42.5623 48.8828 43.0957C48.8828 43.6292 49.314 44.0604 49.8475 44.0604Z" fill="#A2AEB1"/>
<path d="M71.0695 42.1311H64.317C63.7836 42.1311 63.3524 42.5623 63.3524 43.0957C63.3524 43.6292 63.7836 44.0604 64.317 44.0604H71.0695C71.6029 44.0604 72.0341 43.6292 72.0341 43.0957C72.0341 42.5623 71.6029 42.1311 71.0695 42.1311Z" fill="#A2AEB1"/>
<path d="M58.8089 42.4205C58.6256 42.5942 58.5292 42.844 58.5292 43.0958C58.5292 43.3466 58.6256 43.5974 58.8089 43.7807C58.9912 43.9543 59.243 44.0604 59.4938 44.0604C59.7446 44.0604 59.9954 43.963 60.1787 43.771C60.3523 43.5964 60.4584 43.3466 60.4584 43.0958C60.4584 42.844 60.3523 42.5932 60.1787 42.4109C59.8121 42.054 59.1658 42.054 58.8089 42.4205Z" fill="#A2AEB1"/>
<path d="M76.5775 42.4109C76.211 42.054 75.5743 42.054 75.2078 42.4109C75.0332 42.5932 74.928 42.844 74.928 43.0958C74.928 43.3466 75.0332 43.5974 75.2078 43.7807C75.3901 43.9543 75.6418 44.0604 75.8927 44.0604C76.1435 44.0604 76.3943 43.9543 76.5775 43.7807C76.7512 43.5974 76.8573 43.3466 76.8573 43.0958C76.8573 42.844 76.7512 42.5932 76.5775 42.4109Z" fill="#A2AEB1"/>
<path d="M61.4231 49.8483H54.6706C54.1372 49.8483 53.706 50.2795 53.706 50.8129C53.706 51.3463 54.1372 51.7775 54.6706 51.7775H61.4231C61.9565 51.7775 62.3877 51.3463 62.3877 50.8129C62.3877 50.2795 61.9565 49.8483 61.4231 49.8483Z" fill="#A2AEB1"/>
<path d="M49.1626 50.1279C48.9793 50.3102 48.8828 50.5514 48.8828 50.8128C48.8828 51.0636 48.988 51.3144 49.1626 51.4977C49.3449 51.6713 49.5966 51.7774 49.8474 51.7774C50.0983 51.7774 50.3491 51.6713 50.5323 51.4977C50.7147 51.3144 50.8121 51.0636 50.8121 50.8128C50.8121 50.561 50.7147 50.3102 50.5323 50.1279C50.1658 49.771 49.5291 49.771 49.1626 50.1279Z" fill="#A2AEB1"/>
<path d="M52.8814 58.69C50.7679 59.7907 50.0569 61.8936 49.7984 64.0746C49.3991 63.7399 48.9997 63.4061 48.6013 63.0714C47.655 62.2785 46.2823 63.6357 47.2373 64.4364C48.1392 65.1917 49.0421 65.948 49.9441 66.7042C50.5827 67.2396 51.5608 66.9078 51.5907 66.0222C51.6611 63.9319 51.7614 61.447 53.8557 60.3569C54.9592 59.782 53.983 58.117 52.8814 58.69Z" fill="#65B9A5"/>
<path d="M61.8889 63.5941C61.3873 62.697 60.305 62.2523 59.296 62.5378C57.9793 62.9102 56.4204 64.5076 55.4992 62.6401C54.9484 61.524 53.2853 62.5022 53.8333 63.6134C54.3291 64.6186 55.2802 65.3478 56.4079 65.4771C56.9934 65.5437 57.4854 65.4646 58.0362 65.2591C58.4278 65.1125 59.8912 63.9742 60.223 64.5674C60.8298 65.6536 62.4967 64.6803 61.8889 63.5941Z" fill="#65B9A5"/>
<path d="M73.5242 48.9704C73.8387 49.853 74.8468 50.2717 75.6937 49.8685C77.0374 49.2299 78.44 50.6315 77.8014 51.9762C77.3992 52.8222 77.8169 53.8312 78.6995 54.1457C80.1021 54.6444 80.1021 56.6277 78.6995 57.1264C77.8169 57.4409 77.3982 58.4489 77.8014 59.2959C78.44 60.6396 77.0384 62.0422 75.6937 61.4036C74.8477 61.0014 73.8387 61.419 73.5242 62.3017C73.0255 63.7043 71.0422 63.7043 70.5435 62.3017C70.229 61.419 69.221 61.0004 68.374 61.4036C67.0303 62.0422 65.6277 60.6406 66.2663 59.2959C66.6686 58.4499 66.2509 57.4409 65.3682 57.1264C63.9656 56.6277 63.9656 54.6444 65.3682 54.1457C66.2509 53.8312 66.6695 52.8232 66.2663 51.9762C65.6277 50.6325 67.0293 49.2299 68.374 49.8685C69.22 50.2707 70.229 49.853 70.5435 48.9704C71.0422 47.5688 73.0255 47.5688 73.5242 48.9704Z" fill="#FAD75F"/>
<path d="M75.6939 61.4035C74.847 61.0013 73.839 61.419 73.5245 62.3016C73.0258 63.7042 71.0425 63.7042 70.5438 62.3016C70.2293 61.418 69.2212 61.0003 68.3743 61.4035C68.3077 61.4354 68.2421 61.4402 68.1756 61.4624V72.0348L72.0341 68.1763L75.8927 72.0348V61.4614C75.8261 61.4402 75.7605 61.4344 75.6939 61.4035Z" fill="#4C90FD"/>
</g>
<defs>
<clipPath id="clip0_1206_1343">
<rect width="55.949" height="55.949" fill="white" transform="translate(34.8956 20.9091)"/>
</clipPath>
</defs>
</svg>
