<svg width="96" height="82" viewBox="0 0 96 82" fill="none" xmlns="http://www.w3.org/2000/svg">
<path d="M9.46883 20.3132C14.3059 35.0371 15.0078 53.8574 5.25577 61.3485C-4.49623 68.8396 34.6865 81.0228 51.1356 63.885C67.5848 46.7472 103.92 63.7014 85.8009 31.0906C75.5514 12.644 -2.84761 -17.1778 9.46883 20.3132Z" fill="#F5F9FF"/>
<g clip-path="url(#clip0_1206_1365)">
<path d="M43.5572 15.2931L41.2131 13.0343C40.0642 11.9272 38.2455 11.9272 37.0966 13.0343L34.7525 15.2931C30.0554 19.8194 27.4018 26.0616 27.4018 32.5845V42.6253H50.9078V32.5845C50.9078 26.0616 48.2541 19.8194 43.5572 15.2931Z" fill="#5A6173"/>
<path d="M43.5572 15.2933L41.2131 13.0344C40.2157 12.0733 38.7136 11.9472 37.5831 12.6549C37.7548 12.7623 37.918 12.8885 38.0695 13.0344L40.4136 15.2933C45.1107 19.8195 47.7643 26.0617 47.7643 32.5846V42.6254H50.9079V32.5846C50.9078 26.0617 48.2542 19.8195 43.5572 15.2933Z" fill="#373F51"/>
<path d="M45.4347 40.7009H32.8751C23.0591 40.7009 15.1018 48.6583 15.1018 58.4742V59.5444C15.1018 59.8116 15.3185 60.0283 15.5857 60.0283H62.7242C62.9914 60.0283 63.2081 59.8116 63.2081 59.5444V58.4742C63.208 48.6583 55.2506 40.7009 45.4347 40.7009Z" fill="#5A6173"/>
<path d="M45.5125 40.7009H41.4455C51.2185 40.7009 59.141 48.6235 59.141 58.3965V59.5466C59.141 59.8127 58.9253 60.0284 58.6593 60.0284H62.7263C62.9923 60.0284 63.208 59.8127 63.208 59.5466V58.3965C63.208 48.6235 55.2855 40.7009 45.5125 40.7009Z" fill="#373F51"/>
<path d="M39.1548 40.8243C35.0619 40.8243 31.744 37.5064 31.744 33.4134V23.1348H46.5657V33.4135C46.5657 37.5064 43.2478 40.8243 39.1548 40.8243Z" fill="#FFCBBE"/>
<path d="M44.2683 23.1348V32.4111C44.2683 36.504 40.9503 39.822 36.8574 39.822C36.2474 39.822 35.6551 39.7467 35.088 39.6077C36.2557 40.3759 37.6526 40.8243 39.155 40.8243C43.2479 40.8243 46.5658 37.5064 46.5658 33.4134V23.1348H44.2683Z" fill="#FDAD9D"/>
<path d="M50.8497 30.9368C50.4428 25.0184 47.8569 19.4366 43.5572 15.2933L41.2131 13.0344C40.0642 11.9273 38.2455 11.9273 37.0966 13.0344L34.7525 15.2933C30.4527 19.4366 27.8669 25.0184 27.46 30.9368L36.3032 27.9563C38.1531 27.3329 40.1564 27.3329 42.0064 27.9563L50.8497 30.9368Z" fill="#5A6173"/>
<path d="M36.1302 14.1079L38.4744 16.3667C42.0601 19.822 44.4525 24.2779 45.3846 29.0947L50.8497 30.9366C50.4428 25.0182 47.857 19.4365 43.5572 15.2931L41.2131 13.0343C40.0642 11.9272 38.2455 11.9272 37.0966 13.0343L36.0546 14.0385C36.0799 14.0614 36.1055 14.0841 36.1302 14.1079Z" fill="#373F51"/>
<path d="M54.478 38.9276H23.8318C22.6024 38.9276 21.6059 39.9242 21.6059 41.1536V57.8025C21.6059 59.0319 22.6024 60.0285 23.8318 60.0285H54.478C55.7074 60.0285 56.7039 59.0319 56.7039 57.8025V41.1536C56.7039 39.9242 55.7074 38.9276 54.478 38.9276Z" fill="#F8FBFF"/>
<path d="M54.4878 38.9276H53.0513V54.1596C53.0513 55.3836 52.0591 56.3758 50.8352 56.3758H21.6059V57.8122C21.6059 59.0362 22.5981 60.0284 23.8221 60.0284H54.4878C55.7117 60.0284 56.7039 59.0362 56.7039 57.8122V41.1438C56.7039 39.9198 55.7117 38.9276 54.4878 38.9276Z" fill="#D0DFEF"/>
</g>
<g clip-path="url(#clip1_1206_1365)">
<path d="M66.6603 14.6974C63.4586 14.7013 60.864 17.2959 60.86 20.4977V24.0671C60.86 24.3135 61.0598 24.5132 61.3062 24.5132H63.0909C63.3374 24.5132 63.5371 24.3135 63.5371 24.0671V20.4977C63.5371 18.7727 64.9354 17.3744 66.6603 17.3744C68.3852 17.3744 69.7836 18.7727 69.7836 20.4977V24.0671C69.7836 24.3135 69.9833 24.5132 70.2298 24.5132H72.0144C72.2608 24.5132 72.4606 24.3135 72.4606 24.0671V20.4977C72.4567 17.2959 69.8621 14.7013 66.6603 14.6974Z" fill="#373F51"/>
<path d="M61.3062 23.6208H72.0144C73.2465 23.6208 74.2453 24.6196 74.2453 25.8517V33.8829C74.2453 35.115 73.2465 36.1138 72.0144 36.1138H61.3062C60.0742 36.1138 59.0754 35.115 59.0754 33.8829V25.8518C59.0754 24.6196 60.0742 23.6208 61.3062 23.6208Z" fill="#88D4FF"/>
<path d="M68.8912 28.5289C68.8964 27.2968 67.9019 26.2938 66.6698 26.2886C65.4377 26.2834 64.4347 27.278 64.4295 28.51C64.4259 29.3617 64.9075 30.141 65.6708 30.5188L65.3263 32.9281C65.2918 33.1721 65.4616 33.3979 65.7056 33.4324C65.7263 33.4353 65.7471 33.4368 65.768 33.4368H67.5527C67.7991 33.4393 68.0009 33.2416 68.0034 32.9951C68.0036 32.9724 68.0021 32.9497 67.9989 32.9273L67.6544 30.5179C68.4083 30.1406 68.8863 29.3718 68.8912 28.5289Z" fill="#373F51"/>
</g>
<defs>
<clipPath id="clip0_1206_1365">
<rect width="49.5516" height="49.5516" fill="white" transform="translate(14.379 11.338)"/>
</clipPath>
<clipPath id="clip1_1206_1365">
<rect width="21.4164" height="21.4164" fill="white" transform="translate(55.9521 14.6974)"/>
</clipPath>
</defs>
</svg>
