<svg width="99" height="84" viewBox="0 0 99 84" fill="none" xmlns="http://www.w3.org/2000/svg">
<path d="M89.3191 62.1818C84.1441 47.0266 83.1924 27.5889 93.1785 19.7315C103.165 11.8741 62.5327 -0.24276 45.7428 17.6627C28.953 35.5681 -8.79448 18.4875 10.3197 51.9645C21.1318 70.901 102.496 100.771 89.3191 62.1818Z" fill="#F5F9FF"/>
<g clip-path="url(#clip0_1206_1395)">
<g filter="url(#filter0_d_1206_1395)">
<path d="M76.6358 28.3268L65.0827 16.7737H41.9765V65.8744H76.6358V28.3268Z" fill="white"/>
</g>
<path d="M65.0827 16.7737V28.3268H76.6358L65.0827 16.7737Z" fill="#D0DAEA"/>
<path d="M46.7632 60.0979H52.5397V65.8745H46.7632V60.0979Z" fill="#475166"/>
<path d="M49.6514 62.0234C59.754 62.0234 67.9438 53.8336 67.9438 43.731C67.9438 33.6284 59.754 25.4386 49.6514 25.4386C39.5488 25.4386 31.359 33.6284 31.359 43.731C31.359 53.8336 39.5488 62.0234 49.6514 62.0234Z" fill="#5A6173"/>
<path d="M44.8376 65.8744H54.4652V80.3158H44.8376V65.8744Z" fill="#373F51"/>
<path d="M49.6515 58.1723C57.6272 58.1723 64.0928 51.7067 64.0928 43.7309C64.0928 35.7552 57.6272 29.2896 49.6515 29.2896C41.6757 29.2896 35.2101 35.7552 35.2101 43.7309C35.2101 51.7067 41.6757 58.1723 49.6515 58.1723Z" fill="#FCFDFC"/>
<mask id="mask0_1206_1395" style="mask-type:alpha" maskUnits="userSpaceOnUse" x="35" y="29" width="30" height="30">
<path d="M49.6515 58.1723C57.6272 58.1723 64.0928 51.7067 64.0928 43.7309C64.0928 35.7552 57.6272 29.2896 49.6515 29.2896C41.6757 29.2896 35.2101 35.7552 35.2101 43.7309C35.2101 51.7067 41.6757 58.1723 49.6515 58.1723Z" fill="#FCFDFC"/>
</mask>
<g mask="url(#mask0_1206_1395)">
<path d="M37.4339 33.8457H40.4713V35.5814H37.4339V33.8457Z" fill="#E8E5E3"/>
<path d="M43.5087 33.8458H53.055V35.5815H43.5087V33.8458Z" fill="#E8E5E3"/>
<path d="M56.0924 33.8458H62.6012V35.5815H56.0924V33.8458Z" fill="#E8E5E3"/>
<path d="M37.4339 37.3171H46.9801V39.4867H37.4339V37.3171Z" fill="#E67B7B"/>
<path d="M50.0175 37.3171H62.6012V39.4867H50.0175V37.3171Z" fill="#E8E5E3"/>
<path d="M40.4713 41.2223H50.0175V43.3919H40.4713V41.2223Z" fill="#E8E5E3"/>
<path d="M53.055 41.2223H62.6012V43.3919H53.055V41.2223Z" fill="#E67B7B"/>
<path d="M46.9801 45.1277H62.6012V47.2973H46.9801V45.1277Z" fill="#E67B7B"/>
<path d="M43.5087 52.0704H53.055V53.8061H43.5087V52.0704Z" fill="#E67B7B"/>
<path d="M43.5087 55.9756H53.055V57.7113H43.5087V55.9756Z" fill="#E8E5E3"/>
</g>
</g>
<mask id="path-19-inside-1_1206_1395" fill="white">
<path d="M34.3965 25.6011C34.3965 32.0715 29.1511 37.3169 22.6807 37.3169C16.2102 37.3169 10.9648 32.0715 10.9648 25.6011C10.9648 19.1306 16.2102 13.8853 22.6807 13.8853C29.1511 13.8853 34.3965 19.1306 34.3965 25.6011ZM13.6978 25.6011C13.6978 30.5622 17.7196 34.5839 22.6807 34.5839C27.6418 34.5839 31.6635 30.5622 31.6635 25.6011C31.6635 20.64 27.6418 16.6182 22.6807 16.6182C17.7196 16.6182 13.6978 20.64 13.6978 25.6011Z"/>
</mask>
<path d="M34.3965 25.6011C34.3965 32.0715 29.1511 37.3169 22.6807 37.3169C16.2102 37.3169 10.9648 32.0715 10.9648 25.6011C10.9648 19.1306 16.2102 13.8853 22.6807 13.8853C29.1511 13.8853 34.3965 19.1306 34.3965 25.6011ZM13.6978 25.6011C13.6978 30.5622 17.7196 34.5839 22.6807 34.5839C27.6418 34.5839 31.6635 30.5622 31.6635 25.6011C31.6635 20.64 27.6418 16.6182 22.6807 16.6182C17.7196 16.6182 13.6978 20.64 13.6978 25.6011Z" stroke="#E6F3E7" stroke-width="5.57896" stroke-linecap="round" mask="url(#path-19-inside-1_1206_1395)"/>
<mask id="path-20-inside-2_1206_1395" fill="white">
<path d="M22.6807 15.2517C22.6807 14.497 23.2946 13.877 24.0441 13.9648C26.3012 14.2293 28.4434 15.1462 30.201 16.6175C32.3095 18.3825 33.7299 20.833 34.2137 23.5398C34.6975 26.2466 34.2138 29.0374 32.8472 31.4235C31.4807 33.8097 29.3184 35.6391 26.7389 36.5916C24.1594 37.5441 21.3271 37.5589 18.7377 36.6335C16.1484 35.7081 13.9671 33.9014 12.5756 31.5297C11.1841 29.158 10.6712 26.3724 11.1266 23.6607C11.5063 21.4002 12.5386 19.3111 14.0821 17.6433C14.5948 17.0894 15.4643 17.1617 15.9547 17.7353C16.4452 18.3089 16.3683 19.1656 15.8756 19.7373C14.8097 20.9744 14.0952 22.4859 13.8219 24.1133C13.4727 26.1925 13.8659 28.3283 14.9328 30.1467C15.9997 31.9651 17.6722 33.3504 19.6575 34.0599C21.6428 34.7695 23.8145 34.7581 25.7922 34.0278C27.77 33.2975 29.4279 31.8948 30.4757 30.0653C31.5235 28.2358 31.8943 26.0961 31.5234 24.0206C31.1525 21.9452 30.0634 20.0664 28.4467 18.7131C27.1814 17.6539 25.656 16.9694 24.0419 16.7219C23.2959 16.6076 22.6807 16.0064 22.6807 15.2517Z"/>
</mask>
<path d="M22.6807 15.2517C22.6807 14.497 23.2946 13.877 24.0441 13.9648C26.3012 14.2293 28.4434 15.1462 30.201 16.6175C32.3095 18.3825 33.7299 20.833 34.2137 23.5398C34.6975 26.2466 34.2138 29.0374 32.8472 31.4235C31.4807 33.8097 29.3184 35.6391 26.7389 36.5916C24.1594 37.5441 21.3271 37.5589 18.7377 36.6335C16.1484 35.7081 13.9671 33.9014 12.5756 31.5297C11.1841 29.158 10.6712 26.3724 11.1266 23.6607C11.5063 21.4002 12.5386 19.3111 14.0821 17.6433C14.5948 17.0894 15.4643 17.1617 15.9547 17.7353C16.4452 18.3089 16.3683 19.1656 15.8756 19.7373C14.8097 20.9744 14.0952 22.4859 13.8219 24.1133C13.4727 26.1925 13.8659 28.3283 14.9328 30.1467C15.9997 31.9651 17.6722 33.3504 19.6575 34.0599C21.6428 34.7695 23.8145 34.7581 25.7922 34.0278C27.77 33.2975 29.4279 31.8948 30.4757 30.0653C31.5235 28.2358 31.8943 26.0961 31.5234 24.0206C31.1525 21.9452 30.0634 20.0664 28.4467 18.7131C27.1814 17.6539 25.656 16.9694 24.0419 16.7219C23.2959 16.6076 22.6807 16.0064 22.6807 15.2517Z" stroke="#65B9A5" stroke-width="5.57896" stroke-linecap="round" mask="url(#path-20-inside-2_1206_1395)"/>
<path d="M18.251 22.7718C18.7665 22.7718 19.2117 22.8733 19.5866 23.0764C19.9667 23.2795 20.2609 23.5815 20.4692 23.9824C20.6827 24.3781 20.7894 24.8728 20.7894 25.4664C20.7894 26.1017 20.6645 26.6432 20.4145 27.091C20.1698 27.5336 19.8288 27.8721 19.3914 28.1064C18.9592 28.3407 18.4541 28.4579 17.8761 28.4579C17.5741 28.4579 17.2825 28.4214 17.0013 28.3485C16.7202 28.2808 16.478 28.1845 16.275 28.0595L16.8373 26.9504C16.9935 27.0598 17.1549 27.1353 17.3216 27.1769C17.4934 27.2134 17.6678 27.2316 17.8449 27.2316C18.2666 27.2316 18.6025 27.104 18.8524 26.8489C19.1024 26.5937 19.2273 26.2214 19.2273 25.732C19.2273 25.6435 19.2273 25.5523 19.2273 25.4586C19.2273 25.3597 19.2195 25.2607 19.2039 25.1618L19.5866 25.482C19.4929 25.6747 19.3705 25.8361 19.2195 25.9663C19.0685 26.0965 18.8915 26.1954 18.6884 26.2631C18.4853 26.3308 18.2536 26.3646 17.9933 26.3646C17.6496 26.3646 17.3346 26.2943 17.0482 26.1537C16.767 26.0079 16.5405 25.8075 16.3687 25.5523C16.1968 25.292 16.1109 24.9874 16.1109 24.6385C16.1109 24.2584 16.2073 23.9303 16.3999 23.6544C16.5926 23.3732 16.8503 23.1571 17.1732 23.0061C17.496 22.8499 17.8553 22.7718 18.251 22.7718ZM18.3526 23.8731C18.2068 23.8731 18.0792 23.9017 17.9698 23.959C17.8605 24.0163 17.772 24.097 17.7043 24.2011C17.6418 24.3 17.6106 24.4224 17.6106 24.5682C17.6106 24.7765 17.6782 24.9431 17.8136 25.0681C17.9542 25.193 18.1365 25.2555 18.3604 25.2555C18.5114 25.2555 18.6442 25.2269 18.7587 25.1696C18.8733 25.1123 18.9618 25.0316 19.0243 24.9275C19.0867 24.8233 19.118 24.701 19.118 24.5604C19.118 24.425 19.0867 24.3079 19.0243 24.2089C18.9618 24.1048 18.8733 24.0241 18.7587 23.9668C18.6442 23.9043 18.5088 23.8731 18.3526 23.8731ZM21.2392 28.3485V27.38L23.2855 25.4664C23.4313 25.331 23.5381 25.2113 23.6058 25.1071C23.6787 25.003 23.7255 24.9093 23.7464 24.826C23.7724 24.7374 23.7854 24.6567 23.7854 24.5838C23.7854 24.4068 23.7255 24.2688 23.6058 24.1699C23.4912 24.0709 23.3168 24.0215 23.0825 24.0215C22.8846 24.0215 22.6997 24.0657 22.5279 24.1542C22.3561 24.2428 22.2155 24.3755 22.1061 24.5526L20.958 23.9121C21.1611 23.5685 21.4553 23.2925 21.8406 23.0842C22.2259 22.8759 22.6867 22.7718 23.223 22.7718C23.6448 22.7718 24.0145 22.8395 24.3321 22.9749C24.6498 23.1102 24.8971 23.3029 25.0741 23.5528C25.2564 23.8028 25.3475 24.097 25.3475 24.4354C25.3475 24.6125 25.3241 24.7895 25.2772 24.9665C25.2304 25.1384 25.1392 25.3232 25.0038 25.5211C24.8737 25.7138 24.6784 25.9298 24.4181 26.1694L22.7935 27.669L22.5357 27.1223H25.4959V28.3485H21.2392Z" fill="#65B9A5"/>
<path d="M26.158 26.2328L28.558 22.718H29.2811L26.881 26.2328H26.158ZM26.4793 24.621C26.3086 24.621 26.1546 24.5825 26.0174 24.5055C25.8801 24.4286 25.773 24.3181 25.696 24.1742C25.6191 24.0269 25.5806 23.8511 25.5806 23.6469C25.5806 23.4427 25.6191 23.2687 25.696 23.1247C25.773 22.9808 25.8801 22.8703 26.0174 22.7934C26.1546 22.713 26.3086 22.6729 26.4793 22.6729C26.6534 22.6729 26.8074 22.713 26.9413 22.7934C27.0785 22.8703 27.1856 22.9808 27.2626 23.1247C27.343 23.2687 27.3831 23.4427 27.3831 23.6469C27.3831 23.8478 27.343 24.0218 27.2626 24.1691C27.1856 24.3164 27.0785 24.4286 26.9413 24.5055C26.8074 24.5825 26.6534 24.621 26.4793 24.621ZM26.4843 24.144C26.568 24.144 26.6367 24.1055 26.6902 24.0285C26.7471 23.9516 26.7756 23.8243 26.7756 23.6469C26.7756 23.4695 26.7471 23.3423 26.6902 23.2653C26.6367 23.1883 26.568 23.1499 26.4843 23.1499C26.4007 23.1499 26.3287 23.1883 26.2684 23.2653C26.2115 23.3423 26.1831 23.4695 26.1831 23.6469C26.1831 23.8243 26.2115 23.9516 26.2684 24.0285C26.3287 24.1055 26.4007 24.144 26.4843 24.144ZM28.9597 26.278C28.7857 26.278 28.63 26.2395 28.4928 26.1625C28.3589 26.0855 28.2534 25.975 28.1764 25.8311C28.0995 25.6838 28.061 25.5081 28.061 25.3039C28.061 25.0997 28.0995 24.9256 28.1764 24.7817C28.2534 24.6378 28.3589 24.5273 28.4928 24.4503C28.63 24.37 28.7857 24.3298 28.9597 24.3298C29.1338 24.3298 29.2878 24.37 29.4217 24.4503C29.5589 24.5273 29.666 24.6378 29.743 24.7817C29.8234 24.9256 29.8635 25.0997 29.8635 25.3039C29.8635 25.5081 29.8234 25.6838 29.743 25.8311C29.666 25.975 29.5589 26.0855 29.4217 26.1625C29.2878 26.2395 29.1338 26.278 28.9597 26.278ZM28.9597 25.801C29.0434 25.801 29.1137 25.7625 29.1706 25.6855C29.2275 25.6085 29.256 25.4813 29.256 25.3039C29.256 25.1265 29.2275 24.9993 29.1706 24.9223C29.1137 24.8453 29.0434 24.8068 28.9597 24.8068C28.8794 24.8068 28.8091 24.8453 28.7488 24.9223C28.6919 24.9993 28.6635 25.1265 28.6635 25.3039C28.6635 25.4813 28.6919 25.6085 28.7488 25.6855C28.8091 25.7625 28.8794 25.801 28.9597 25.801Z" fill="#65B9A5"/>
<defs>
<filter id="filter0_d_1206_1395" x="41.9765" y="16.7737" width="36.395" height="50.8364" filterUnits="userSpaceOnUse" color-interpolation-filters="sRGB">
<feFlood flood-opacity="0" result="BackgroundImageFix"/>
<feColorMatrix in="SourceAlpha" type="matrix" values="0 0 0 0 0 0 0 0 0 0 0 0 0 0 0 0 0 0 127 0" result="hardAlpha"/>
<feOffset dx="1.73568" dy="1.73568"/>
<feColorMatrix type="matrix" values="0 0 0 0 0.814521 0 0 0 0 0.855424 0 0 0 0 0.916777 0 0 0 1 0"/>
<feBlend mode="normal" in2="BackgroundImageFix" result="effect1_dropShadow_1206_1395"/>
<feBlend mode="normal" in="SourceGraphic" in2="effect1_dropShadow_1206_1395" result="shape"/>
</filter>
<clipPath id="clip0_1206_1395">
<rect width="61.6165" height="61.6165" fill="white" transform="translate(17.9075 13.8853)"/>
</clipPath>
</defs>
</svg>
