<svg width="28" height="28" viewBox="0 0 28 28" fill="none" xmlns="http://www.w3.org/2000/svg">
<path d="M18.6667 26.5417H9.33335C5.81002 26.5417 3.79169 24.5234 3.79169 21V9.62504C3.79169 5.95004 5.65835 4.08337 9.33335 4.08337C9.81169 4.08337 10.2084 4.48004 10.2084 4.95837C10.2084 5.42504 10.395 5.86837 10.7217 6.19504C11.0484 6.5217 11.4917 6.70837 11.9584 6.70837H16.0417C17.01 6.70837 17.7917 5.92671 17.7917 4.95837C17.7917 4.48004 18.1884 4.08337 18.6667 4.08337C22.3417 4.08337 24.2084 5.95004 24.2084 9.62504V21C24.2084 24.5234 22.19 26.5417 18.6667 26.5417ZM8.57499 5.85671C6.73166 6.00838 5.54169 6.83671 5.54169 9.62504V21C5.54169 23.59 6.74335 24.7917 9.33335 24.7917H18.6667C21.2567 24.7917 22.4584 23.59 22.4584 21V9.62504C22.4584 6.83671 21.2684 6.02005 19.425 5.85671C19.0284 7.35005 17.6634 8.45837 16.0417 8.45837H11.9584C11.025 8.45837 10.15 8.0967 9.48503 7.4317C9.04169 6.98837 8.73833 6.45171 8.57499 5.85671Z" fill="#373F51"/>
<path d="M16.0416 8.45837H11.9583C11.025 8.45837 10.15 8.0967 9.48499 7.4317C8.81999 6.7667 8.45831 5.89171 8.45831 4.95837C8.45831 3.03337 10.0333 1.45837 11.9583 1.45837H16.0416C16.975 1.45837 17.85 1.82005 18.515 2.48505C19.18 3.15005 19.5416 4.02504 19.5416 4.95837C19.5416 6.88337 17.9666 8.45837 16.0416 8.45837ZM11.9583 3.20837C10.99 3.20837 10.2083 3.99004 10.2083 4.95837C10.2083 5.42504 10.395 5.86837 10.7216 6.19504C11.0483 6.5217 11.4916 6.70837 11.9583 6.70837H16.0416C17.01 6.70837 17.7916 5.92671 17.7916 4.95837C17.7916 4.49171 17.605 4.04838 17.2783 3.72171C16.9516 3.39504 16.5083 3.20837 16.0416 3.20837H11.9583Z" fill="#373F51"/>
<path d="M14 16.0416H9.33331C8.85498 16.0416 8.45831 15.645 8.45831 15.1666C8.45831 14.6883 8.85498 14.2916 9.33331 14.2916H14C14.4783 14.2916 14.875 14.6883 14.875 15.1666C14.875 15.645 14.4783 16.0416 14 16.0416Z" fill="#373F51"/>
<path d="M18.6666 20.7084H9.33331C8.85498 20.7084 8.45831 20.3117 8.45831 19.8334C8.45831 19.355 8.85498 18.9584 9.33331 18.9584H18.6666C19.145 18.9584 19.5416 19.355 19.5416 19.8334C19.5416 20.3117 19.145 20.7084 18.6666 20.7084Z" fill="#373F51"/>
</svg>
