<svg width="28" height="28" viewBox="0 0 28 28" fill="none" xmlns="http://www.w3.org/2000/svg">
<path d="M10.6861 13.5567C10.6511 13.5567 10.6278 13.5567 10.5928 13.5567C10.5345 13.545 10.4528 13.545 10.3828 13.5567C6.99946 13.4517 4.44446 10.7917 4.44446 7.51337C4.44446 4.17671 7.16279 1.45837 10.4995 1.45837C13.8361 1.45837 16.5545 4.17671 16.5545 7.51337C16.5428 10.7917 13.9761 13.4517 10.7211 13.5567C10.7095 13.5567 10.6978 13.5567 10.6861 13.5567ZM10.4995 3.20837C8.13112 3.20837 6.19446 5.14504 6.19446 7.51337C6.19446 9.84671 8.01446 11.725 10.3361 11.8067C10.4061 11.795 10.5578 11.795 10.7095 11.8067C12.9961 11.7017 14.7928 9.82337 14.8045 7.51337C14.8045 5.14504 12.8678 3.20837 10.4995 3.20837Z" fill="#373F51"/>
<path d="M19.2963 13.7083C19.2613 13.7083 19.2263 13.7083 19.1913 13.6966C18.7129 13.7433 18.2229 13.405 18.1763 12.9266C18.1296 12.4483 18.4213 12.0166 18.8996 11.9583C19.0396 11.9466 19.1913 11.9466 19.3196 11.9466C21.0229 11.8533 22.3529 10.4533 22.3529 8.73829C22.3529 6.96496 20.9179 5.52996 19.1446 5.52996C18.6663 5.54163 18.2696 5.14496 18.2696 4.66663C18.2696 4.18829 18.6663 3.79163 19.1446 3.79163C21.8746 3.79163 24.1029 6.01996 24.1029 8.74996C24.1029 11.4333 22.0029 13.6033 19.3313 13.7083C19.3196 13.7083 19.3079 13.7083 19.2963 13.7083Z" fill="#373F51"/>
<path d="M11.8317 26.7979C9.545 26.7979 7.24667 26.2146 5.50833 25.0479C3.88667 23.9746 3 22.5046 3 20.9062C3 19.3079 3.88667 17.8263 5.50833 16.7413C9.00833 14.4196 14.6783 14.4196 18.155 16.7413C19.765 17.8146 20.6633 19.2846 20.6633 20.8829C20.6633 22.4812 19.7767 23.9629 18.155 25.0479C16.405 26.2146 14.1183 26.7979 11.8317 26.7979ZM6.47667 18.2112C5.35667 18.9579 4.75 19.9146 4.75 20.9179C4.75 21.9096 5.36833 22.8662 6.47667 23.6012C9.38167 25.5496 14.2817 25.5496 17.1867 23.6012C18.3067 22.8546 18.9133 21.8979 18.9133 20.8946C18.9133 19.9029 18.295 18.9462 17.1867 18.2112C14.2817 16.2746 9.38167 16.2746 6.47667 18.2112Z" fill="#373F51"/>
<path d="M21.3961 24.2084C20.9878 24.2084 20.6261 23.9284 20.5445 23.5084C20.4511 23.03 20.7545 22.575 21.2211 22.47C21.9561 22.3184 22.6328 22.0267 23.1578 21.6184C23.8228 21.1167 24.1845 20.4867 24.1845 19.8217C24.1845 19.1567 23.8228 18.5267 23.1695 18.0367C22.6561 17.64 22.0145 17.36 21.2561 17.185C20.7895 17.08 20.4861 16.6134 20.5911 16.135C20.6961 15.6684 21.1628 15.365 21.6411 15.47C22.6445 15.6917 23.5195 16.0884 24.2311 16.6367C25.3161 17.4534 25.9345 18.6084 25.9345 19.8217C25.9345 21.035 25.3045 22.19 24.2195 23.0184C23.4961 23.5784 22.5861 23.9867 21.5828 24.185C21.5128 24.2084 21.4545 24.2084 21.3961 24.2084Z" fill="#373F51"/>
</svg>
