<svg width="31" height="31" viewBox="0 0 31 31" fill="none" xmlns="http://www.w3.org/2000/svg">
<path d="M20.4212 26.0659C20.0854 26.0659 19.7366 26.053 19.3621 26.0142C18.6904 25.9625 17.9283 25.8334 17.1404 25.6396L14.9704 25.123C9.0158 23.715 7.06539 20.5634 8.46039 14.6217L9.72622 9.20962C10.0104 7.98254 10.3462 6.98796 10.7596 6.16129C12.9812 1.57587 17.2308 1.98921 20.2533 2.69962L22.4104 3.20337C25.4329 3.91379 27.3446 5.03754 28.4166 6.75546C29.4758 8.47337 29.6437 10.6821 28.9333 13.7046L27.6675 19.1038C26.5566 23.8313 24.2446 26.0659 20.4212 26.0659ZM16.9466 4.19796C14.7896 4.19796 13.4204 5.08921 12.5033 7.00087C12.1675 7.69837 11.8704 8.56379 11.6121 9.64879L10.3462 15.0609C9.19664 19.9434 10.5271 22.0746 15.4096 23.2371L17.5796 23.7538C18.2771 23.9217 18.9358 24.025 19.53 24.0767C23.0433 24.4255 24.7871 22.8884 25.7687 18.6646L27.0346 13.2655C27.6158 10.7725 27.5383 9.02879 26.7633 7.77587C25.9883 6.52296 24.4641 5.67046 21.9583 5.08921L19.8012 4.58546C18.7291 4.32712 17.7733 4.19796 16.9466 4.19796Z" fill="#373F51"/>
<path d="M10.7596 28.7395C7.43998 28.7395 5.32165 26.7504 3.9654 22.5525L2.31207 17.4504C0.477902 11.767 2.11832 8.56371 7.77582 6.72954L9.81665 6.07079C10.4883 5.86412 10.9921 5.72204 11.4442 5.64454C11.8187 5.56704 12.1804 5.70913 12.4 6.00621C12.6196 6.30329 12.6583 6.69079 12.5033 7.02662C12.1675 7.71121 11.8704 8.57662 11.625 9.66162L10.3592 15.0737C9.20957 19.9562 10.54 22.0875 15.4225 23.25L17.5925 23.7666C18.29 23.9345 18.9487 24.0379 19.5429 24.0895C19.9562 24.1283 20.2921 24.4125 20.4083 24.8129C20.5117 25.2133 20.3567 25.6266 20.0208 25.8591C19.1683 26.4404 18.0962 26.9312 16.74 27.3704L14.6992 28.042C13.2137 28.507 11.9221 28.7395 10.7596 28.7395ZM10.0492 8.03412L8.3829 8.57662C3.77165 10.062 2.67374 12.232 4.15915 16.8562L5.81249 21.9583C7.31082 26.5695 9.48082 27.6804 14.0921 26.195L16.1329 25.5233C16.2104 25.4975 16.275 25.4716 16.3525 25.4458L14.9833 25.1229C9.02874 23.715 7.07832 20.5633 8.47332 14.6216L9.73915 9.20954C9.82957 8.79621 9.9329 8.39579 10.0492 8.03412Z" fill="#373F51"/>
<path d="M22.5913 13.5754C22.5138 13.5754 22.4363 13.5625 22.3459 13.5495L16.0813 11.9608C15.5646 11.8316 15.2546 11.302 15.3838 10.7854C15.5129 10.2687 16.0425 9.95871 16.5592 10.0879L22.8238 11.6766C23.3404 11.8058 23.6504 12.3354 23.5213 12.852C23.4179 13.2783 23.0175 13.5754 22.5913 13.5754Z" fill="#373F51"/>
<path d="M18.8067 17.9412C18.7292 17.9412 18.6517 17.9283 18.5613 17.9154L14.8025 16.9596C14.2859 16.8304 13.9759 16.3008 14.105 15.7842C14.2342 15.2675 14.7638 14.9575 15.2804 15.0867L19.0392 16.0425C19.5559 16.1717 19.8659 16.7012 19.7367 17.2179C19.6334 17.6571 19.2459 17.9412 18.8067 17.9412Z" fill="#373F51"/>
</svg>
