<svg width="28" height="28" viewBox="0 0 28 28" fill="none" xmlns="http://www.w3.org/2000/svg">
<path d="M14 25.76C13.65 25.76 13.3 25.6783 13.0083 25.515C10.8267 24.325 6.98834 23.065 4.58501 22.75L4.24668 22.7033C2.71834 22.5166 1.45834 21.0816 1.45834 19.53V5.43663C1.45834 4.51497 1.82001 3.67497 2.48501 3.0683C3.15001 2.46164 4.01334 2.16997 4.92334 2.25163C7.49001 2.44997 11.3633 3.7333 13.5567 5.10997L13.8367 5.2733C13.9183 5.31997 14.0933 5.31997 14.1633 5.28497L14.35 5.1683C16.5433 3.79163 20.4167 2.48497 22.995 2.2633C23.0183 2.2633 23.1117 2.2633 23.135 2.2633C23.9867 2.18164 24.8617 2.48497 25.515 3.09164C26.18 3.6983 26.5417 4.5383 26.5417 5.45997V19.5416C26.5417 21.105 25.2817 22.5283 23.7417 22.715L23.3567 22.7616C20.9533 23.0766 17.1033 24.3483 14.9683 25.5266C14.6883 25.69 14.35 25.76 14 25.76ZM4.64334 3.98997C4.27001 3.98997 3.93168 4.1183 3.66334 4.3633C3.37168 4.63163 3.20834 5.01663 3.20834 5.43663V19.53C3.20834 20.2183 3.80334 20.8833 4.46834 20.9766L4.81834 21.0233C7.44334 21.3733 11.4683 22.6916 13.8017 23.9633C13.9067 24.01 14.0583 24.0216 14.1167 23.9983C16.45 22.7033 20.4983 21.3733 23.135 21.0233L23.5317 20.9766C24.1967 20.895 24.7917 20.2183 24.7917 19.53V5.4483C24.7917 5.01663 24.6283 4.6433 24.3367 4.3633C24.0333 4.09497 23.6483 3.96663 23.2167 3.98997C23.1933 3.98997 23.1 3.98997 23.0767 3.98997C20.8483 4.1883 17.255 5.38997 15.295 6.61497L15.1083 6.7433C14.4667 7.13997 13.5567 7.13997 12.9383 6.75497L12.6583 6.59163C10.6633 5.36663 7.07001 4.17664 4.78334 3.98997C4.73668 3.98997 4.69001 3.98997 4.64334 3.98997Z" fill="#373F51"/>
<path d="M14 24.78C13.5217 24.78 13.125 24.3834 13.125 23.905V6.40503C13.125 5.9267 13.5217 5.53003 14 5.53003C14.4783 5.53003 14.875 5.9267 14.875 6.40503V23.905C14.875 24.395 14.4783 24.78 14 24.78Z" fill="#373F51"/>
<path d="M9.04166 10.78H6.41666C5.93832 10.78 5.54166 10.3834 5.54166 9.90503C5.54166 9.4267 5.93832 9.03003 6.41666 9.03003H9.04166C9.51999 9.03003 9.91666 9.4267 9.91666 9.90503C9.91666 10.3834 9.51999 10.78 9.04166 10.78Z" fill="#373F51"/>
<path d="M9.91666 14.28H6.41666C5.93832 14.28 5.54166 13.8834 5.54166 13.405C5.54166 12.9267 5.93832 12.53 6.41666 12.53H9.91666C10.395 12.53 10.7917 12.9267 10.7917 13.405C10.7917 13.8834 10.395 14.28 9.91666 14.28Z" fill="#373F51"/>
</svg>
