<svg width="126" height="51" viewBox="0 0 126 51" fill="none" xmlns="http://www.w3.org/2000/svg">
<g clip-path="url(#clip0_1300_36)">
<path d="M50.082 29.1504V31.7285H41.1465V29.1504H50.082ZM43.7246 25.2686H47.2549V40.6201C47.2549 41.1084 47.3232 41.4844 47.46 41.748C47.6064 42.002 47.8066 42.1729 48.0605 42.2607C48.3145 42.3486 48.6123 42.3926 48.9541 42.3926C49.1982 42.3926 49.4326 42.3779 49.6572 42.3486C49.8818 42.3193 50.0625 42.29 50.1992 42.2607L50.2139 44.9561C49.9209 45.0439 49.5791 45.1221 49.1885 45.1904C48.8076 45.2588 48.3682 45.293 47.8701 45.293C47.0596 45.293 46.3418 45.1514 45.7168 44.8682C45.0918 44.5752 44.6035 44.1016 44.252 43.4473C43.9004 42.793 43.7246 41.9238 43.7246 40.8398V25.2686ZM62.3428 41.2646V29.1504H65.8877V45H62.5479L62.3428 41.2646ZM62.8408 37.9687L64.0273 37.9395C64.0273 39.0039 63.9102 39.9854 63.6758 40.8838C63.4414 41.7725 63.0801 42.5488 62.5918 43.2129C62.1035 43.8672 61.4785 44.3799 60.7168 44.751C59.9551 45.1123 59.042 45.293 57.9775 45.293C57.2061 45.293 56.498 45.1807 55.8535 44.9561C55.209 44.7314 54.6523 44.3848 54.1836 43.916C53.7246 43.4473 53.3682 42.8369 53.1143 42.085C52.8604 41.333 52.7334 40.4346 52.7334 39.3896V29.1504H56.2637V39.4189C56.2637 39.9951 56.332 40.4785 56.4688 40.8691C56.6055 41.25 56.791 41.5576 57.0254 41.792C57.2598 42.0264 57.5332 42.1924 57.8457 42.29C58.1582 42.3877 58.4902 42.4365 58.8418 42.4365C59.8477 42.4365 60.6387 42.2412 61.2148 41.8506C61.8008 41.4502 62.2158 40.9131 62.46 40.2393C62.7139 39.5654 62.8408 38.8086 62.8408 37.9687ZM79.1738 41.7187V22.5H82.7188V45H79.5107L79.1738 41.7187ZM68.8613 37.251V36.9434C68.8613 35.7422 69.0029 34.6484 69.2861 33.6621C69.5693 32.666 69.9795 31.8115 70.5166 31.0986C71.0537 30.376 71.708 29.8242 72.4795 29.4434C73.251 29.0527 74.1201 28.8574 75.0869 28.8574C76.044 28.8574 76.8838 29.043 77.6065 29.4141C78.3291 29.7852 78.9443 30.3174 79.4522 31.0107C79.96 31.6943 80.3652 32.5146 80.668 33.4717C80.9707 34.4189 81.1856 35.4736 81.3125 36.6357V37.6172C81.1856 38.75 80.9707 39.7852 80.668 40.7227C80.3652 41.6602 79.96 42.4707 79.4522 43.1543C78.9443 43.8379 78.3242 44.3652 77.5918 44.7363C76.8691 45.1074 76.0244 45.293 75.0576 45.293C74.1006 45.293 73.2363 45.0928 72.4648 44.6924C71.7031 44.292 71.0537 43.7305 70.5166 43.0078C69.9795 42.2852 69.5693 41.4355 69.2861 40.459C69.0029 39.4727 68.8613 38.4033 68.8613 37.251ZM72.3916 36.9434V37.251C72.3916 37.9736 72.4551 38.6475 72.582 39.2725C72.7188 39.8975 72.9287 40.4492 73.2119 40.9277C73.4951 41.3965 73.8613 41.7676 74.3106 42.041C74.7695 42.3047 75.3164 42.4365 75.9512 42.4365C76.752 42.4365 77.4111 42.2607 77.9287 41.9092C78.4463 41.5576 78.8516 41.084 79.1445 40.4883C79.4473 39.8828 79.6523 39.209 79.7598 38.4668V35.8154C79.7012 35.2393 79.5791 34.7021 79.3936 34.2041C79.2178 33.7061 78.9785 33.2715 78.6758 32.9004C78.3731 32.5195 77.9971 32.2266 77.5479 32.0215C77.1084 31.8066 76.5859 31.6992 75.9805 31.6992C75.3359 31.6992 74.7891 31.8359 74.3398 32.1094C73.8906 32.3828 73.5195 32.7588 73.2266 33.2373C72.9434 33.7158 72.7334 34.2725 72.5967 34.9072C72.46 35.542 72.3916 36.2207 72.3916 36.9434ZM90.1895 29.1504V45H86.6445V29.1504H90.1895ZM86.4102 24.9902C86.4102 24.4531 86.5859 24.0088 86.9375 23.6572C87.2988 23.2959 87.7969 23.1152 88.4316 23.1152C89.0566 23.1152 89.5498 23.2959 89.9111 23.6572C90.2725 24.0088 90.4531 24.4531 90.4531 24.9902C90.4531 25.5176 90.2725 25.957 89.9111 26.3086C89.5498 26.6602 89.0566 26.8359 88.4316 26.8359C87.7969 26.8359 87.2988 26.6602 86.9375 26.3086C86.5859 25.957 86.4102 25.5176 86.4102 24.9902ZM101.044 45.293C99.8721 45.293 98.8125 45.1025 97.8652 44.7217C96.9277 44.3311 96.127 43.7891 95.4629 43.0957C94.8086 42.4023 94.3057 41.5869 93.9541 40.6494C93.6025 39.7119 93.4268 38.7012 93.4268 37.6172V37.0312C93.4268 35.791 93.6074 34.668 93.9688 33.6621C94.3301 32.6562 94.833 31.7969 95.4775 31.084C96.1221 30.3613 96.8838 29.8096 97.7627 29.4287C98.6416 29.0478 99.5938 28.8574 100.619 28.8574C101.752 28.8574 102.743 29.0478 103.593 29.4287C104.442 29.8096 105.146 30.3467 105.702 31.04C106.269 31.7236 106.688 32.5391 106.962 33.4863C107.245 34.4336 107.387 35.4785 107.387 36.6211V38.1299H95.1406V35.5957H103.9V35.3174C103.881 34.6826 103.754 34.0869 103.52 33.5303C103.295 32.9736 102.948 32.5244 102.48 32.1826C102.011 31.8408 101.386 31.6699 100.605 31.6699C100.019 31.6699 99.4961 31.7969 99.0371 32.0508C98.5879 32.2949 98.2119 32.6514 97.9092 33.1201C97.6065 33.5889 97.3721 34.1553 97.2061 34.8193C97.0498 35.4736 96.9717 36.2109 96.9717 37.0312V37.6172C96.9717 38.3105 97.0645 38.9551 97.25 39.5508C97.4453 40.1367 97.7285 40.6494 98.0996 41.0889C98.4707 41.5283 98.9199 41.875 99.4473 42.1289C99.9746 42.373 100.575 42.4951 101.249 42.4951C102.099 42.4951 102.855 42.3242 103.52 41.9824C104.184 41.6406 104.76 41.1572 105.248 40.5322L107.108 42.334C106.767 42.832 106.322 43.3105 105.775 43.7695C105.229 44.2187 104.56 44.585 103.769 44.8682C102.987 45.1514 102.079 45.293 101.044 45.293ZM119.032 40.708C119.032 40.3564 118.944 40.0391 118.769 39.7559C118.593 39.4629 118.256 39.1992 117.758 38.9648C117.27 38.7305 116.547 38.5156 115.59 38.3203C114.75 38.1348 113.979 37.915 113.275 37.6611C112.582 37.3975 111.986 37.0801 111.488 36.709C110.99 36.3379 110.605 35.8984 110.331 35.3906C110.058 34.8828 109.921 34.2969 109.921 33.6328C109.921 32.9883 110.063 32.3779 110.346 31.8018C110.629 31.2256 111.034 30.7178 111.562 30.2783C112.089 29.8389 112.729 29.4922 113.48 29.2383C114.242 28.9844 115.092 28.8574 116.029 28.8574C117.357 28.8574 118.495 29.082 119.442 29.5312C120.399 29.9707 121.132 30.5713 121.64 31.333C122.147 32.085 122.401 32.9346 122.401 33.8818H118.871C118.871 33.4619 118.764 33.0713 118.549 32.71C118.344 32.3389 118.031 32.041 117.611 31.8164C117.191 31.582 116.664 31.4648 116.029 31.4648C115.424 31.4648 114.921 31.5625 114.521 31.7578C114.13 31.9434 113.837 32.1875 113.642 32.4902C113.456 32.793 113.363 33.125 113.363 33.4863C113.363 33.75 113.412 33.9893 113.51 34.2041C113.617 34.4092 113.793 34.5996 114.037 34.7754C114.281 34.9414 114.613 35.0977 115.033 35.2441C115.463 35.3906 116 35.5322 116.645 35.6689C117.855 35.9229 118.896 36.25 119.765 36.6504C120.644 37.041 121.317 37.5488 121.786 38.1738C122.255 38.7891 122.489 39.5703 122.489 40.5176C122.489 41.2207 122.338 41.8652 122.035 42.4512C121.742 43.0273 121.313 43.5303 120.746 43.96C120.18 44.3799 119.501 44.707 118.71 44.9414C117.929 45.1758 117.05 45.293 116.073 45.293C114.638 45.293 113.422 45.0391 112.426 44.5312C111.43 44.0137 110.673 43.3545 110.155 42.5537C109.647 41.7432 109.394 40.9033 109.394 40.0342H112.807C112.846 40.6885 113.026 41.2109 113.349 41.6016C113.681 41.9824 114.091 42.2607 114.579 42.4365C115.077 42.6025 115.59 42.6855 116.117 42.6855C116.752 42.6855 117.284 42.6025 117.714 42.4365C118.144 42.2607 118.471 42.0264 118.695 41.7334C118.92 41.4307 119.032 41.0889 119.032 40.708Z" fill="#373F51"/>
<path d="M41.9082 7H42.6113V14.7695L42.5645 16H41.9082V7ZM47.0234 12.7715V12.8945C47.0234 13.3672 46.9688 13.8008 46.8594 14.1953C46.75 14.5898 46.5918 14.9316 46.3848 15.2207C46.1777 15.5059 45.9238 15.7266 45.623 15.8828C45.3262 16.0391 44.9844 16.1172 44.5977 16.1172C44.2188 16.1172 43.8828 16.0586 43.5898 15.9414C43.2969 15.8203 43.0469 15.6504 42.8398 15.4316C42.6328 15.209 42.4668 14.9492 42.3418 14.6523C42.2168 14.3516 42.1289 14.0215 42.0781 13.6621V12.0977C42.1367 11.7148 42.2305 11.3672 42.3594 11.0547C42.4883 10.7422 42.6543 10.4727 42.8574 10.2461C43.0645 10.0195 43.3105 9.8457 43.5957 9.72461C43.8848 9.60352 44.2148 9.54297 44.5859 9.54297C44.9727 9.54297 45.3164 9.61914 45.6172 9.77148C45.9219 9.91992 46.1777 10.1367 46.3848 10.4219C46.5918 10.7031 46.75 11.043 46.8594 11.4414C46.9688 11.8359 47.0234 12.2793 47.0234 12.7715ZM46.3145 12.8945V12.7715C46.3145 12.4004 46.2793 12.0566 46.209 11.7402C46.1387 11.4238 46.0273 11.1484 45.875 10.9141C45.7266 10.6758 45.5352 10.4902 45.3008 10.3574C45.0664 10.2246 44.7852 10.1582 44.457 10.1582C44.1211 10.1582 43.834 10.2148 43.5957 10.3281C43.3613 10.4375 43.166 10.584 43.0098 10.7676C42.8574 10.9473 42.7363 11.1445 42.6465 11.3594C42.5566 11.5742 42.4902 11.7852 42.4473 11.9922V13.8145C42.5137 14.1074 42.6289 14.3828 42.793 14.6406C42.957 14.8984 43.1777 15.1074 43.4551 15.2676C43.7324 15.4238 44.0703 15.502 44.4688 15.502C44.7891 15.502 45.0645 15.4355 45.2949 15.3027C45.5293 15.1699 45.7207 14.9863 45.8691 14.752C46.0215 14.5176 46.1328 14.2422 46.2031 13.9258C46.2773 13.6094 46.3145 13.2656 46.3145 12.8945ZM50.3867 15.3672L52.3613 9.66016H53.1172L50.4336 17.0195C50.3789 17.1641 50.3086 17.3242 50.2227 17.5C50.1406 17.6758 50.0313 17.8438 49.8945 18.0039C49.7617 18.168 49.5938 18.3008 49.3906 18.4023C49.1914 18.5078 48.9473 18.5605 48.6582 18.5605C48.584 18.5605 48.4883 18.5508 48.3711 18.5313C48.2578 18.5156 48.1758 18.5 48.125 18.4844L48.1191 17.8926C48.1621 17.9043 48.2246 17.9141 48.3066 17.9219C48.3887 17.9297 48.4453 17.9336 48.4766 17.9336C48.7305 17.9336 48.9434 17.8906 49.1152 17.8047C49.291 17.7188 49.4375 17.5898 49.5547 17.418C49.6719 17.25 49.7754 17.0391 49.8652 16.7852L50.3867 15.3672ZM48.541 9.66016L50.5625 15.1035L50.75 15.8359L50.2402 16.123L47.7793 9.66016H48.541ZM57.5293 7.46875H58.2559L61.4082 14.9805L64.5664 7.46875H65.2871L61.6836 16H61.1328L57.5293 7.46875ZM57.3066 7.46875H57.9453L58.0215 12.2734V16H57.3066V7.46875ZM64.8828 7.46875H65.5215V16H64.8008V12.2734L64.8828 7.46875ZM71.3809 14.8633V11.5937C71.3809 11.293 71.3184 11.0332 71.1934 10.8145C71.0684 10.5957 70.8848 10.4277 70.6426 10.3105C70.4004 10.1934 70.1016 10.1348 69.7461 10.1348C69.418 10.1348 69.125 10.1934 68.8672 10.3105C68.6133 10.4238 68.4121 10.5781 68.2637 10.7734C68.1191 10.9648 68.0469 11.1777 68.0469 11.4121L67.3438 11.4062C67.3438 11.168 67.4023 10.9375 67.5195 10.7148C67.6367 10.4922 67.8027 10.293 68.0176 10.1172C68.2324 9.94141 68.4883 9.80273 68.7852 9.70117C69.0859 9.5957 69.416 9.54297 69.7754 9.54297C70.2285 9.54297 70.627 9.61914 70.9707 9.77148C71.3184 9.92383 71.5898 10.1523 71.7852 10.457C71.9805 10.7617 72.0781 11.1445 72.0781 11.6055V14.6699C72.0781 14.8887 72.0938 15.1152 72.125 15.3496C72.1602 15.584 72.209 15.7773 72.2715 15.9297V16H71.5273C71.4805 15.8594 71.4434 15.6836 71.416 15.4727C71.3926 15.2578 71.3809 15.0547 71.3809 14.8633ZM71.5449 12.3086L71.5566 12.8477H70.1797C69.8203 12.8477 69.498 12.8809 69.2129 12.9473C68.9316 13.0098 68.6934 13.1035 68.498 13.2285C68.3027 13.3496 68.1523 13.4961 68.0469 13.668C67.9453 13.8398 67.8945 14.0352 67.8945 14.2539C67.8945 14.4805 67.9512 14.6875 68.0645 14.875C68.1816 15.0625 68.3457 15.2129 68.5566 15.3262C68.7715 15.4355 69.0254 15.4902 69.3184 15.4902C69.709 15.4902 70.0527 15.418 70.3496 15.2734C70.6504 15.1289 70.8984 14.9395 71.0938 14.7051C71.2891 14.4707 71.4199 14.2148 71.4863 13.9375L71.791 14.3418C71.7402 14.5371 71.6465 14.7383 71.5098 14.9453C71.377 15.1484 71.2031 15.3398 70.9883 15.5195C70.7734 15.6953 70.5195 15.8398 70.2266 15.9531C69.9375 16.0625 69.6094 16.1172 69.2422 16.1172C68.8281 16.1172 68.4668 16.0391 68.1582 15.8828C67.8535 15.7266 67.6152 15.5137 67.4434 15.2441C67.2754 14.9707 67.1914 14.6621 67.1914 14.3184C67.1914 14.0059 67.2578 13.7266 67.3906 13.4805C67.5234 13.2305 67.7148 13.0195 67.9648 12.8477C68.2188 12.6719 68.5234 12.5391 68.8789 12.4492C69.2383 12.3555 69.6406 12.3086 70.0859 12.3086H71.5449ZM78.1309 9.66016H78.7813V15.8887C78.7813 16.4395 78.6758 16.9121 78.4648 17.3066C78.2578 17.7012 77.9629 18.0039 77.5801 18.2148C77.2012 18.4258 76.7539 18.5313 76.2383 18.5313C75.9766 18.5313 75.707 18.4902 75.4297 18.4082C75.1563 18.3301 74.8965 18.209 74.6504 18.0449C74.4082 17.8848 74.2012 17.6855 74.0293 17.4473L74.4219 17.0195C74.6797 17.332 74.9551 17.5605 75.2481 17.7051C75.541 17.8535 75.8574 17.9277 76.1973 17.9277C76.5996 17.9277 76.9395 17.8477 77.2168 17.6875C77.4981 17.5273 77.7109 17.2969 77.8555 16.9961C78.0039 16.6953 78.0781 16.334 78.0781 15.9121V11.0547L78.1309 9.66016ZM73.6777 12.8945V12.7715C73.6777 12.2793 73.7324 11.8359 73.8418 11.4414C73.9551 11.043 74.1172 10.7031 74.3281 10.4219C74.5391 10.1367 74.7949 9.91992 75.0957 9.77148C75.4004 9.61914 75.7441 9.54297 76.127 9.54297C76.4941 9.54297 76.8203 9.60352 77.1055 9.72461C77.3906 9.8457 77.6367 10.0195 77.8438 10.2461C78.0508 10.4727 78.2168 10.7422 78.3418 11.0547C78.4707 11.3672 78.5645 11.7148 78.6231 12.0977V13.6621C78.5762 14.0215 78.4902 14.3516 78.3652 14.6523C78.2402 14.9492 78.0742 15.209 77.8672 15.4316C77.6602 15.6504 77.4102 15.8203 77.1172 15.9414C76.8281 16.0586 76.4941 16.1172 76.1152 16.1172C75.7363 16.1172 75.3965 16.0391 75.0957 15.8828C74.7949 15.7266 74.5391 15.5059 74.3281 15.2207C74.1172 14.9316 73.9551 14.5898 73.8418 14.1953C73.7324 13.8008 73.6777 13.3672 73.6777 12.8945ZM74.3809 12.7715V12.8945C74.3809 13.2656 74.418 13.6094 74.4922 13.9258C74.5664 14.2422 74.6797 14.5176 74.832 14.752C74.9844 14.9863 75.1777 15.1699 75.4121 15.3027C75.6465 15.4355 75.9219 15.502 76.2383 15.502C76.6406 15.502 76.9785 15.4258 77.252 15.2734C77.5254 15.1172 77.7422 14.9121 77.9023 14.6582C78.0625 14.4004 78.1797 14.1191 78.2539 13.8145V11.9922C78.2109 11.7852 78.1445 11.5742 78.0547 11.3594C77.9688 11.1445 77.8477 10.9473 77.6914 10.7676C77.5391 10.584 77.3438 10.4375 77.1055 10.3281C76.8711 10.2148 76.5859 10.1582 76.25 10.1582C75.9297 10.1582 75.6504 10.2246 75.4121 10.3574C75.1777 10.4902 74.9844 10.6758 74.832 10.9141C74.6797 11.1484 74.5664 11.4238 74.4922 11.7402C74.418 12.0566 74.3809 12.4004 74.3809 12.7715ZM81.3945 9.66016V16H80.6973V9.66016H81.3945ZM80.5742 7.82617C80.5742 7.69336 80.6152 7.58203 80.6973 7.49219C80.7832 7.39844 80.9004 7.35156 81.0488 7.35156C81.1973 7.35156 81.3145 7.39844 81.4004 7.49219C81.4902 7.58203 81.5352 7.69336 81.5352 7.82617C81.5352 7.95508 81.4902 8.06641 81.4004 8.16016C81.3145 8.25 81.1973 8.29492 81.0488 8.29492C80.9004 8.29492 80.7832 8.25 80.6973 8.16016C80.6152 8.06641 80.5742 7.95508 80.5742 7.82617ZM87.1074 14.3828C87.1074 14.2109 87.0645 14.041 86.9785 13.873C86.8926 13.7051 86.7266 13.5508 86.4805 13.4102C86.2383 13.2695 85.8809 13.1504 85.4082 13.0527C85.0566 12.9746 84.7422 12.8867 84.4648 12.7891C84.1914 12.6914 83.9609 12.5742 83.7734 12.4375C83.5859 12.3008 83.4434 12.1367 83.3457 11.9453C83.2481 11.7539 83.1992 11.5273 83.1992 11.2656C83.1992 11.0312 83.25 10.8105 83.3516 10.6035C83.457 10.3926 83.6055 10.209 83.7969 10.0527C83.9922 9.89258 84.2266 9.76758 84.5 9.67773C84.7773 9.58789 85.0879 9.54297 85.4316 9.54297C85.9199 9.54297 86.3379 9.62695 86.6856 9.79492C87.0371 9.95898 87.3047 10.1836 87.4883 10.4687C87.6758 10.7539 87.7695 11.0762 87.7695 11.4355H87.0723C87.0723 11.2168 87.0078 11.0098 86.8789 10.8145C86.7539 10.6191 86.5684 10.459 86.3223 10.334C86.0801 10.209 85.7832 10.1465 85.4316 10.1465C85.0684 10.1465 84.7734 10.2012 84.5469 10.3105C84.3203 10.4199 84.1543 10.5586 84.0488 10.7266C83.9473 10.8945 83.8965 11.0684 83.8965 11.248C83.8965 11.3887 83.918 11.5176 83.9609 11.6348C84.0078 11.748 84.0898 11.8535 84.207 11.9512C84.3281 12.0488 84.5 12.1406 84.7227 12.2266C84.9453 12.3125 85.2344 12.3965 85.5898 12.4785C86.1016 12.5918 86.5195 12.7305 86.8438 12.8945C87.1719 13.0547 87.4141 13.2539 87.5703 13.4922C87.7266 13.7266 87.8047 14.0117 87.8047 14.3477C87.8047 14.6094 87.75 14.8496 87.6406 15.0684C87.5313 15.2832 87.3731 15.4687 87.166 15.625C86.9629 15.7812 86.7168 15.9023 86.4277 15.9883C86.1426 16.0742 85.8223 16.1172 85.4668 16.1172C84.9316 16.1172 84.4785 16.0293 84.1074 15.8535C83.7402 15.6738 83.4609 15.4395 83.2695 15.1504C83.082 14.8574 82.9883 14.5469 82.9883 14.2187H83.6856C83.709 14.5469 83.8125 14.8066 83.9961 14.998C84.1797 15.1855 84.4043 15.3184 84.6699 15.3965C84.9395 15.4746 85.2051 15.5137 85.4668 15.5137C85.8262 15.5137 86.127 15.4609 86.3691 15.3555C86.6113 15.25 86.7949 15.1113 86.9199 14.9395C87.0449 14.7676 87.1074 14.582 87.1074 14.3828ZM91.7891 9.66016V10.2344H88.6133V9.66016H91.7891ZM89.7793 8.03125H90.4766V14.459C90.4766 14.752 90.5156 14.9727 90.5938 15.1211C90.6719 15.2695 90.7734 15.3691 90.8984 15.4199C91.0234 15.4707 91.1582 15.4961 91.3027 15.4961C91.4082 15.4961 91.5098 15.4902 91.6074 15.4785C91.7051 15.4629 91.793 15.4473 91.8711 15.4316L91.9004 16.0234C91.8145 16.0508 91.7031 16.0723 91.5664 16.0879C91.4297 16.1074 91.293 16.1172 91.1563 16.1172C90.8867 16.1172 90.6484 16.0684 90.4414 15.9707C90.2344 15.8691 90.0723 15.6973 89.9551 15.4551C89.8379 15.209 89.7793 14.875 89.7793 14.4531V8.03125ZM93.957 10.709V16H93.2598V9.66016H93.9395L93.957 10.709ZM96.2012 9.61328L96.1836 10.2578C96.1055 10.2461 96.0293 10.2363 95.9551 10.2285C95.8809 10.2207 95.8008 10.2168 95.7148 10.2168C95.4102 10.2168 95.1426 10.2734 94.9121 10.3867C94.6856 10.4961 94.4941 10.6504 94.3379 10.8496C94.1816 11.0449 94.0625 11.2754 93.9805 11.541C93.8984 11.8027 93.8516 12.084 93.8398 12.3848L93.582 12.4844C93.582 12.0703 93.625 11.6855 93.7109 11.3301C93.7969 10.9746 93.9277 10.6641 94.1035 10.3984C94.2832 10.1289 94.5078 9.91992 94.7773 9.77148C95.0508 9.61914 95.3711 9.54297 95.7383 9.54297C95.8281 9.54297 95.916 9.55078 96.002 9.56641C96.0918 9.57812 96.1582 9.59375 96.2012 9.61328ZM96.5117 15.5723C96.5117 15.4355 96.5547 15.3203 96.6406 15.2266C96.7305 15.1289 96.8516 15.0801 97.0039 15.0801C97.1602 15.0801 97.2832 15.127 97.3731 15.2207C97.4629 15.3145 97.5078 15.4316 97.5078 15.5723C97.5078 15.7051 97.4629 15.8184 97.3731 15.9121C97.2832 16.0059 97.1602 16.0527 97.0039 16.0527C96.8516 16.0527 96.7305 16.0059 96.6406 15.9121C96.5547 15.8184 96.5117 15.7051 96.5117 15.5723ZM103.508 14.5352V9.66016H104.211V16H103.537L103.508 14.5352ZM103.637 13.3633L104 13.3516C104 13.75 103.953 14.1172 103.859 14.4531C103.766 14.7891 103.619 15.082 103.42 15.332C103.221 15.582 102.963 15.7754 102.646 15.9121C102.33 16.0488 101.949 16.1172 101.504 16.1172C101.195 16.1172 100.912 16.0742 100.654 15.9883C100.4 15.8984 100.182 15.7578 99.9981 15.5664C99.8145 15.375 99.6719 15.127 99.5703 14.8223C99.4727 14.5176 99.4238 14.1484 99.4238 13.7148V9.66016H100.121V13.7266C100.121 14.0664 100.158 14.3496 100.232 14.5762C100.311 14.8027 100.416 14.9844 100.549 15.1211C100.686 15.2578 100.842 15.3555 101.018 15.4141C101.193 15.4727 101.383 15.502 101.586 15.502C102.102 15.502 102.508 15.4023 102.805 15.2031C103.105 15.0039 103.318 14.7422 103.443 14.418C103.572 14.0898 103.637 13.7383 103.637 13.3633ZM109.9 14.8633V11.5937C109.9 11.293 109.838 11.0332 109.713 10.8145C109.588 10.5957 109.404 10.4277 109.162 10.3105C108.92 10.1934 108.621 10.1348 108.266 10.1348C107.938 10.1348 107.645 10.1934 107.387 10.3105C107.133 10.4238 106.932 10.5781 106.783 10.7734C106.639 10.9648 106.566 11.1777 106.566 11.4121L105.863 11.4062C105.863 11.168 105.922 10.9375 106.039 10.7148C106.156 10.4922 106.322 10.293 106.537 10.1172C106.752 9.94141 107.008 9.80273 107.305 9.70117C107.605 9.5957 107.936 9.54297 108.295 9.54297C108.748 9.54297 109.146 9.61914 109.49 9.77148C109.838 9.92383 110.109 10.1523 110.305 10.457C110.5 10.7617 110.598 11.1445 110.598 11.6055V14.6699C110.598 14.8887 110.613 15.1152 110.645 15.3496C110.68 15.584 110.729 15.7773 110.791 15.9297V16H110.047C110 15.8594 109.963 15.6836 109.936 15.4727C109.912 15.2578 109.9 15.0547 109.9 14.8633ZM110.064 12.3086L110.076 12.8477H108.699C108.34 12.8477 108.018 12.8809 107.732 12.9473C107.451 13.0098 107.213 13.1035 107.018 13.2285C106.822 13.3496 106.672 13.4961 106.566 13.668C106.465 13.8398 106.414 14.0352 106.414 14.2539C106.414 14.4805 106.471 14.6875 106.584 14.875C106.701 15.0625 106.865 15.2129 107.076 15.3262C107.291 15.4355 107.545 15.4902 107.838 15.4902C108.229 15.4902 108.572 15.418 108.869 15.2734C109.17 15.1289 109.418 14.9395 109.613 14.7051C109.809 14.4707 109.939 14.2148 110.006 13.9375L110.311 14.3418C110.26 14.5371 110.166 14.7383 110.029 14.9453C109.896 15.1484 109.723 15.3398 109.508 15.5195C109.293 15.6953 109.039 15.8398 108.746 15.9531C108.457 16.0625 108.129 16.1172 107.762 16.1172C107.348 16.1172 106.986 16.0391 106.678 15.8828C106.373 15.7266 106.135 15.5137 105.963 15.2441C105.795 14.9707 105.711 14.6621 105.711 14.3184C105.711 14.0059 105.777 13.7266 105.91 13.4805C106.043 13.2305 106.234 13.0195 106.484 12.8477C106.738 12.6719 107.043 12.5391 107.398 12.4492C107.758 12.3555 108.16 12.3086 108.605 12.3086H110.064Z" fill="#373F51"/>
<path d="M30.7988 36.75C30.7988 36.2201 30.7201 35.7474 30.5625 35.332C30.4049 34.9023 30.1185 34.5085 29.7031 34.1504C29.2878 33.7923 28.7005 33.4342 27.9414 33.0762C27.1823 32.7038 26.1868 32.3242 24.9551 31.9375C23.5514 31.4792 22.2122 30.9635 20.9375 30.3906C19.6771 29.8034 18.5527 29.123 17.5645 28.3496C16.5762 27.5762 15.7956 26.6738 15.2227 25.6426C14.6641 24.6113 14.3848 23.4082 14.3848 22.0332C14.3848 20.7012 14.6784 19.498 15.2656 18.4238C15.8529 17.3496 16.6764 16.4329 17.7363 15.6738C18.7962 14.9004 20.0423 14.3132 21.4746 13.9121C22.9069 13.4967 24.4824 13.2891 26.2012 13.2891C28.4928 13.2891 30.5052 13.6973 32.2383 14.5137C33.9857 15.3158 35.3464 16.4473 36.3203 17.9082C37.2943 19.3548 37.7812 21.0378 37.7812 22.957H30.8203C30.8203 22.112 30.6413 21.3672 30.2832 20.7227C29.9395 20.0638 29.4095 19.5482 28.6934 19.1758C27.9915 18.8034 27.1107 18.6172 26.0508 18.6172C25.0195 18.6172 24.153 18.7747 23.4512 19.0898C22.7637 19.3906 22.2409 19.806 21.8828 20.3359C21.5391 20.8659 21.3672 21.446 21.3672 22.0762C21.3672 22.5775 21.4961 23.0358 21.7539 23.4512C22.026 23.8522 22.4128 24.2318 22.9141 24.5898C23.4297 24.9336 24.0599 25.263 24.8047 25.5781C25.5495 25.8932 26.4017 26.194 27.3613 26.4805C29.0371 27.0104 30.5195 27.5977 31.8086 28.2422C33.112 28.8867 34.2077 29.6172 35.0957 30.4336C35.9837 31.25 36.6497 32.1738 37.0938 33.2051C37.5521 34.2363 37.7812 35.4036 37.7812 36.707C37.7812 38.0964 37.5091 39.3281 36.9648 40.4023C36.4349 41.4766 35.6615 42.3932 34.6445 43.1523C33.6419 43.8971 32.4388 44.4629 31.0352 44.8496C29.6315 45.2363 28.0632 45.4297 26.3301 45.4297C24.7546 45.4297 23.2005 45.2292 21.668 44.8281C20.1354 44.4128 18.7461 43.7826 17.5 42.9375C16.2682 42.0924 15.2799 41.0182 14.5352 39.7148C13.8047 38.3971 13.4395 36.8359 13.4395 35.0312H20.4434C20.4434 35.9766 20.5794 36.7786 20.8516 37.4375C21.1237 38.082 21.5104 38.6048 22.0117 39.0059C22.5273 39.4069 23.1504 39.6934 23.8809 39.8652C24.6113 40.0371 25.4277 40.123 26.3301 40.123C27.3757 40.123 28.2207 39.9798 28.8652 39.6934C29.5241 39.3926 30.0111 38.9844 30.3262 38.4688C30.6413 37.9531 30.7988 37.3802 30.7988 36.75Z" fill="#373F51"/>
<path fill-rule="evenodd" clip-rule="evenodd" d="M6.8228 18.3673C11.5805 7.47281 15.6168 4.99527 26.9272 6.26776C27.0392 5.0142 28.0469 3.92417 29.2785 4.14216L31.7417 7.46683C31.6028 7.80247 31.6115 7.98013 31.7417 8.28437L34.2608 11.2275C34.8997 11.2048 35.0459 11.0449 34.9886 10.4645L33.1412 7.19432C32.9556 7.02174 32.788 6.99504 32.4134 7.03081L29.7823 3.86967C29.4323 2.87771 29.8362 2.01875 31.5177 0L10.4686 1.96209L0 19.4574C0.0661352 19.8845 0.206373 19.9846 0.671781 19.8934L6.10201 18.3673C6.40264 18.3065 6.61755 18.305 6.8228 18.3673Z" fill="#4C90FD"/>
<path d="M10.8045 23C12.5954 12.5443 18.474 8.44785 30.0622 11.0095L26.9272 6.26776C15.6168 4.99527 11.5805 7.47281 6.8228 18.3673C6.98637 18.4169 7.14381 18.5071 7.33361 18.6398L10.8045 23Z" fill="#4586EF"/>
</g>
<defs>
<clipPath id="clip0_1300_36">
<rect width="126" height="51" fill="white"/>
</clipPath>
</defs>
</svg>
