<svg width="37" height="26" viewBox="0 0 37 26" fill="none" xmlns="http://www.w3.org/2000/svg">
<path fill-rule="evenodd" clip-rule="evenodd" d="M22.7985 19.387L20.0779 22.2131C20.2411 22.4392 20.3499 22.7218 20.3499 23.0609C20.3499 23.7392 19.9146 24.3044 19.2617 24.4174V19.9522C19.7514 19.8392 20.0779 19.387 20.0779 18.8783C20.0779 18.2566 19.5882 17.7479 18.9896 17.7479C18.3911 17.7479 17.9014 18.2566 17.9014 18.8783C17.9014 19.4435 18.2823 19.8957 18.772 20.0087V24.474C18.1735 24.3609 17.6838 23.7957 17.6838 23.1174C17.6838 22.7783 17.7926 22.4957 17.9558 22.2696L15.2352 19.4435C15.6161 19.274 15.997 19.1044 16.3235 18.9348C17.3573 18.3131 18.2823 17.5218 18.9896 16.5044C19.697 17.5218 20.622 18.3131 21.6558 18.9348C22.0367 19.1044 22.4176 19.274 22.7985 19.387Z" fill="#FCC400"/>
<path fill-rule="evenodd" clip-rule="evenodd" d="M22.7984 19.387L20.0779 22.2131C20.2411 22.4392 20.3499 22.7218 20.3499 23.0609C20.3499 23.7392 19.9146 24.3044 19.2617 24.4174V19.9522C19.7514 19.8392 20.0779 19.387 20.0779 18.8783C20.0779 18.2566 19.5882 17.7479 18.9896 17.7479V16.5044C19.697 17.4653 20.622 18.3131 21.6558 18.8783C22.0367 19.1044 22.4176 19.274 22.7984 19.387Z" fill="#D7A400"/>
<path fill-rule="evenodd" clip-rule="evenodd" d="M12.4058 3.10875C15.1808 3.10875 17.6838 4.63484 19.0441 6.8957C20.4588 4.63484 22.9073 3.10875 25.6823 3.10875C26.6617 3.10875 27.5867 3.27831 28.4573 3.61744C29.0014 3.78701 29.6544 3.90005 30.2529 3.90005C32.2117 3.90005 33.9529 2.82614 34.9867 1.24353C35.0956 1.63918 35.0956 2.09136 35.0956 2.48701C35.0956 5.65223 32.7014 8.25223 29.6544 8.42179C30.9058 8.76092 32.0485 8.7044 32.9735 8.25223C33.3544 9.15657 33.5176 10.174 33.5176 11.2479C33.5176 15.7696 29.9808 19.4435 25.6279 19.4435C22.8529 19.4435 20.35 17.9174 18.9897 15.6566C17.575 17.9174 15.1264 19.4435 12.3514 19.4435C7.99849 19.4435 4.46173 15.7696 4.46173 11.2479C4.46173 10.174 4.67937 9.15657 5.00584 8.1957C5.93084 8.64788 7.12791 8.76092 8.37938 8.42179C5.33232 8.30875 2.88379 5.70875 2.88379 2.48701C2.88379 2.03483 2.9382 1.63918 2.99261 1.24353C4.02643 2.82614 5.76761 3.90005 7.72643 3.90005C8.37937 3.90005 8.9779 3.78701 9.52202 3.61744C10.5014 3.33483 11.4264 3.10875 12.4058 3.10875Z" fill="#594139"/>
<path fill-rule="evenodd" clip-rule="evenodd" d="M12.5146 6.44348C15.2352 6.44348 17.4117 8.70435 17.4117 11.5304C17.4117 14.3565 15.2352 16.6174 12.5146 16.6174C9.79402 16.6174 7.61755 14.3565 7.61755 11.5304C7.61755 8.70435 9.79402 6.44348 12.5146 6.44348ZM25.7911 6.44348C28.5117 6.44348 30.6881 8.70435 30.6881 11.5304C30.6881 14.3565 28.5117 16.6174 25.7911 16.6174C23.0705 16.6174 20.894 14.3565 20.894 11.5304C20.894 8.70435 23.1249 6.44348 25.7911 6.44348Z" fill="#4D3C35"/>
<path fill-rule="evenodd" clip-rule="evenodd" d="M12.4058 6.33044C15.072 6.33044 17.194 8.53479 17.194 11.3044C17.194 14.0739 15.072 16.2783 12.4058 16.2783C9.73964 16.2783 7.61758 14.0739 7.61758 11.3044C7.56316 8.59131 9.73964 6.33044 12.4058 6.33044ZM25.6823 6.33044C28.3485 6.33044 30.4705 8.53479 30.4705 11.3044C30.4705 14.0739 28.3485 16.2783 25.6823 16.2783C23.0161 16.2783 20.894 14.0739 20.894 11.3044C20.894 8.59131 23.0705 6.33044 25.6823 6.33044Z" fill="#FCC400"/>
<path fill-rule="evenodd" clip-rule="evenodd" d="M12.4059 6.61316C14.5823 6.61316 16.4323 8.25229 16.8676 10.4001C15.6706 11.474 14.0926 12.1523 12.4059 12.1523C10.7191 12.1523 9.14115 11.5305 7.94409 10.4001C8.32497 8.25229 10.175 6.61316 12.4059 6.61316ZM25.6823 6.61316C27.8588 6.61316 29.7088 8.25229 30.1441 10.4001C28.947 11.474 27.3691 12.1523 25.6823 12.1523C23.9956 12.1523 22.4176 11.5305 21.2206 10.4001C21.6559 8.25229 23.5059 6.61316 25.6823 6.61316Z" fill="url(#paint0_linear)"/>
<path fill-rule="evenodd" clip-rule="evenodd" d="M12.4059 8.70435C13.7662 8.70435 14.9088 9.8913 14.9088 11.3043C14.9088 12.7174 13.7662 13.9043 12.4059 13.9043C11.0456 13.9043 9.90295 12.7174 9.90295 11.3043C9.90295 9.8913 10.9912 8.70435 12.4059 8.70435ZM25.6824 8.70435C27.0427 8.70435 28.1853 9.8913 28.1853 11.3043C28.1853 12.7174 27.0427 13.9043 25.6824 13.9043C24.3221 13.9043 23.1794 12.7174 23.1794 11.3043C23.1794 9.8913 24.3221 8.70435 25.6824 8.70435Z" fill="#4D3C35"/>
<path fill-rule="evenodd" clip-rule="evenodd" d="M24.594 8.76086C25.0837 8.76086 25.4646 9.15652 25.4646 9.66521C25.4646 10.1739 25.0837 10.6261 24.594 10.6261C24.1043 10.6261 23.7234 10.2304 23.7234 9.66521C23.7234 9.15652 24.1043 8.76086 24.594 8.76086ZM11.2087 8.76086C11.6984 8.76086 12.0793 9.15652 12.0793 9.66521C12.0793 10.1739 11.6984 10.6261 11.2087 10.6261C10.719 10.6261 10.3381 10.2304 10.3381 9.66521C10.3381 9.15652 10.719 8.76086 11.2087 8.76086Z" fill="white"/>
<defs>
<linearGradient id="paint0_linear" x1="19.0412" y1="3.86247" x2="19.0412" y2="16.203" gradientUnits="userSpaceOnUse">
<stop stop-color="#FCC400"/>
<stop offset="1" stop-color="white"/>
</linearGradient>
</defs>
</svg>
